<?xml version="1.0" encoding="utf-8"?>
<!-- Generator: Adobe Illustrator 19.0.0, SVG Export Plug-In . SVG Version: 6.00 Build 0)  -->
<svg version="1.1" id="图层_1" xmlns="http://www.w3.org/2000/svg" xmlns:xlink="http://www.w3.org/1999/xlink" x="0px" y="0px"
	 viewBox="0 0 1465.2 1257.5" style="enable-background:new 0 0 1465.2 1257.5;" xml:space="preserve">
<style type="text/css">
	.st0{fill:#E1AD0B;}
	.st1{fill:#EAEAEA;}
	.st2{fill:#1C1B20;}
</style>
<polygon id="XMLID_73_" class="st0" points="633.8,292 915.8,292 831.3,236.3 549.4,236.3 "/>
<polygon id="XMLID_70_" class="st1" points="542.7,1044.5 987.9,1044.5 922.5,1001.4 477.3,1001.4 "/>
<g id="XMLID_76_">
	<path id="XMLID_170_" class="st2" d="M659.5,270.5c-1.8,0-3,0.1-4.2,0.2V268c1.2,0.2,2.4,0.2,4.2,0.2h12v-0.7c0-0.8,0-1.5-0.1-2.4
		h1.7c2.8-1.3,5-2.8,7.2-4.5h-14.6c-1.4,0-2.7,0.1-3.8,0.2v-2.6c1.1,0.1,2.4,0.2,3.9,0.2h14.4c1.5,0,2.3,0,3-0.2l1.5,1.6
		c-0.5,0.4-0.5,0.4-1.4,1.2c-2.7,2.2-5.2,3.9-9.1,5.9v1.2h11.9c1.8,0,3.1-0.1,4.2-0.2v2.8c-1.1-0.2-2.5-0.2-4.2-0.2H674v8.4
		c0,2.5-0.7,2.9-4.6,2.9c-1.2,0-3-0.1-4.5-0.2c-0.3-1.2-0.4-1.7-0.8-2.6c2.2,0.3,3.8,0.4,5.3,0.4c1.8,0,2-0.1,2-0.9v-8H659.5z
		 M671.8,252.4c-0.7-2-1.6-3.7-2.9-5.8l2.5-0.7c1.5,2.7,2.2,4,3,6.4h4.4c1.8-2,3-3.9,4.1-6.4l2.5,1.1c-1.6,2.6-2.7,4.1-3.8,5.4h3.1
		c2.3,0,3.2,0,4.6-0.2c-0.1,1-0.2,1.8-0.2,3.3v3c0,0.9,0.1,1.9,0.2,2.8h-2.6v-6.7h-28.2v6.7h-2.6c0.1-0.9,0.2-1.8,0.2-2.8v-3
		c0-1.5,0-2.3-0.2-3.3c1.5,0.2,2.4,0.2,4.6,0.2h2.8c-1-1.9-1.9-3.1-3.8-5.2l2.4-0.8c1.8,2.2,2.8,3.6,4.1,5.9H671.8z"/>
	<path id="XMLID_871_" class="st2" d="M696.1,250.3c0-1.1,0-2-0.1-3c0.6,0.1,1.5,0.1,2.7,0.1h5.5c1.3,0,1.8,0,2.4-0.2l1.2,1.4
		c-0.1,0.2-0.4,0.7-0.6,1.3c-1.5,3.8-2.6,6.2-4.2,9.2c1.9,2.3,2.7,3.4,3.3,5.2c0.6,1.5,0.9,3.1,0.9,4.8c0,2.3-0.7,3.5-2.1,3.9
		c-0.8,0.2-1.8,0.3-3.1,0.3c-0.5,0-0.8,0-1.4,0c-0.1-1.1-0.3-1.7-0.6-2.6c1,0.2,1.7,0.2,2.6,0.2c1.8,0,2.2-0.4,2.2-2.1
		c0-1.8-0.5-3.7-1.4-5.5c-0.6-1.1-1.4-2.2-3-3.9c2-3.6,3.1-6.2,4.4-9.8h-6.2v28.8c0,1.6,0,2.6,0.2,3.7h-2.9c0.2-1.1,0.2-2.2,0.2-3.7
		V250.3z M711.6,265.6c-1.6,0-2.5,0-3.6,0.2v-2.6c1,0.2,2.2,0.2,3.7,0.2h15c1.6,0,2.8-0.1,3.8-0.2v2.6c-1.1-0.2-2.2-0.2-3.8-0.2h-4
		v12.6c0,0.8,0.5,1,2.9,1c2.8,0,2.8,0,3.2-6.3c1,0.6,1.4,0.8,2.4,1c-0.6,7-1,7.6-5.6,7.6c-4.4,0-5.4-0.4-5.4-2.5v-13.4H716
		c-0.2,3.7-0.4,4.6-0.9,6.7c-0.8,2.9-2.5,5.3-5,7c-1.5,1.1-3,1.8-5.5,2.8c-0.6-0.9-1.2-1.6-1.8-2.1c5.1-1.7,7.2-3.1,8.8-5.8
		c1.3-2.1,1.8-4.2,1.9-8.6H711.6z M726.3,250.5c1.4,0,2.8-0.1,3.8-0.2c-0.1,0.8-0.1,1.2-0.1,2.6v2.6c0,1.2,0,1.8,0.2,2.7h-2.6v-5.5
		H710v5.4h-2.5c0.1-1,0.1-1.4,0.1-2.7v-2.6c0-1.2,0-1.4-0.1-2.5c1.4,0.2,2.6,0.2,4.2,0.2h5.9c-1.2-2.1-1.4-2.4-2.3-3.6l2-1.2
		c1.1,1.5,2,2.8,3,4.8H726.3z M711.2,256.9c1,0.1,1.6,0.2,3,0.2h9.2c1.4,0,2,0,3-0.2v2.5c-1-0.1-1.8-0.2-3-0.2h-9.3
		c-1.1,0-2.1,0-3,0.2V256.9z"/>
	<path id="XMLID_876_" class="st2" d="M745.5,250.9c0.6,0.8,1,1.4,2,3l-2.2,0.8c-0.8-1.7-1.2-2.5-2.1-3.9h-2.5
		c-1.5,2-2.6,3.3-4.5,5.1c-0.6-0.9-0.9-1.1-1.8-1.7c1.6-1.2,2.5-2.1,3.6-3.6c1.4-1.8,2.1-3,2.9-5l2.5,0.8c-0.7,1.2-0.9,1.6-1.4,2.5
		h6c1.9,0,3-0.1,4-0.2v2.4c-1.3-0.1-2.2-0.2-3.7-0.2H745.5z M739.9,260.7c-0.2,1.3-0.2,2.4-0.2,4.5v12.3c0,2.2,0,3.5,0.2,4.6h-3
		c0.2-1.2,0.2-2.5,0.2-4.6v-12.3c0-2.1-0.1-3.1-0.2-4.5H739.9z M740.5,254.5c2.2,2,3.3,3.1,5,5.3l-1.9,1.7c-1.5-2.2-2.5-3.4-4.8-5.5
		L740.5,254.5z M759.7,273.6c0,1.6,0,2.6,0.1,3.7c-1.1-0.1-2.2-0.2-4.1-0.2h-8.1v1.8h-2.4c0.1-1.2,0.2-2.2,0.2-3.6v-9.2
		c0-1.6,0-2.6-0.2-3.8c1,0.1,2,0.2,3.9,0.2h6.6c2,0,3.1,0,4.1-0.2c-0.1,1.1-0.1,2.1-0.1,3.8V273.6z M768.4,278.4
		c0,2.7-0.9,3.5-4.2,3.5c-1.5,0-3.1-0.1-5.2-0.2c-0.1-1.2-0.2-1.7-0.6-2.7c2.8,0.4,4,0.5,5.9,0.5c1.3,0,1.6-0.2,1.6-1v-20h-14.4
		c-1.8,0-3.3,0.1-4.4,0.2V256c1,0.2,2.2,0.2,4.2,0.2h12.4c2.2,0,3.3,0,4.8-0.2c-0.2,1.5-0.2,2.9-0.2,5V278.4z M747.7,268.9h9.8v-4.5
		h-9.8V268.9z M747.7,275.2h9.8v-4.4h-9.8V275.2z M765.6,248.9c2,0,3,0,4.3-0.2v2.5c-1.4-0.2-2.5-0.2-4.2-0.2h-3.9
		c0.8,1.1,1.4,1.9,2.1,3.1l-2,0.9c-0.8-1.5-1.7-2.9-2.6-4h-3.8c-0.9,1.6-1.5,2.4-2.5,3.6c-0.6-0.6-1.1-0.8-2-1.2
		c2.2-2.3,3.6-4.9,4.4-7.8l2.4,0.6c-0.4,0.9-0.9,2-1.2,2.7H765.6z"/>
	<path id="XMLID_885_" class="st2" d="M794.4,246.2l-0.6,0.8c2,3,4.2,5.5,7.4,8.1c3.1,2.5,6.7,4.8,10.2,6.3
		c-0.8,0.9-1.1,1.5-1.7,2.6c-0.6-0.4-1.1-0.6-1.4-0.8c-3.8-2.1-4.4-2.6-7.4-4.9c-3.9-3-6-5.4-8.4-9.1c-2.1,3.2-3.4,4.7-5.8,7.1
		c-3.4,3.2-6.4,5.4-10.6,7.6c-0.5-0.9-1-1.6-1.7-2.4c7.5-3.5,14.3-9.9,17.4-16.4L794.4,246.2z M787.7,259.7c-0.2,1.2-0.2,2-0.2,3.8
		c-0.1,9.9-2.7,14.7-10.2,18.7c-0.6-1-1.2-1.6-2.1-2.3c3.4-1.5,5.2-2.8,6.8-4.9c2-2.6,2.9-6.2,2.9-11.4c0-1.5-0.1-2.5-0.3-3.8H787.7
		z M800.3,259.7c-0.2,1.4-0.3,2.5-0.3,4.1v13.7c0,1.6,0.1,2.8,0.3,4.2h-3.2c0.2-1.4,0.3-2.7,0.3-4.2v-13.7c0-1.5-0.1-2.8-0.3-4.1
		H800.3z"/>
</g>
<g id="XMLID_61_">
	<path id="XMLID_889_" class="st2" d="M592.5,1021.2h-2c-1.2,0-1.8,0-2.7,0.1v-3.5c0.9,0.1,1.5,0.1,3,0.1h11.7v-3.2
		c0.8,0.1,1.5,0.1,3,0.1h2.1c0-1.1,0-1.6,0-3.7c0-1.2,0-1.9-0.2-2.8h3.8c-0.2,1-0.2,1-0.3,6.5h2.8c1.7,0,2.4,0,3.3-0.1
		c-0.1,0.8-0.1,2.3-0.2,6.1c-0.1,6.5-0.5,10.3-1.1,13.1c-0.7,2.9-1.5,3.5-4.6,3.5c-0.8,0-1.5,0-2.7-0.1c-0.1-1.5-0.2-2.1-0.7-3.5
		c1.3,0.3,2.2,0.4,3,0.4c1.2,0,1.5-0.3,1.8-2c0.6-3,0.8-5.9,1-14.1h-2.7c-0.2,3.6-0.6,6.2-1,8.2c-0.9,3.6-2.1,6.5-4.1,9.4
		c-0.6,0.8-1,1.3-2,2.5c-0.2-0.3-0.4-0.5-1-1.2c-0.9-1-0.9-1-1.9-1.5c1.2-1.1,1.6-1.5,2.7-3l-3.1,1.2c-0.1-0.7-0.2-0.9-0.3-1.4
		c-1.7,0.5-2,0.6-5.7,1.3c-2.9,0.6-2.9,0.6-3.6,0.8c-0.9,0.2-0.9,0.2-1.3,0.3l-1-3.3c1.1-0.3,1.5-0.7,2-1.9
		C591.3,1027.2,591.9,1024.6,592.5,1021.2z M589.4,1010c0.8,0.1,1.3,0.2,2.6,0.2h7.7c1.2,0,1.7,0,2.5-0.2v3.5
		c-0.8-0.1-1.3-0.2-2.4-0.2h-7.9c-1.2,0-1.7,0-2.5,0.2V1010z M596.2,1021.2c-0.1,0.6-0.2,0.9-0.2,1.2c-0.6,3-1.3,5.6-2.3,8.3
		c1.7-0.4,3.2-0.7,5.4-1.4c-0.4-1.2-0.7-2-1.6-4.7l3-1c1.4,3.3,2.3,6.1,3.1,8.9c1.2-1.8,1.9-3.3,2.6-5.7c0.6-2.2,1-5,1.2-8.5h-1.9
		c-0.1,0-0.5,0-1.1,0c-0.2,0-0.4,0-0.7,0v3.1c-0.9-0.1-1.5-0.1-2.7-0.1H596.2z"/>
	<path id="XMLID_893_" class="st2" d="M620.5,1009c1.2,0.1,2.4,0.2,3.9,0.2h21.4c1.5,0,2.7-0.1,4-0.2v3.6c-1.2-0.1-2.6-0.2-4-0.2
		h-21.4c-1.5,0-2.7,0.1-4,0.2V1009z M645.5,1018.6c0-1.3,0-2-0.2-2.8h3.8c-0.1,1.1-0.2,2.5-0.2,3.6v14.6c0,1.7,0.1,3,0.2,4.4h-3.7
		v-1.2h-20.3c-1.4,0-2.6,0.1-4,0.2c0.2-1.5,0.2-2.4,0.2-3.9v-14.6c0-1.1,0-1.9-0.2-3.1h3.9c-0.1,0.8-0.2,1.4-0.2,2.8v15.3h20.6
		V1018.6z M627.1,1017.3c0-1,0-1.6-0.1-2.4c0.7,0.1,1.5,0.1,2.7,0.1h10.9c1.2,0,1.9,0,2.7-0.1c-0.1,0.7-0.1,1.4-0.1,2.4v11.6
		c0,1.2,0,1.7,0.1,2.4c-0.8-0.1-1.4-0.1-2.9-0.1h-10.5c-1.6,0-2.1,0-2.9,0.1c0.1-0.8,0.1-1.2,0.1-2.4V1017.3z M630.3,1018v3.7h3.2
		v-3.7H630.3z M630.3,1024.6v3.7h3.2v-3.7H630.3z M636.7,1021.6h3.3v-3.7h-3.3V1021.6z M636.7,1028.3h3.3v-3.7h-3.3V1028.3z"/>
	<path id="XMLID_901_" class="st2" d="M673.7,1029.9c-1.2-0.1-2.6-0.2-3.9-0.2h-12.7c-1.5,0-2.8,0.1-4.1,0.2v-3.7
		c1.2,0.1,2.5,0.2,4.2,0.2h12.7c1.4,0,2.7-0.1,3.9-0.2V1029.9z M675.3,1012.1c1.9,0,2.8,0,4-0.2v3.7c-1-0.1-2.1-0.2-3.8-0.2h-13.8
		c-0.1,1.3-0.1,1.4-0.4,3.8h14.6c1.6,0,2.6,0,3.3-0.2c-0.1,0.9-0.1,0.9-0.2,3.3c-0.4,6.4-0.9,10.2-1.8,12.3c-1,2.4-2.2,3-5.8,3
		c-1.5,0-2.4-0.1-5.2-0.3c-0.3-1.5-0.8-3-1.2-3.9c3.8,0.5,4.8,0.6,6.6,0.6c1.9,0,2.2-0.3,2.7-2.8c0.5-2.3,0.7-4.4,1-8.9h-13.1
		c-1.3,0-3.1,0.1-5,0.2c0.6-3.3,0.8-4.6,1.1-7.3c0.2-2.4,0.3-4.4,0.3-5.6c0-0.3,0-0.6,0-0.8c0-0.6,0-0.6,0-0.8l4,0
		c-0.1,0.5-0.1,0.9-0.2,1.5c0,0.2-0.1,0.8-0.1,1.7c0,0.2,0,0.3-0.1,0.6H675.3z"/>
	<path id="XMLID_904_" class="st2" d="M695.3,1021.2c0,0.4,0,0.8,0.1,1.2H692c0.1-0.4,0.1-0.7,0.1-1.1v-1.2c0-0.3,0-0.8,0.1-1.4
		c-1.8,2.4-2.8,3.4-5.3,5.1c-0.7-1.2-1.1-1.7-2.1-2.7c2.6-1.3,4.1-2.5,5.2-4.1h-1.8c-1.2,0-2,0-2.7,0.2v-3.1
		c0.7,0.1,1.5,0.2,2.7,0.2h3.9v-3.8c0-1,0-1.6-0.2-2.2h3.6c-0.1,0.6-0.2,1.2-0.2,2.1v3.9h4c1,0,1.7,0,2.1-0.1v3
		c-0.5-0.1-1.1-0.1-2.1-0.1h-2.9c1.5,0.8,2.7,1.6,3.8,2.4l-1.6,2.6c-0.7-0.7-0.7-0.7-2.2-1.9c-0.1,0-0.2-0.2-0.5-0.4
		c-0.1-0.1-0.3-0.2-0.5-0.4V1021.2z M697.8,1024.8c0.8,0,2-0.1,2.5-0.2c-0.3,0.9-0.3,0.9-0.7,2.3c-0.3,1.3-1,3.2-1.6,4.1
		c-0.2,0.4-0.3,0.5-0.7,1.1c0.8,0.4,1.2,0.6,2.3,1.3l-1.9,3c-1.2-0.9-1.7-1.2-2.7-1.8c-1.8,1.6-4.5,2.9-8.1,3.8
		c-0.4-1-0.7-1.7-1.8-3c2.9-0.5,5.2-1.3,6.8-2.3c-1.9-0.8-2.7-1.2-5.1-2c1-1.4,1.2-1.6,2.1-3.2h-0.7c-1,0-1.9,0-2.8,0.1v-3.2
		c0.8,0.1,1.6,0.1,2.9,0.1h2.1c0.3-0.6,0.5-1.1,0.8-2.3l3.4,0.7c-0.3,0.8-0.4,1-0.7,1.6H697.8z M689.1,1008.5
		c1.2,1.8,1.6,2.6,2.3,4.3l-2.9,1.1c-0.6-1.8-1.2-2.8-2.2-4.3L689.1,1008.5z M692.4,1027.7c-0.2,0.5-0.5,0.8-1.1,1.9
		c1.3,0.5,1.3,0.5,3.2,1.2c0.7-0.9,1.2-1.9,1.7-3.1H692.4z M701.2,1009.7c-1.2,2.4-1.5,2.9-2.5,4.4l-2.8-1.2c1-1.4,1.8-2.8,2.3-4.4
		L701.2,1009.7z M715.3,1017.1c-0.6-0.1-0.8-0.1-2.3-0.1c-0.2,5.2-1.3,9.3-3.3,12.7c1.7,2.2,3.7,3.8,6.2,5.1c-0.7,1-1.3,2-1.9,3.4
		c-2.4-1.4-4.8-3.5-6.3-5.6c-2.1,2.4-4.5,4.4-7.4,5.8c-0.7-1.7-0.9-2.2-1.8-3.2c1.9-0.9,2.6-1.3,3.8-2.2c1.4-1,2.5-2.1,3.4-3.2
		c-1.5-2.8-2.2-4.6-2.7-7.6c-0.5,0.8-0.8,1.3-1.5,2.1c-0.7-0.9-1.4-1.7-2.3-2.3c2-2.5,3.4-5.4,4.4-9.4c0.4-1.5,0.7-3.5,0.8-4.4
		l3.6,0.7c-0.1,0.4-0.2,0.7-0.5,1.8c-0.2,0.9-0.5,2.1-0.8,3.2h5.7c1.6,0,2.3,0,3.1-0.2V1017.1z M705.6,1016.9
		c-0.1,0.3-0.2,0.4-0.4,1c0.5,3.3,1.3,6.1,2.6,8.5c1.3-2.8,1.9-5.5,2-9.6H705.6z"/>
	<path id="XMLID_912_" class="st2" d="M734.6,1034.2c0,1.6-0.4,2.6-1.3,3.1c-0.7,0.4-1.6,0.6-3.3,0.6c-1.2,0-2.2-0.1-3.9-0.2
		c-0.2-1.3-0.3-1.7-1-3.4c1.6,0.2,3.3,0.4,4.5,0.4c1.2,0,1.6-0.2,1.6-0.9v-5.3h-8.9c-1.5,0-2.9,0.1-4,0.2v-3.7
		c1.2,0.1,2.5,0.2,4,0.2h8.9v-0.2c0-0.7,0-1.4-0.1-2.1h1.7c1.6-0.8,2.9-1.7,4-2.8h-10.2c-1.5,0-2.4,0.1-3.4,0.2v-3.5
		c0.9,0.1,1.9,0.2,3.4,0.2h11.9c1.2,0,1.9,0,2.5-0.1l1.7,2.2c-0.6,0.5-0.8,0.7-1.3,1.1c-2.4,2.1-4.3,3.5-6.7,4.8v0.2h8.6
		c1.6,0,2.9-0.1,4-0.2v3.7c-1-0.1-2.5-0.2-4-0.2h-8.6V1034.2z M730.6,1011.3c-0.4-0.8-0.6-1.2-1.4-2.3l3.7-1.3
		c0.9,1.6,1.2,2.2,1.8,3.6h8.3c1.7,0,2.5,0,3.7-0.1c-0.1,0.8-0.1,1.5-0.1,2.6v2.6c0,0.9,0.1,1.7,0.2,2.5h-3.6v-4.3h-21.1v4.3h-3.6
		c0.1-0.7,0.2-1.5,0.2-2.5v-2.6c0-1,0-1.8-0.2-2.6c1.2,0.1,2.1,0.1,3.7,0.1H730.6z"/>
	<path id="XMLID_915_" class="st2" d="M758.2,1010.5c0-0.6-0.1-1.3-0.2-1.9h3.8c-0.1,0.6-0.2,1.3-0.2,1.9v1.1h6.5v-1.1
		c0-0.8,0-1.3-0.2-1.9h3.8c-0.1,0.6-0.2,1.1-0.2,1.9v1.1h4.4c1.6,0,2.6-0.1,3.8-0.2v3.6c-1-0.1-1.9-0.2-3.8-0.2h-4.4v0.6
		c0,0.7,0,1,0.1,1.8H768c0.1-0.7,0.1-1.1,0.1-1.8v-0.5h-6.5v0.5c0,0.8,0,1,0.1,1.8H758c0.1-0.6,0.1-1,0.1-1.8v-0.6h-4
		c-1.9,0-2.8,0-3.8,0.2v-3.6c1.3,0.1,2.2,0.2,3.8,0.2h4V1010.5z M757.2,1021.9c-1.7,0-2.4,0-3.4,0.2v-3.4c1,0.1,1.8,0.2,3.4,0.2
		h11.6c1.9,0,2.5,0,3.2-0.2l1.9,2.7c-5.1,2.2-6.9,3.1-11.4,5.9c-3.2,2-4.1,2.6-5,3.6c0,0.1-0.1,0.1-0.1,0.1
		c-0.4,0.5-0.5,0.7-0.5,1.2c0,0.7,0.4,1.1,1.2,1.4c1,0.3,3.6,0.5,6.5,0.5c3.1,0,6.5-0.3,7.5-0.6c1-0.3,1.6-1,1.9-2.3
		c0.2-0.7,0.3-1.5,0.4-3.5c1.5,0.7,2.3,1,3.7,1.2c-0.4,3.9-0.8,5.4-2,6.5c-1.5,1.4-4.4,1.9-11.2,1.9c-4.2,0-6.8-0.3-8.8-0.9
		c-1.9-0.7-2.9-1.8-2.9-3.6c0-2.1,1.2-3.9,4.5-6.1c1.1-0.7,3.1-2,4.5-2.8c0.6-0.4,1.3-0.7,2.6-1.3c0.3-0.1,0.5-0.2,0.7-0.3
		c0.5-0.2,0.8-0.4,1.3-0.6H757.2z"/>
	<path id="XMLID_918_" class="st2" d="M811.9,1018.9c-1.3-0.2-2.4-0.2-3.9-0.2h-7.6c1.8,2.9,3.2,4.6,5.3,6.6c2.2,2,4.2,3.4,7.4,5.1
		c-1.3,1.4-1.5,1.7-2.5,3.4c-3.5-2.5-4.9-3.6-6.5-5.2c-2-2.1-3.3-3.8-5.1-6.8c0.2,1.5,0.3,3,0.3,4v8.1c0,1.7,0.1,2.8,0.2,4h-4.2
		c0.2-1.3,0.2-2.4,0.2-4.1v-8.1c0-0.8,0.1-1.9,0.2-3.9c-1.5,2.8-2.7,4.5-4.5,6.4c-1.9,2-3.6,3.4-6.7,5.5c-0.8-1.6-1.4-2.3-2.4-3.3
		c2.8-1.6,4.7-3,7-5.2c2.4-2.2,3.8-4.1,5.3-6.8h-7.2c-1.5,0-2.6,0.1-3.9,0.2v-3.8c1.3,0.2,2.3,0.2,3.9,0.2h8.3v-3.9
		c0-1.3-0.1-2-0.2-3h4.2c-0.2,1-0.2,1.8-0.2,3v3.9h8.7c1.7,0,2.8-0.1,3.9-0.2V1018.9z M806.3,1015.3c-1.8-2.2-2.5-2.9-5-4.7l2.5-2.2
		c2.6,1.9,3.2,2.4,5.1,4.5L806.3,1015.3z"/>
	<path id="XMLID_921_" class="st2" d="M828.4,1025.8c0-0.6,0-1.2-0.1-1.8h1.4c1.4-0.7,2.5-1.4,3.8-2.6h-8.9c-1.3,0-2.2,0-3.2,0.1
		v-3.2c1,0.1,1.9,0.2,3.3,0.2h10.8c1.3,0,1.9,0,2.5-0.1l1.8,2c-0.5,0.4-0.5,0.4-1.2,1c-2.3,2-4,3.2-6.5,4.7v0h8.5c1.6,0,3-0.1,4-0.2
		v3.6c-0.9-0.1-2.3-0.2-4-0.2H832v5.7c0,1.1-0.1,1.6-0.4,2c-0.6,0.8-1.6,1.1-4.9,1.1c-0.3,0-1.2,0-2.9-0.1c-0.4-1.7-0.5-2.3-1.1-3.4
		c1.6,0.2,3,0.3,4,0.3c1.4,0,1.7-0.1,1.7-0.7v-4.8h-8.8c-1.7,0-3,0.1-4,0.2v-3.6c1.1,0.2,2.4,0.2,3.9,0.2h8.8V1025.8z M828.5,1013.2
		c-0.6-1.5-1.1-2.7-2-4.1l3.4-0.9c1.3,2.4,1.6,3.2,2.2,5h2.8c0.3-0.4,0.6-0.7,1-1.5c1-1.7,1.2-2.2,1.7-3.4l3.5,1
		c-0.7,1.4-1.9,3.2-2.4,3.9h1.5c2.2,0,2.8,0,4-0.1c-0.1,0.8-0.1,1.5-0.1,2.7v3c0,0.9,0.1,1.7,0.2,2.5h-3.5v-5h-21.2v5h-3.5
		c0.1-0.7,0.2-1.5,0.2-2.5v-3c0-1.2,0-1.9-0.1-2.7c1.5,0.1,1.7,0.1,3.8,0.1h1.5c-0.7-1.4-1.2-2.1-2.4-3.7l3.3-1
		c1.1,1.3,2.1,2.9,3,4.6H828.5z"/>
	<path id="XMLID_924_" class="st2" d="M859.3,1010.8c-0.1,0.2-0.1,0.3-0.2,0.6c0.4,0,1.3,0.1,2.4,0.1h4.2c-0.3-0.8-0.6-1.3-1.3-2.3
		l3.3-1.2c0.8,1.5,1.2,2.2,1.7,3.5h4.8c1.2,0,2,0,2.9-0.2c-0.1,0.7-0.1,1.1-0.1,2.3v2.6c0,1,0,1.6,0.1,2.4h-3.1v1.5
		c-0.8-0.1-1.6-0.1-2.5-0.1h-7.6c-1,0-1.8,0-2.6,0.1v-1.6h-3c0-0.2,0-0.2,0.1-0.6c0-0.3,0.1-1.2,0.1-1.9v-2.4c0-0.2,0-0.4,0-0.6
		c-0.1,0.2-0.1,0.2-0.1,0.4c-0.7,2.1-0.7,2.1-2.4,5.9c1.2,1.8,1.6,2.7,2,3.8c0.5,1.3,0.7,2.8,0.7,4.1c0,1.9-0.8,3.2-2.3,3.6
		c-0.7,0.2-1.8,0.3-3.2,0.4c-0.1-1.8-0.3-2.6-0.8-3.5c0.7,0.1,1.1,0.1,1.7,0.1c1.1,0,1.3-0.2,1.3-1.4c0-1.1-0.4-2.5-1.2-3.9
		c-0.4-0.8-0.9-1.5-1.9-2.8c1-2.1,2-4.7,2.7-7.3h-3.2v22.2c0,1.7,0,2.6,0.2,3.7h-3.6c0.1-1,0.2-2.2,0.2-3.7v-22.3c0-1.1,0-2-0.1-3
		c0.6,0.1,1.3,0.1,2.3,0.1h4.9c1.1,0,1.6,0,2.1-0.1L859.3,1010.8z M865.8,1025.3c-0.2,3.5-0.8,5.6-2.1,7.6c-1.4,2.3-3.3,3.8-6.8,5.4
		c-0.7-1.3-1.2-1.9-2.3-2.9c2.9-1,4.6-2.2,6-3.9c0.8-1,1.4-2.5,1.7-4.2c0.1-0.5,0.1-0.5,0.2-2h-0.3c-1.6,0-2.1,0-3.1,0.2v-3.3
		c0.9,0.1,1.8,0.2,3.1,0.2h12c1.6,0,2.2,0,3.2-0.2v3.4c-0.9-0.1-1.9-0.2-3.2-0.2h-2.9v8.6c0,0.5,0.2,0.6,1.4,0.6
		c1.1,0,1.5-0.2,1.7-0.7c0.2-0.6,0.3-1.7,0.4-4.1c1.1,0.6,1.6,0.7,3.1,1c-0.6,6.2-1.1,7-5.4,7c-3.5,0-4.6-0.6-4.6-2.4v-10H865.8z
		 M861.8,1016.9c0.5,0,1.1,0.1,2.2,0.1h7.6c1.1,0,1.6,0,2.1-0.1v-2.3h-11.9V1016.9z"/>
</g>
</svg>
