<?xml version="1.0" encoding="utf-8"?>
<!-- Generator: Adobe Illustrator 19.0.0, SVG Export Plug-In . SVG Version: 6.00 Build 0)  -->
<svg version="1.1" id="图层_1" xmlns="http://www.w3.org/2000/svg" xmlns:xlink="http://www.w3.org/1999/xlink" x="0px" y="0px"
	 viewBox="0 0 1465.2 1257.5" style="enable-background:new 0 0 1465.2 1257.5;" xml:space="preserve">
<style type="text/css">
	.st0{fill:#E1AD0B;}
	.st1{fill:#EAEAEA;}
</style>
<g id="XMLID_146_">
	<line id="XMLID_74_" class="st0" x1="716.2" y1="1090.9" x2="227.2" y2="770.5"/>
	
		<rect id="XMLID_145_" x="179.4" y="929.7" transform="matrix(0.8364 0.5482 -0.5482 0.8364 587.3799 -106.2822)" class="st0" width="584.6" height="2"/>
</g>
<g id="XMLID_144_">
	<line id="XMLID_69_" class="st0" x1="1377.7" y1="1237.8" x2="888.7" y2="917.3"/>
	
		<rect id="XMLID_143_" x="840.9" y="1076.6" transform="matrix(0.8364 0.5482 -0.5482 0.8364 776.1447 -444.8696)" class="st0" width="584.6" height="2"/>
</g>
<g id="XMLID_142_">
	<line id="XMLID_68_" class="st0" x1="1008.4" y1="261.1" x2="618.1" y2="5.3"/>
	
		<rect id="XMLID_141_" x="579.9" y="132.2" transform="matrix(0.8364 0.5482 -0.5482 0.8364 206.1044 -423.9827)" class="st0" width="466.7" height="2"/>
</g>
<g id="XMLID_140_">
	<line id="XMLID_67_" class="st0" x1="1441.7" y1="788.2" x2="1005.4" y2="502.2"/>
	
		<rect id="XMLID_139_" x="962.7" y="644.2" transform="matrix(0.8364 0.5482 -0.5482 0.8364 553.916 -565.132)" class="st1" width="521.7" height="2"/>
</g>
<g id="XMLID_137_">
	<line id="XMLID_66_" class="st0" x1="460" y1="286.8" x2="23.7" y2="0.8"/>
	
		<rect id="XMLID_136_" x="-19" y="142.8" transform="matrix(0.8364 0.5482 -0.5482 0.8364 118.4265 -109.0527)" class="st1" width="521.7" height="2"/>
</g>
<g id="XMLID_134_">
	<line id="XMLID_65_" class="st0" x1="1440.7" y1="760.4" x2="1004.4" y2="474.4"/>
	
		<rect id="XMLID_133_" x="961.7" y="614.4" transform="matrix(0.8364 0.5482 -0.5482 0.8364 538.5094 -569.134)" class="st1" width="521.7" height="6"/>
</g>
<g id="XMLID_132_">
	<line id="XMLID_64_" class="st0" x1="459" y1="310.1" x2="22.7" y2="24.1"/>
	
		<rect id="XMLID_131_" x="-20" y="164.1" transform="matrix(0.8364 0.5482 -0.5482 0.8364 131.0213 -104.6958)" class="st1" width="521.7" height="6"/>
</g>
<g id="XMLID_130_">
	<line id="XMLID_63_" class="st0" x1="1222.6" y1="1157.1" x2="858.3" y2="918.3"/>
	
		<rect id="XMLID_129_" x="822.7" y="1034.7" transform="matrix(0.8364 0.5482 -0.5482 0.8364 739.1271 -400.554)" class="st1" width="435.6" height="6"/>
</g>
<g id="XMLID_128_">
	<line id="XMLID_62_" class="st0" x1="548.6" y1="261.1" x2="473.2" y2="211.8"/>
	
		<rect id="XMLID_94_" x="465.9" y="236" transform="matrix(0.8364 0.5482 -0.5482 0.8364 213.2213 -241.3731)" class="st1" width="90.1" height="1"/>
</g>
</svg>
