<?xml version="1.0" encoding="utf-8"?>
<!-- Generator: Adobe Illustrator 19.0.0, SVG Export Plug-In . SVG Version: 6.00 Build 0)  -->
<svg version="1.1" id="图层_2" xmlns="http://www.w3.org/2000/svg" xmlns:xlink="http://www.w3.org/1999/xlink" x="0px" y="0px"
	 viewBox="0 0 1465.2 1257.5" style="enable-background:new 0 0 1465.2 1257.5;" xml:space="preserve">
<style type="text/css">
	.st0{fill:#EAEAEA;}
	.st1{fill:#E1AD0B;}
	.st2{fill:#1C1B20;}
</style>
<g id="XMLID_124_">
	<path id="XMLID_968_" class="st0" d="M528,606.7h-7.7v-61.8h7.7V606.7z"/>
	<path id="XMLID_970_" class="st0" d="M538.8,541.9l46.4,48.6v-45.6h7.7v64.3l-46.4-48.6v46h-7.7V541.9z"/>
	<path id="XMLID_972_" class="st0" d="M624.3,590.6l18.3-45.7h8.4l-26.8,65l-26.9-65h8.4L624.3,590.6z"/>
	<path id="XMLID_974_" class="st0" d="M663.7,606.7H656v-61.8h7.7V606.7z"/>
	<path id="XMLID_976_" class="st0" d="M691.9,606.7h-7.7v-54.7h-14.7v-7h37v7h-14.7V606.7z"/>
	<path id="XMLID_978_" class="st0" d="M714.9,591.2l-7,15.5h-8.3l29.5-64.4l29.5,64.4h-8.3l-7-15.5H714.9z M729,559.1l-11,25h22
		L729,559.1z"/>
	<path id="XMLID_981_" class="st0" d="M773.7,606.7H766v-54.7h-14.7v-7h37v7h-14.7V606.7z"/>
	<path id="XMLID_983_" class="st0" d="M801.9,606.7h-7.7v-61.8h7.7V606.7z"/>
	<path id="XMLID_985_" class="st0" d="M841.5,543.6c4.4,0,8.6,0.8,12.5,2.5c3.9,1.7,7.4,4,10.3,6.9c2.9,2.9,5.2,6.3,7,10.2
		c1.7,3.9,2.6,8.1,2.6,12.5c0,4.6-0.8,8.8-2.5,12.8c-1.7,3.9-4,7.3-6.9,10.2c-2.9,2.9-6.3,5.1-10.3,6.8c-3.9,1.6-8.1,2.5-12.6,2.5
		c-4.5,0-8.7-0.8-12.6-2.5c-3.9-1.6-7.4-3.9-10.3-6.8c-2.9-2.9-5.2-6.3-6.9-10.2c-1.7-3.9-2.5-8.2-2.5-12.8c0-4.4,0.9-8.6,2.6-12.5
		c1.7-3.9,4-7.3,7-10.2c2.9-2.9,6.3-5.2,10.3-6.9C832.9,544.4,837.1,543.6,841.5,543.6z M841.5,600.8c3.3,0,6.5-0.6,9.5-1.9
		c3-1.3,5.6-3,7.9-5.3c2.3-2.2,4.1-4.9,5.4-7.9s2-6.3,2-9.9c0-3.4-0.6-6.6-1.8-9.6c-1.2-3-2.9-5.7-5.1-7.9c-2.2-2.3-4.8-4.1-7.8-5.4
		c-3-1.3-6.3-2-10-2c-3.6,0-6.9,0.7-10,2c-3,1.3-5.6,3.1-7.8,5.4c-2.2,2.3-3.9,4.9-5.1,7.9s-1.8,6.2-1.8,9.6c0,3.5,0.7,6.8,2,9.9
		s3.1,5.7,5.4,7.9c2.3,2.2,4.9,4,7.9,5.3C835,600.1,838.1,600.8,841.5,600.8z"/>
	<path id="XMLID_988_" class="st0" d="M880.5,541.9l46.4,48.6v-45.6h7.7v64.3l-46.4-48.6v46h-7.7V541.9z"/>
</g>
<g id="XMLID_88_">
	<path id="XMLID_946_" class="st0" d="M576.3,488.3c12,0.4,38.1,0.2,78.5-0.6c-2.2,5.6-4.3,11.8-6.2,18.5c-22.1,0-37.8,0-47.1,0
		c-11.6,0-21.9-0.2-30.8-0.6c-14.6-0.4-24.9-4.9-30.8-13.5c-5.6,6-10.8,12-15.7,17.9l-7.3-23c4.5-4.5,8.6-8.6,12.3-12.3v-33.1h-10.1
		v-20.2h29.7v53.3C554.1,483.8,563.3,488.3,576.3,488.3z M539.3,376.2c2.2,4.1,5.4,10.5,9.5,19.1c1.9,4.1,3.4,7.1,4.5,9l-20.2,7.8
		c-0.8-1.5-1.7-3.7-2.8-6.7c-1.9-5.2-5-12.7-9.5-22.4L539.3,376.2z M617.8,374.5l18.5,2.2c-0.4,2.2-1.3,5.6-2.8,10.1
		c-0.4,2.2-0.8,3.9-1.1,5h21.9v18.5h-4.5c-1.1,15.7-4.1,29.2-9,40.4c1.1,1.9,3,4.7,5.6,8.4c1.1,2.2,3.9,6.7,8.4,13.5l-15.7,11.2
		c-1.5-2.2-3.6-5.6-6.2-10.1c-1.5-2.2-2.6-3.9-3.4-5c-4.9,6-11,12.1-18.5,18.5c-2.2-4.1-4.9-7.8-7.8-11.2c-1.9,4.9-5.6,7.7-11.2,8.4
		c-4.1,0-9.2,0-15.1,0c-0.4-2.6-1.1-6.4-2.2-11.2c-0.4-1.1-0.6-2-0.6-2.8c3,0,6.4,0,10.1,0c3,0.4,4.3-0.7,3.9-3.4
		c0.4-1.9,0.6-3,0.6-3.4h-12.3c-1.9,6-6,12.7-12.3,20.2c-1.5-1.1-3.9-2.8-7.3-5c-3-2.2-5.4-3.9-7.3-5c8.6-7.5,12.7-16.6,12.3-27.5
		h-9v-14h19.1l-1.7-4.5h-14v-45.4h12.9c1.1-2.6,1.9-5.2,2.2-7.8l19.1,1.7c-0.8,1.9-1.7,3.9-2.8,6.2h18.5v25.2
		C611.3,398.3,615.2,387.2,617.8,374.5z M572.4,394.7v4.5h17.4v-4.5H572.4z M572.4,415.4h17.4v-5h-17.4V415.4z M604.4,467.6
		c5.2-4.1,10.3-9.3,15.1-15.7c-0.8-1.5-2.1-3.5-3.9-6.2c-3-4.5-5.2-7.8-6.7-10.1v10.7h-30.3c0,0.8-0.2,1.5-0.6,2.2
		c0,0.8,0,1.3,0,1.7h26.9c0,1.5,0,4.1,0,7.8C604.6,462.5,604.4,465.7,604.4,467.6z M606.1,427.8h-16.8l1.1,4.5h16.8l6.7-3.9l-7.8-9
		V427.8z M621.8,422.7c2.2,3.4,4.5,6.7,6.7,10.1c2.2-6.7,3.7-14.2,4.5-22.4h-7.8c-0.4,0.8-0.9,1.9-1.7,3.4c-1.5,3-4.1,7.3-7.8,12.9
		L621.8,422.7z"/>
	<path id="XMLID_955_" class="st0" d="M700.8,464.2c0.4,4.5,1.3,11.6,2.8,21.3c0.4,1.1,0.6,1.9,0.6,2.2c-12,9.3-20.2,16.8-24.7,22.4
		l-12.3-17.4c3.4-2.6,4.9-6.2,4.5-10.7v-43.7h-9.5v-21.3H693v54.9c0.4-0.4,1.1-1.1,2.2-2.2C695.9,469.1,697.8,467.2,700.8,464.2z
		 M681.7,375.1c7.5,9.3,13.6,17.8,18.5,25.2l-19.1,11.8c-3-5.2-8.6-14-16.8-26.3L681.7,375.1z M701.4,383.5h35.3v-9H758v9h37v14h-37
		v4.5h34.2v12.9H758v4.5h39.8v14h-99.2v-14h38.1v-4.5h-33.1V402h33.1v-4.5h-35.3V383.5z M727.2,508.5h-21.3v-70.6h84.1v49.3
		c1.1,13.5-5.4,20.2-19.6,20.2c-1.5,0-4.3,0-8.4,0c-6,0.4-10.8,0.6-14.6,0.6c-1.5-6-3-11-4.5-15.1c6.7,0,12.7,0,17.9,0
		c5.2,0,7.8-1.7,7.8-5h-41.5V508.5z M727.2,451.9v5.6h41.5v-5.6H727.2z M727.2,469.8v5.6h41.5v-5.6H727.2z"/>
	<path id="XMLID_962_" class="st0" d="M846,408.7c5.6,4.5,11.8,9.9,18.5,16.3v-16.8l25.8-9.5h-70.1V379h105.4v21.3l-39.8,18.5v10.1
		c6-5.2,12.7-11.2,20.2-17.9l9,9v-10.1h21.9v99.2H915v-4.5H810.7v-94.7H832v39.8c6-3.4,12-7.1,17.9-11.2c-1.9-1.9-4.9-4.7-9-8.4
		c-4.1-3.7-7.1-6.5-9-8.4L846,408.7z M857.2,465.3c5.2,0.4,7.7-1.7,7.3-6.2V453c-2.2,1.5-5.4,3.6-9.5,6.2
		c-7.5,4.5-13.5,8.2-17.9,11.2l-5-9v24.7h83v-22.4l-6.7,9c-7.8-6.7-15.3-12.9-22.4-18.5v10.1c1.1,12.3-5.2,18.7-19.1,19.1
		c-4.5,0-9.7,0-15.7,0c-0.4-2.6-1.3-6.4-2.8-11.2c-0.8-3-1.3-5.2-1.7-6.7C850.3,465.3,853.9,465.3,857.2,465.3z M854.4,436.2
		l10.1,12.3v-21.9L854.4,436.2z M893.7,438.4l-7.8-9V448L893.7,438.4z M915,427.8c-4.5,4.5-9.5,9-15.1,13.5c2.2,1.5,5.4,3.9,9.5,7.3
		c2.6,1.9,4.5,3.2,5.6,3.9V427.8z"/>
</g>
<polygon id="XMLID_116_" class="st1" points="834.3,333.9 538.8,333.9 638.8,267.9 934.3,267.9 "/>
<path id="XMLID_89_" class="st1" d="M1007.7,677.3H455.2V297.4h552.5V677.3z M462.2,670.3h538.5V304.4H462.2V670.3z"/>
<g id="XMLID_60_">
	<path id="XMLID_928_" class="st2" d="M672.8,291.5c-0.4,0.4-0.4,0.4-1.3,1.4c-3,3.1-5.4,5.1-8.2,7.1c4.9,2.1,10.8,3.5,18,4.1
		c-1.2,2-1.6,3-2.2,5.5c-2.3-0.4-3-0.6-5.3-1.1c0,1.2,0,1.4,0,2.7v6.8c0,2.1,0,3.1,0.2,4.5h-5.4v-1.8h-20v1.8h-5.4
		c0.1-1.6,0.2-3,0.2-4.5v-6.8c0-0.9,0-1.6,0-2.4c-2.5,0.6-3.2,0.8-5.5,1.3c-0.6-1.9-1.3-3.5-2.3-4.7c3.6-0.5,7.2-1.3,10.9-2.5
		c2.4-0.8,3.8-1.3,7.2-2.9c-1.9-1.4-3.4-2.5-4.7-3.9c-3,2.3-4.6,3.3-8.5,5.2c-0.8-1.5-1.7-2.5-3-3.8c5-2.2,8.5-4.5,12.4-8.1
		c1.2-1.1,2-2.2,2.7-3.4h-10.2v6.4h-5.3c0.2-1.2,0.2-2.1,0.2-3.6v-3.9c0-1.5,0-2.5-0.2-3.6c1.7,0.2,3.3,0.2,5.5,0.2h12.3
		c-0.5-0.9-0.8-1.4-1.7-2.7l5.5-1.8c1.1,1.8,1.6,2.8,2.2,4.6h12.7c2.5,0,4,0,5.7-0.2c-0.1,1-0.2,2-0.2,3.6v4c0,1.5,0,2.6,0.2,3.6
		h-5.3V286h-20.9l4.5,1.3c-0.4,0.5-0.4,0.5-1.1,1.2c0,0.1,0,0.1-0.4,0.5h9.1c1.8,0,2.9,0,3.9-0.2L672.8,291.5z M668.9,307.2
		c-3.9-1.1-7-2.4-10.4-4.2c-2.9,1.7-5.3,2.6-10.1,4.2H668.9z M648.6,316.2h20v-4.6h-20V316.2z M652.6,293.1c0,0.1-0.1,0.1-0.2,0.2
		c2.2,1.8,3.6,2.8,6,4.3c2.5-1.6,3.5-2.3,6.1-4.5H652.6z"/>
	<path id="XMLID_933_" class="st2" d="M704.6,304.7c-2.1-3.6-2.9-4.7-3.8-6c-1.1,2.3-2.7,4.7-4.4,6.8c-1.5-1.6-2-2.1-3.1-2.8
		c-0.2,3.6-0.7,7.3-1.6,10.6c-0.8,3.6-1.7,5.9-3.4,8.9c-1.3-1.7-2.5-2.9-4.2-4.4c3.2-5.1,4.3-12.6,4.3-28.7c0-4.5,0-5.7-0.2-7.5
		c2,0.2,3.7,0.2,5.8,0.2h12.8c-0.7-1.4-1-1.8-2-3.2l5.8-1.3c1.3,2.3,1.9,3.5,2.2,4.5h10.6c2.1,0,4.3-0.1,5.8-0.3v5.4
		c-1.2-0.1-3.1-0.2-5.1-0.2h-30.4c0,6.4-0.1,11.1-0.3,14.9c2-2.2,3-3.8,4-6.3c0.9-2.4,1.4-4.7,1.6-7.3l4.9,0.6
		c-0.8,3.3-1.2,4.7-1.4,5.6c0.5,0.5,1.1,1.2,3.1,3.4c1.1,1.3,1.5,1.7,2.2,2.9v-7.9c0-2.7,0-3.6-0.2-4.8h5.6c-0.2,1.2-0.2,2-0.2,4.8
		v9.1c1.8-2.1,2.9-3.8,3.8-6.2c1.3-3.1,1.8-5.3,1.9-7.6l5.1,0.6c-0.9,3.2-1.4,5.1-1.6,5.7c3.8,3.2,5.5,4.7,7.3,6.8l-2.9,4.1
		c-1.4-2.2-3-4-5.9-6.8c-1.1,2.6-2.3,4.5-4.5,7.2c-1.1-1.1-2.3-2.2-3.3-2.9v4.3h9.4c2.2,0,3.2,0,4.5-0.2v5c-1.3-0.2-2.1-0.2-4.5-0.2
		h-9.4v5h11.9c2.2,0,3.5,0,4.8-0.2v5.3c-1.6-0.2-3.6-0.3-5.7-0.3h-26c-2,0-3.9,0.1-5.7,0.3v-5.3c1.3,0.1,2.2,0.2,4.8,0.2h10.8v-5
		h-8.2c-2.5,0-3.1,0-4.4,0.2v-5c1.2,0.2,2,0.2,4.4,0.2h8.2v-6.1L704.6,304.7z"/>
	<path id="XMLID_935_" class="st2" d="M778.1,290.8c-1-0.1-1.8-0.2-3.2-0.2c-0.4,5.2-0.6,6.5-1.4,9.5c-0.9,3.5-2,6.4-3.6,9.1
		c2.5,3.3,5.1,5.6,9.1,8.1c-1.7,1.7-2.4,2.9-3.5,5c-3.6-2.6-6.4-5.4-8.8-8.8c-2.8,3.3-6,5.8-11.3,8.9c-1-1.8-2.2-3.4-3.6-4.7
		c5.7-2.6,9.1-5.1,12.1-9c-1.5-2.7-3.1-7-3.6-9.9c-0.8,1.2-1.5,2.2-2.8,3.6c-0.8-1.9-1.4-2.6-2.9-4.4c1.1-1.1,1.7-2,2.6-3.4
		c-0.1,0-0.1,0-0.2,0c-0.5-0.1-1.6-0.1-2.6-0.1h-3.7c-0.1,0.1-0.1,0.1-0.3,0.3c-1.1,1.2-2,2-3.6,3.3h3.7c1.8,0,2.2,0,2.9-0.1
		l1.8,2.4c-0.1,0.1-0.1,0.1-0.3,0.3c-0.2,0.2-0.8,0.8-1.9,2.2c-0.7,0.8-2.5,2.5-3.7,3.5v0.5c1.9-0.2,4.5-0.6,7.9-1.3l0,4.4
		c-4.5,0.9-5.8,1.1-8,1.4v6.1c0,3.4-1.2,4.1-6.6,4.1c-1,0-1.8,0-3.3-0.1c-0.1-1.7-0.4-3.1-1.1-4.8c1.7,0.2,3.1,0.3,5.2,0.3
		c0.8,0,0.9-0.1,0.9-1v-4.2c-2.2,0.2-3.5,0.3-7.2,0.7c-1.2,0.1-1.8,0.2-2.6,0.3l-0.7-4.9c0.5,0,0.9,0,1.2,0c1.9,0,5.7-0.2,9.3-0.6
		c0-1.4,0-2.1-0.2-2.8h1.2c1.3-1.1,1.8-1.5,2.8-2.7h-6.8c-1.9,1.3-3.3,2-5.2,3c-1.1-1.8-1.8-2.5-3.1-3.6c4.5-2,6.5-3.3,11.2-6.8
		h-5.6c-1.8,0-3.3,0.1-4.5,0.2v-4.7c1.2,0.2,2.7,0.3,4.6,0.3h4.1v-3.8h-2.9c-1.8,0-2.9,0-3.9,0.2v-4.6c1,0.1,2.3,0.2,4,0.2h2.8v-1.4
		c0-1.4-0.1-2.4-0.2-3.5h5.4c-0.2,1-0.2,1.9-0.2,3.5v1.3h1.7c1.3,0,2.1,0,2.9-0.2v3.7c1.4-2.1,2.7-4.6,3.4-6.6l4.5,2.1
		c-0.3,0.6-0.3,0.6-1.6,2.8c-1.3,2.3-1.8,3-4.2,6.1c1.5,0,2.2,0,2.9-0.1v4.2c2.8-4.8,5.2-12.1,5.5-17.1l5.2,1.1
		c-0.3,1.4-0.3,1.4-0.9,3.6c-0.1,0.5-0.8,2.9-1,3.8h7.1c2.3,0,3.6-0.1,4.9-0.3V290.8z M748.7,290.6c1.6-1.7,2.1-2.3,3.1-3.7
		c-0.5,0-1.3-0.1-1.9-0.1h-2.1v3.8H748.7z M764.5,290.6c-0.6,1.5-0.6,1.5-1.1,2.4c1,5.2,1.8,7.7,3.5,11.2c0.9-1.8,1.3-3,1.9-5.2
		c0.7-3,1-4.8,1.2-8.4H764.5z"/>
	<path id="XMLID_939_" class="st2" d="M794.1,286.8c1,0,1.6,0,2.4-0.2v5.1c-1-0.1-1.7-0.1-2.5-0.1h-1.4v7.3c1.4-0.5,1.7-0.6,3.3-1.3
		l0.1,4.8c-1.3,0.5-1.4,0.6-3.4,1.4v13.9c0,2.5-0.6,3.6-2.3,4.1c-1.3,0.4-2.5,0.5-4.7,0.5c-0.4,0-1.2,0-2.1,0c-0.2-1.9-0.4-3-1.2-5
		c1.5,0.2,2.6,0.3,3.6,0.3c1.2,0,1.5-0.2,1.5-1.4v-10.7c-2.5,0.8-4.1,1.4-4.8,1.7l-1.1-5.4c1.3-0.1,1.6-0.2,5.8-1.4v-9h-1.8
		c-1.2,0-2.1,0-3.4,0.2v-5.2c1.1,0.2,2,0.2,3.5,0.2h1.8v-3.9c0-2.3-0.1-3.5-0.3-5h5.7c-0.2,1.5-0.3,2.7-0.3,4.9v4H794.1z
		 M796.8,302.5c0.1-1,0.1-1.6,0.1-3.2v-4c0-1.3,0-2-0.1-2.9c0.8,0.1,1.7,0.1,3.8,0.1h0.3c-0.6-1.8-1.4-3.6-2.5-5.7l4.4-1.4
		c1.2,2.1,1.4,2.7,2.5,5.5l-4,1.5h14.8c1.8-2.7,2.8-5.1,3.8-8.5l4.9,1.8c-1.3,2.7-2.3,4.6-3.7,6.7h0.5c2.4,0,3.6,0,4.9-0.2
		c-0.1,1.1-0.1,1.8-0.1,3.6v3.5c0,1.1,0,1.9,0.2,3.1H822l0.7,0.9c-0.5,0.8-0.5,0.8-1.5,2.3c-1.7,2.6-3.8,5.2-6.5,7.7
		c3.9,2.3,7.5,3.5,12.8,4.4c-1.4,2.2-1.7,2.9-2.5,5.3c-6-1.6-10.8-3.7-14.4-6.4c-3.9,2.8-8.5,4.8-14.2,6.2c-1-2.3-1.6-3.3-2.8-4.9
		c5.1-0.8,8.9-2.2,12.9-4.8c-2.8-2.9-4-4.5-6.2-8.3c-1,0-1,0-1.7,0.1v-2.5H796.8z M825.4,282.2c-0.7,0.1-0.7,0.1-2,0.4
		c-6.1,1.3-15.8,2.3-25.3,2.6c-0.4-1.8-0.9-3-1.8-4.5c0.6,0,1,0,1.5,0c8.4,0,20.4-1.6,23.8-3.1L825.4,282.2z M817.1,300.3
		c1.5,0,2.4,0,3-0.2l1.2,1.5v-4.8h-19.5v3.5H817.1z M806,304.8c1.1,1.9,2.9,4,4.6,5.5c2.1-1.8,3.3-3.1,4.7-5.5H806z M809.9,292.2
		c-0.8-2.9-1.2-3.6-2.4-6.1l4.6-1.2c1.3,2.7,1.6,3.5,2.2,5.8L809.9,292.2z"/>
</g>
</svg>
