<?xml version="1.0" encoding="utf-8"?>
<!-- Generator: Adobe Illustrator 19.0.0, SVG Export Plug-In . SVG Version: 6.00 Build 0)  -->
<svg version="1.1" id="图层_4" xmlns="http://www.w3.org/2000/svg" xmlns:xlink="http://www.w3.org/1999/xlink" x="0px" y="0px"
	 viewBox="0 0 1465.2 1257.5" style="enable-background:new 0 0 1465.2 1257.5;" xml:space="preserve">
<style type="text/css">
	.st0{fill:#E1AD0B;}
	.st1{fill:#EAEAEA;}
	.st2{fill:#1C1B20;}
</style>
<polygon id="XMLID_1088_" class="st0" points="633.6,291.9 915,291.9 830.7,236.3 549.4,236.3 "/>
<polygon id="XMLID_1085_" class="st1" points="542.3,1009.4 987.4,1009.4 922.1,966.3 476.9,966.3 "/>
<g id="XMLID_1054_">
	<path id="XMLID_1482_" class="st2" d="M662.4,274.6c1.2-0.9,1.2-0.9,3.5-3.2l0.6,2.8c-3.2,2.7-4.2,3.5-6.4,5.2l-1.3-2.4
		c0.8-0.6,1-1.1,1-2.1v-14.2h-2.6c-1.5,0-2.1,0-3.1,0.2v-2.8c1,0.2,1.6,0.2,3.1,0.2h2.3c1.2,0,2.1-0.1,3.1-0.2
		c-0.2,1.3-0.2,2.3-0.2,4.2V274.6z M659.7,246.3c2.5,1.9,4.6,3.9,6.2,5.7l-1.9,2.1c-2.2-2.7-3.4-3.8-6.3-6L659.7,246.3z
		 M682.3,254.7c0,5.6,0.5,10.3,1.4,14.6c2-3.7,3.2-7.6,3.6-11l2.6,1.1c-0.2,0.4-0.2,0.5-1.2,3.9c-1,3.2-2.4,6.6-4,9.3
		c1.1,3.1,2.4,5.6,3.2,5.9c0.4-0.2,0.5-0.5,0.8-1.8c0.2-0.8,0.3-2.3,0.4-4c0.9,0.8,1.4,1.1,2.1,1.4c-0.5,5.2-1.4,7.3-3,7.3
		c-1,0-2.1-0.9-3.2-2.7c-0.6-1-1.4-2.6-1.8-3.7c-2.4,3.2-4,4.8-7.4,7.1c-0.8-1-1.2-1.4-2-2c3.9-2.5,6.3-4.8,8.4-8
		c-1.3-4.4-2-10.1-2.2-17.5h-9v2.4c0,1,0,1.1,0,3.4h3.7c1.5,0,2.6,0,3.5-0.2c-0.1,0.8-0.1,1.8-0.2,4.1c-0.1,10-0.3,10.7-3.9,10.7
		c-0.6,0-1,0-1.8-0.1c0-1-0.1-1.6-0.4-2.6c0.9,0.2,1.5,0.3,2.2,0.3c0.8,0,1.2-0.2,1.3-0.8c0.2-0.7,0.4-4.4,0.4-7.2
		c0-0.4,0-1.2,0-2.2h-4.8c0,0.6,0,0.6-0.2,4.1c-0.4,5.6-0.6,7-2.1,10.9c-0.6,1.8-1.1,2.6-2.4,4.3c-0.6-0.9-1.1-1.4-2-2
		c1.8-2.1,2.8-4,3.4-7.1c0.4-2,0.6-3.6,0.7-6.6c0.1-2.8,0.2-7.9,0.2-9.4c0-2,0-3.2-0.2-4.5c0.8,0.1,2.4,0.2,3.9,0.2h7.7
		c0-0.6,0-0.6,0-2.5c0-2.5,0-2.7-0.2-3.7h2.8c-0.2,1-0.2,1.7-0.2,3.8c0,0.8,0,1.3,0,2.4h4.1c1.7,0,3-0.1,3.9-0.2v2.7
		c-1.2-0.1-2.5-0.2-4.1-0.2H682.3z M688.2,251.6c-1.6-1.8-2.2-2.4-4.3-4l1.5-1.4c2,1.4,2.7,2,4.5,3.8L688.2,251.6z"/>
	<path id="XMLID_2139_" class="st2" d="M701.8,249.1c0-1.6,0-2.3-0.2-3.2h2.7c-0.2,0.9-0.2,1.6-0.2,3.2v0.3h2.8c1.2,0,1.6,0,2.4-0.2
		v2.4c-0.8-0.1-1.3-0.2-2.4-0.2h-2.8v3.9c3-0.4,3-0.4,5.1-0.8v2c-2.7,0.5-3.5,0.6-5.1,0.9v4.1c0,2.1-0.9,2.7-3.6,2.7
		c-1,0-2.1,0-3.4-0.2c-0.1-1-0.2-1.5-0.5-2.3c1.6,0.3,2.6,0.4,3.9,0.4c1,0,1.3-0.2,1.3-1v-3.4c-1.6,0.2-3.7,0.4-5.3,0.6
		c-1,0.1-1.2,0.1-2,0.3l-0.2-2.6c0.2,0,0.5,0,0.8,0c1.8,0,2.4,0,6.8-0.5v-4.2h-4.1c-1.2,0-2,0-3,0.2v-2.5c0.9,0.2,1.5,0.2,3.1,0.2
		h4.1V249.1z M714,269.7h9.2c2.1,0,3.1,0,4.3-0.2v2.4c-1.2-0.1-2.4-0.2-4.3-0.2H714v2.5h11.8c2.2,0,3.2,0,4.3-0.2v2.5
		c-1.5-0.2-2.6-0.2-4.3-0.2H714v3.2c0,2.4-0.8,2.9-4.3,2.9c-0.8,0-1.8,0-3.6-0.1c-0.2-1.2-0.3-1.5-0.7-2.3c2,0.2,3.3,0.3,4.8,0.3
		c1.4,0,1.6-0.2,1.6-1.2v-2.8h-12.4c-1.8,0-3,0.1-4.4,0.2V274c1.2,0.1,1.9,0.2,4.4,0.2h12.4v-2.5h-10c-2,0-3.1,0-4.3,0.2v-2.4
		c1.2,0.2,2.3,0.2,4.3,0.2h10v-2.2c-5.2,0.3-7.9,0.4-11.8,0.4c-0.2-1.2-0.3-1.3-0.7-2.1c1.9,0.1,2.8,0.1,3.8,0.1
		c7.9,0,17.6-1,19.7-2.1l2,2c-4,0.8-5.1,1-10.7,1.5V269.7z M721.5,262.1c-2-1.6-3.4-2.6-4.9-3.5c-1.7,2.5-3.4,3.8-7.4,5.7
		c-0.5-0.8-1-1.2-1.8-1.8c2.9-1.1,4.2-1.8,5.6-3.2c0.6-0.6,1.2-1.2,1.6-1.9c-1.8-1-2.6-1.3-4.5-2l1.3-1.7c2.1,0.8,2.8,1.2,4.2,1.9
		c0.3-1,0.4-2.1,0.6-4.1h-3c-1,0-2.1,0-2.8,0.1v-2.4c0.8,0.1,1.6,0.2,2.8,0.2h3c0-0.3,0-0.7,0-1.1c0-1.1-0.1-1.8-0.2-2.6h2.8
		c-0.2,0.9-0.2,0.9-0.3,3.7h3.9c1.5,0,2.4,0,3-0.2c-0.1,0.6-0.1,1.2-0.1,2.2c0,5.4,0.9,10.1,1.9,10.1c0.6,0,1.4-2,1.6-4
		c0.6,0.8,1,1.2,1.7,1.6c-0.6,2.4-0.8,2.8-1.2,3.6c-0.6,1.1-1.2,1.6-2.2,1.6c-1.3,0-2.4-1.2-3.1-3.5c-0.6-2-1.1-5.9-1.1-9.3h-4.7
		c-0.2,2.9-0.4,4-0.9,5.2c1.8,1,3.2,1.9,5.2,3.3L721.5,262.1z"/>
	<path id="XMLID_2143_" class="st2" d="M739,263.7h-2c-1.2,0-1.9,0-2.8,0.2v-2.6c0.9,0.2,1.6,0.2,3,0.2h1.4c1.3,0,2,0,3-0.2
		c-0.2,1.1-0.2,2.2-0.2,4v9.3c0.3,0.2,0.4,0.4,1.4,1.2c2.5,2.4,4.5,2.8,13.7,2.8c6.5,0,10.8-0.2,14.4-0.7c-0.1,0.3-0.2,0.5-0.3,0.6
		c-0.4,1-0.4,1-0.7,2.2c-3.8,0.2-8.4,0.3-13.8,0.3c-5.7,0-9.1-0.3-11-1c-1.7-0.6-2.5-1.2-3.9-2.8c-0.4-0.4-0.8-0.6-1-0.6
		c-0.4,0-1,0.5-2,1.6c-1,1.1-1.1,1.2-2.3,3l-1.8-2c0.6-0.6,0.6-0.6,1.9-2c1.4-1.5,2.4-2.3,3.1-2.7V263.7z M740.4,255.7
		c-1.8-3-3.2-4.8-5.8-7.5l1.9-1.5c3.4,3.7,4.1,4.4,5.9,7.3L740.4,255.7z M747.9,259.6c-1.8,0-2.6,0-3.5,0.2c0.1-0.8,0.2-2,0.2-3.7
		v-4c0-2,0-2.7-0.2-3.6c0.8,0.1,1.8,0.2,3.5,0.2h0.3c0.5-1.1,0.7-1.9,0.9-3l2.4,0.5c-0.3,0.9-0.6,1.4-1,2.5h1.6c1.8,0,2.8,0,3.7-0.2
		c-0.1,0.9-0.2,1.5-0.2,3.5v4.1c0,1.8,0,2.8,0.1,3.5c-0.8,0-1.9-0.1-3.4-0.1h-2.4c0.1,0.2,0.2,0.3,0.2,0.4c0.4,0.7,1,1.6,1.5,2.7
		h2.5c1.5,0,2.2,0,3.3-0.2v2.4c-1.1-0.2-1.8-0.2-3.3-0.2h-5.2c0,1-0.1,1.7-0.2,2.4h3.9c1.4,0,2.4,0,3.3-0.2
		c-0.1,0.4-0.1,0.5-0.1,1.3c-0.2,3.3-0.5,5.9-0.9,6.9c-0.4,1-1.3,1.4-3.2,1.4c-0.9,0-1.4,0-2.2-0.1c0-0.8-0.1-1.3-0.4-2.2
		c0.5,0,0.5,0,1.5,0.2c0.3,0,0.7,0.1,1,0.1c1.1,0,1.5-0.3,1.6-1.1c0.2-1.7,0.4-3.5,0.4-4.4h-5.1c-0.6,3.3-1.6,5.2-3.8,7.3
		c-0.6-0.7-1-1-1.9-1.5c2.8-2.3,3.7-4.8,3.9-10.1h-0.5c-1.5,0-2.4,0-3.4,0.2v-2.4c1,0.2,1.8,0.2,3.5,0.2h3c-0.4-0.8-0.6-1.2-1.4-2.2
		l1.7-0.8H747.9z M746.6,253.3h6.9v-2.7h-6.9V253.3z M746.6,257.8h6.9v-2.8h-6.9V257.8z M760.8,254.7c-1,2.8-1.3,3.7-2.6,6
		c-0.7-0.6-1.1-0.9-2-1.3c1.2-2,1.8-3.3,2.7-6c0.8-2.6,1.4-5.1,1.5-7.1l2.6,0.5c-0.2,0.7-0.4,1.2-0.9,3.4c-0.4,1.4-0.4,1.7-0.6,2.4
		h5.1c1.7,0,2.8-0.1,3.6-0.2v2.6c-0.7-0.1-1.1-0.2-2.6-0.2c-0.2,5.4-0.8,8.4-2.2,12c1.5,2.2,2.2,3.5,4.6,7.7l-1.9,1.8
		c-1.6-3.1-2.1-4.1-3.8-6.9c-1.7,3.3-3.4,5.4-6.5,8.1c-0.6-0.9-1.1-1.4-1.8-1.9c3.5-2.7,5.2-4.7,7-8.5c-1.6-2.5-2.2-3.3-4.2-5.9
		l1.6-1.4c1.9,2.5,2.5,3.3,3.5,4.7c1-3.1,1.3-5.2,1.5-9.8H760.8z"/>
	<path id="XMLID_2150_" class="st2" d="M779.4,260.6H777c-1.3,0-1.9,0-2.9,0.2V258c1,0.2,1.6,0.2,3.1,0.2h2c1.2,0,2.1-0.1,3.1-0.2
		c-0.2,1.3-0.2,2.2-0.2,4.2v14.1c1.9-1.1,2.8-1.6,5-3.1l0.2,2.8c-0.8,0.5-1.4,0.8-1.8,1.1c-1.7,1-1.7,1-3.7,2.1
		c-0.2,0.1-0.9,0.6-2.4,1.5l-1-2.4c0.6-0.3,0.9-0.7,1-1.3V260.6z M779.1,246.1c2.5,1.9,4.1,3.4,6.3,5.7l-1.9,2.1
		c-2-2.5-3.7-4.1-6.3-6L779.1,246.1z M790.5,250.9c-1.8,0-2.6,0-3.7,0.2v-2.4c1.2,0.2,1.9,0.2,3.7,0.2h6.1v-0.1c0-1.4,0-2.2-0.2-3.2
		h2.8c-0.2,1-0.2,1.8-0.2,3.2v0.1h6.9c2,0,2.7,0,3.8-0.2v2.4c-1.1-0.2-2-0.2-3.8-0.2h-6.9v2.9h5.5c1.8,0,2.7,0,3.7-0.2v2.4
		c-1.1-0.2-2.1-0.2-3.7-0.2h-5.4v2.9h7.6c1.8,0,2.9-0.1,4-0.2v2.6c-1.1-0.2-2.2-0.2-4-0.2h-17.1c-1.9,0-2.9,0-4.1,0.2v-2.6
		c1,0.2,2.1,0.2,4.1,0.2h7.2v-2.9H792c-1.6,0-2.5,0-3.6,0.2v-2.4c1,0.2,2,0.2,3.7,0.2h4.5v-2.9H790.5z M791.6,277.6
		c0,2.1,0.1,3.3,0.2,4.3H789c0.2-1,0.2-2.2,0.2-4.3v-10.9c0-1.8,0-2.4-0.1-3.5c1.1,0.1,2.1,0.2,3.7,0.2h10.8c1.9,0,2.9,0,3.7-0.2
		c-0.1,1-0.2,2.2-0.2,4.3v10.9c0,2.5-0.7,3.1-3.8,3.1c-1,0-1.9,0-3.7-0.1c-0.2-1.3-0.4-2-0.7-2.6c1.6,0.3,3.2,0.5,4.4,0.5
		c1.1,0,1.4-0.2,1.4-1.2v-2.9h-13.1V277.6z M804.7,268.3v-2.8h-13.1v2.8H804.7z M804.7,273.3v-3h-13.1v3H804.7z"/>
</g>
<g id="XMLID_1072_">
	<path id="XMLID_2157_" class="st2" d="M592.1,986.1h-2c-1.2,0-1.8,0-2.7,0.1v-3.5c0.9,0.1,1.5,0.1,3,0.1H602v-3.2
		c0.8,0.1,1.5,0.1,3,0.1h2.1c0-1.1,0-1.6,0-3.7c0-1.2,0-1.9-0.2-2.8h3.8c-0.2,1-0.2,1-0.3,6.5h2.8c1.7,0,2.4,0,3.3-0.1
		c-0.1,0.8-0.1,2.3-0.2,6.1c-0.1,6.5-0.5,10.3-1.1,13.1c-0.7,2.9-1.5,3.5-4.6,3.5c-0.8,0-1.5,0-2.7-0.1c-0.1-1.5-0.2-2.1-0.7-3.5
		c1.3,0.3,2.2,0.4,3,0.4c1.2,0,1.5-0.3,1.8-2c0.6-3,0.8-5.9,1-14.1h-2.7c-0.2,3.6-0.6,6.2-1,8.2c-0.9,3.6-2.1,6.5-4.1,9.4
		c-0.6,0.8-1,1.3-2,2.5c-0.2-0.3-0.4-0.5-1-1.2c-0.9-1-0.9-1-1.9-1.5c1.2-1.1,1.6-1.5,2.7-3l-3.1,1.2c-0.1-0.7-0.2-0.9-0.3-1.4
		c-1.7,0.5-2,0.6-5.7,1.3c-2.9,0.6-2.9,0.6-3.6,0.8c-0.9,0.2-0.9,0.2-1.3,0.3l-1-3.3c1.1-0.3,1.5-0.7,2-1.9
		C590.9,992.1,591.5,989.5,592.1,986.1z M588.9,974.9c0.8,0.1,1.3,0.2,2.6,0.2h7.7c1.2,0,1.7,0,2.5-0.2v3.5
		c-0.8-0.1-1.3-0.2-2.4-0.2h-7.9c-1.2,0-1.7,0-2.5,0.2V974.9z M595.8,986.1c-0.1,0.6-0.2,0.9-0.2,1.2c-0.6,3-1.3,5.6-2.3,8.3
		c1.7-0.4,3.2-0.7,5.4-1.4c-0.4-1.2-0.7-2-1.6-4.7l3-1c1.4,3.3,2.3,6.1,3.1,8.9c1.2-1.8,1.9-3.3,2.6-5.7c0.6-2.2,1-5,1.2-8.5H605
		c-0.1,0-0.5,0-1.1,0c-0.2,0-0.4,0-0.7,0v3.1c-0.9-0.1-1.5-0.1-2.7-0.1H595.8z"/>
	<path id="XMLID_2161_" class="st2" d="M620.1,973.9c1.2,0.1,2.4,0.2,3.9,0.2h21.4c1.5,0,2.7-0.1,4-0.2v3.6c-1.2-0.1-2.6-0.2-4-0.2
		h-21.4c-1.5,0-2.7,0.1-4,0.2V973.9z M645.1,983.5c0-1.3,0-2-0.2-2.8h3.8c-0.1,1.1-0.2,2.5-0.2,3.6v14.6c0,1.7,0.1,3,0.2,4.4h-3.7
		v-1.2h-20.3c-1.4,0-2.6,0.1-4,0.2c0.2-1.5,0.2-2.4,0.2-3.9v-14.6c0-1.1,0-1.9-0.2-3.1h3.9c-0.1,0.8-0.2,1.4-0.2,2.8v15.3h20.6
		V983.5z M626.7,982.2c0-1,0-1.6-0.1-2.4c0.7,0.1,1.5,0.1,2.7,0.1h10.9c1.2,0,1.9,0,2.7-0.1c-0.1,0.7-0.1,1.4-0.1,2.4v11.6
		c0,1.2,0,1.7,0.1,2.4c-0.8-0.1-1.4-0.1-2.9-0.1h-10.5c-1.6,0-2.1,0-2.9,0.1c0.1-0.8,0.1-1.2,0.1-2.4V982.2z M629.9,982.9v3.7h3.2
		v-3.7H629.9z M629.9,989.6v3.7h3.2v-3.7H629.9z M636.3,986.6h3.3v-3.7h-3.3V986.6z M636.3,993.2h3.3v-3.7h-3.3V993.2z"/>
	<path id="XMLID_2169_" class="st2" d="M673.3,994.8c-1.2-0.1-2.6-0.2-3.9-0.2h-12.7c-1.5,0-2.8,0.1-4.1,0.2v-3.7
		c1.2,0.1,2.5,0.2,4.2,0.2h12.7c1.4,0,2.7-0.1,3.9-0.2V994.8z M674.9,977.1c1.9,0,2.8,0,4-0.2v3.7c-1-0.1-2.1-0.2-3.8-0.2h-13.8
		c-0.1,1.3-0.1,1.4-0.4,3.8h14.6c1.6,0,2.6,0,3.3-0.2c-0.1,0.9-0.1,0.9-0.2,3.3c-0.4,6.4-0.9,10.2-1.8,12.3c-1,2.4-2.2,3-5.8,3
		c-1.5,0-2.4-0.1-5.2-0.3c-0.3-1.5-0.8-3-1.2-3.9c3.8,0.5,4.8,0.6,6.6,0.6c1.9,0,2.2-0.3,2.7-2.8c0.5-2.3,0.7-4.4,1-8.9h-13.1
		c-1.3,0-3.1,0.1-5,0.2c0.6-3.3,0.8-4.6,1.1-7.3c0.2-2.4,0.3-4.4,0.3-5.6c0-0.3,0-0.6,0-0.8c0-0.6,0-0.6,0-0.8l4,0
		c-0.1,0.5-0.1,0.9-0.2,1.5c0,0.2-0.1,0.8-0.1,1.7c0,0.2,0,0.3-0.1,0.6H674.9z"/>
	<path id="XMLID_2172_" class="st2" d="M694.9,986.1c0,0.4,0,0.8,0.1,1.2h-3.5c0.1-0.4,0.1-0.7,0.1-1.1V985c0-0.3,0-0.8,0.1-1.4
		c-1.8,2.4-2.8,3.4-5.3,5.1c-0.7-1.2-1.1-1.7-2.1-2.7c2.6-1.3,4.1-2.5,5.2-4.1h-1.8c-1.2,0-2,0-2.7,0.2V979c0.7,0.1,1.5,0.2,2.7,0.2
		h3.9v-3.8c0-1,0-1.6-0.2-2.2h3.6c-0.1,0.6-0.2,1.2-0.2,2.1v3.9h4c1,0,1.7,0,2.1-0.1v3c-0.5-0.1-1.1-0.1-2.1-0.1H696
		c1.5,0.8,2.7,1.6,3.8,2.4l-1.6,2.6c-0.7-0.7-0.7-0.7-2.2-1.9c-0.1,0-0.2-0.2-0.5-0.4c-0.1-0.1-0.3-0.2-0.5-0.4V986.1z M697.3,989.7
		c0.8,0,2-0.1,2.5-0.2c-0.3,0.9-0.3,0.9-0.7,2.3c-0.3,1.3-1,3.2-1.6,4.1c-0.2,0.4-0.3,0.5-0.7,1.1c0.8,0.4,1.2,0.6,2.3,1.3l-1.9,3
		c-1.2-0.9-1.7-1.2-2.7-1.8c-1.8,1.6-4.5,2.9-8.1,3.8c-0.4-1-0.7-1.7-1.8-3c2.9-0.5,5.2-1.3,6.8-2.3c-1.9-0.8-2.7-1.2-5.1-2
		c1-1.4,1.2-1.6,2.1-3.2h-0.7c-1,0-1.9,0-2.8,0.1v-3.2c0.8,0.1,1.6,0.1,2.9,0.1h2.1c0.3-0.6,0.5-1.1,0.8-2.3l3.4,0.7
		c-0.3,0.8-0.4,1-0.7,1.6H697.3z M688.7,973.5c1.2,1.8,1.6,2.6,2.3,4.3l-2.9,1.1c-0.6-1.8-1.2-2.8-2.2-4.3L688.7,973.5z M692,992.6
		c-0.2,0.5-0.5,0.8-1.1,1.9c1.3,0.5,1.3,0.5,3.2,1.2c0.7-0.9,1.2-1.9,1.7-3.1H692z M700.8,974.6c-1.2,2.4-1.5,2.9-2.5,4.4l-2.8-1.2
		c1-1.4,1.8-2.8,2.3-4.4L700.8,974.6z M714.9,982c-0.6-0.1-0.8-0.1-2.3-0.1c-0.2,5.2-1.3,9.3-3.3,12.7c1.7,2.2,3.7,3.8,6.2,5.1
		c-0.7,1-1.3,2-1.9,3.4c-2.4-1.4-4.8-3.5-6.3-5.6c-2.1,2.4-4.5,4.4-7.4,5.8c-0.7-1.7-0.9-2.2-1.8-3.2c1.9-0.9,2.6-1.3,3.8-2.2
		c1.4-1,2.5-2.1,3.4-3.2c-1.5-2.8-2.2-4.6-2.7-7.6c-0.5,0.8-0.8,1.3-1.5,2.1c-0.7-0.9-1.4-1.7-2.3-2.3c2-2.5,3.4-5.4,4.4-9.4
		c0.4-1.5,0.7-3.5,0.8-4.4l3.6,0.7c-0.1,0.4-0.2,0.7-0.5,1.8c-0.2,0.9-0.5,2.1-0.8,3.2h5.7c1.6,0,2.3,0,3.1-0.2V982z M705.1,981.9
		c-0.1,0.3-0.2,0.4-0.4,1c0.5,3.3,1.3,6.1,2.6,8.5c1.3-2.8,1.9-5.5,2-9.6H705.1z"/>
	<path id="XMLID_2180_" class="st2" d="M734.2,999.1c0,1.6-0.4,2.6-1.3,3.1c-0.7,0.4-1.6,0.6-3.3,0.6c-1.2,0-2.2-0.1-3.9-0.2
		c-0.2-1.3-0.3-1.7-1-3.4c1.6,0.2,3.3,0.4,4.5,0.4c1.2,0,1.6-0.2,1.6-0.9v-5.3h-8.9c-1.5,0-2.9,0.1-4,0.2v-3.7
		c1.2,0.1,2.5,0.2,4,0.2h8.9v-0.2c0-0.7,0-1.4-0.1-2.1h1.7c1.6-0.8,2.9-1.7,4-2.8h-10.2c-1.5,0-2.4,0.1-3.4,0.2v-3.5
		c0.9,0.1,1.9,0.2,3.4,0.2h11.9c1.2,0,1.9,0,2.5-0.1l1.7,2.2c-0.6,0.5-0.8,0.7-1.3,1.1c-2.4,2.1-4.3,3.5-6.7,4.8v0.2h8.6
		c1.6,0,2.9-0.1,4-0.2v3.7c-1-0.1-2.5-0.2-4-0.2h-8.6V999.1z M730.2,976.3c-0.4-0.8-0.6-1.2-1.4-2.3l3.7-1.3
		c0.9,1.6,1.2,2.2,1.8,3.6h8.3c1.7,0,2.5,0,3.7-0.1c-0.1,0.8-0.1,1.5-0.1,2.6v2.6c0,0.9,0.1,1.7,0.2,2.5h-3.6v-4.3h-21.1v4.3h-3.6
		c0.1-0.7,0.2-1.5,0.2-2.5v-2.6c0-1,0-1.8-0.2-2.6c1.2,0.1,2.1,0.1,3.7,0.1H730.2z"/>
	<path id="XMLID_2183_" class="st2" d="M757.7,975.4c0-0.6-0.1-1.3-0.2-1.9h3.8c-0.1,0.6-0.2,1.3-0.2,1.9v1.1h6.5v-1.1
		c0-0.8,0-1.3-0.2-1.9h3.8c-0.1,0.6-0.2,1.1-0.2,1.9v1.1h4.4c1.6,0,2.6-0.1,3.8-0.2v3.6c-1-0.1-1.9-0.2-3.8-0.2h-4.4v0.6
		c0,0.7,0,1,0.1,1.8h-3.7c0.1-0.7,0.1-1.1,0.1-1.8v-0.5h-6.5v0.5c0,0.8,0,1,0.1,1.8h-3.7c0.1-0.6,0.1-1,0.1-1.8v-0.6h-4
		c-1.9,0-2.8,0-3.8,0.2v-3.6c1.3,0.1,2.2,0.2,3.8,0.2h4V975.4z M756.8,986.9c-1.7,0-2.4,0-3.4,0.2v-3.4c1,0.1,1.8,0.2,3.4,0.2h11.6
		c1.9,0,2.5,0,3.2-0.2l1.9,2.7c-5.1,2.2-6.9,3.1-11.4,5.9c-3.2,2-4.1,2.6-5,3.6c0,0.1-0.1,0.1-0.1,0.1c-0.4,0.5-0.5,0.7-0.5,1.2
		c0,0.7,0.4,1.1,1.2,1.4c1,0.3,3.6,0.5,6.5,0.5c3.1,0,6.5-0.3,7.5-0.6c1-0.3,1.6-1,1.9-2.3c0.2-0.7,0.3-1.5,0.4-3.5
		c1.5,0.7,2.3,1,3.7,1.2c-0.4,3.9-0.8,5.4-2,6.5c-1.5,1.4-4.4,1.9-11.2,1.9c-4.2,0-6.8-0.3-8.8-0.9c-1.9-0.7-2.9-1.8-2.9-3.6
		c0-2.1,1.2-3.9,4.5-6.1c1.1-0.7,3.1-2,4.5-2.8c0.6-0.4,1.3-0.7,2.6-1.3c0.3-0.1,0.5-0.2,0.7-0.3c0.5-0.2,0.8-0.4,1.3-0.6H756.8z"/>
	<path id="XMLID_2186_" class="st2" d="M811.5,983.8c-1.3-0.2-2.4-0.2-3.9-0.2h-7.6c1.8,2.9,3.2,4.6,5.3,6.6c2.2,2,4.2,3.4,7.4,5.1
		c-1.3,1.4-1.5,1.7-2.5,3.4c-3.5-2.5-4.9-3.6-6.5-5.2c-2-2.1-3.3-3.8-5.1-6.8c0.2,1.5,0.3,3,0.3,4v8.1c0,1.7,0.1,2.8,0.2,4h-4.2
		c0.2-1.3,0.2-2.4,0.2-4.1v-8.1c0-0.8,0.1-1.9,0.2-3.9c-1.5,2.8-2.7,4.5-4.5,6.4c-1.9,2-3.6,3.4-6.7,5.5c-0.8-1.6-1.4-2.3-2.4-3.3
		c2.8-1.6,4.7-3,7-5.2c2.4-2.2,3.8-4.1,5.3-6.8h-7.2c-1.5,0-2.6,0.1-3.9,0.2V980c1.3,0.2,2.3,0.2,3.9,0.2h8.3v-3.9
		c0-1.3-0.1-2-0.2-3h4.2c-0.2,1-0.2,1.8-0.2,3v3.9h8.7c1.7,0,2.8-0.1,3.9-0.2V983.8z M805.9,980.2c-1.8-2.2-2.5-2.9-5-4.7l2.5-2.2
		c2.6,1.9,3.2,2.4,5.1,4.5L805.9,980.2z"/>
	<path id="XMLID_2189_" class="st2" d="M828,990.8c0-0.6,0-1.2-0.1-1.8h1.4c1.4-0.7,2.5-1.4,3.8-2.6h-8.9c-1.3,0-2.2,0-3.2,0.1v-3.2
		c1,0.1,1.9,0.2,3.3,0.2H835c1.3,0,1.9,0,2.5-0.1l1.8,2c-0.5,0.4-0.5,0.4-1.2,1c-2.3,2-4,3.2-6.5,4.7v0h8.5c1.6,0,3-0.1,4-0.2v3.6
		c-0.9-0.1-2.3-0.2-4-0.2h-8.4v5.7c0,1.1-0.1,1.6-0.4,2c-0.6,0.8-1.6,1.1-4.9,1.1c-0.3,0-1.2,0-2.9-0.1c-0.4-1.7-0.5-2.3-1.1-3.4
		c1.6,0.2,3,0.3,4,0.3c1.4,0,1.7-0.1,1.7-0.7v-4.8h-8.8c-1.7,0-3,0.1-4,0.2v-3.6c1.1,0.2,2.4,0.2,3.9,0.2h8.8V990.8z M828.1,978.1
		c-0.6-1.5-1.1-2.7-2-4.1l3.4-0.9c1.3,2.4,1.6,3.2,2.2,5h2.8c0.3-0.4,0.6-0.7,1-1.5c1-1.7,1.2-2.2,1.7-3.4l3.5,1
		c-0.7,1.4-1.9,3.2-2.4,3.9h1.5c2.2,0,2.8,0,4-0.1c-0.1,0.8-0.1,1.5-0.1,2.7v3c0,0.9,0.1,1.7,0.2,2.5h-3.5v-5H819v5h-3.5
		c0.1-0.7,0.2-1.5,0.2-2.5v-3c0-1.2,0-1.9-0.1-2.7c1.5,0.1,1.7,0.1,3.8,0.1h1.5c-0.7-1.4-1.2-2.1-2.4-3.7l3.3-1
		c1.1,1.3,2.1,2.9,3,4.6H828.1z"/>
	<path id="XMLID_2192_" class="st2" d="M858.9,975.8c-0.1,0.2-0.1,0.3-0.2,0.6c0.4,0,1.3,0.1,2.4,0.1h4.2c-0.3-0.8-0.6-1.3-1.3-2.3
		l3.3-1.2c0.8,1.5,1.2,2.2,1.7,3.5h4.8c1.2,0,2,0,2.9-0.2c-0.1,0.7-0.1,1.1-0.1,2.3v2.6c0,1,0,1.6,0.1,2.4h-3.1v1.5
		c-0.8-0.1-1.6-0.1-2.5-0.1h-7.6c-1,0-1.8,0-2.6,0.1v-1.6h-3c0-0.2,0-0.2,0.1-0.6c0-0.3,0.1-1.2,0.1-1.9v-2.4c0-0.2,0-0.4,0-0.6
		c-0.1,0.2-0.1,0.2-0.1,0.4c-0.7,2.1-0.7,2.1-2.4,5.9c1.2,1.8,1.6,2.7,2,3.8c0.5,1.3,0.7,2.8,0.7,4.1c0,1.9-0.8,3.2-2.3,3.6
		c-0.7,0.2-1.8,0.3-3.2,0.4c-0.1-1.8-0.3-2.6-0.8-3.5c0.7,0.1,1.1,0.1,1.7,0.1c1.1,0,1.3-0.2,1.3-1.4c0-1.1-0.4-2.5-1.2-3.9
		c-0.4-0.8-0.9-1.5-1.9-2.8c1-2.1,2-4.7,2.7-7.3h-3.2v22.2c0,1.7,0,2.6,0.2,3.7h-3.6c0.1-1,0.2-2.2,0.2-3.7v-22.3c0-1.1,0-2-0.1-3
		c0.6,0.1,1.3,0.1,2.3,0.1h4.9c1.1,0,1.6,0,2.1-0.1L858.9,975.8z M865.3,990.2c-0.2,3.5-0.8,5.6-2.1,7.6c-1.4,2.3-3.3,3.8-6.8,5.4
		c-0.7-1.3-1.2-1.9-2.3-2.9c2.9-1,4.6-2.2,6-3.9c0.8-1,1.4-2.5,1.7-4.2c0.1-0.5,0.1-0.5,0.2-2h-0.3c-1.6,0-2.1,0-3.1,0.2v-3.3
		c0.9,0.1,1.8,0.2,3.1,0.2h12c1.6,0,2.2,0,3.2-0.2v3.4c-0.9-0.1-1.9-0.2-3.2-0.2h-2.9v8.6c0,0.5,0.2,0.6,1.4,0.6
		c1.1,0,1.5-0.2,1.7-0.7c0.2-0.6,0.3-1.7,0.4-4.1c1.1,0.6,1.6,0.7,3.1,1c-0.6,6.2-1.1,7-5.4,7c-3.5,0-4.6-0.6-4.6-2.4v-10H865.3z
		 M861.3,981.8c0.5,0,1.1,0.1,2.2,0.1h7.6c1.1,0,1.6,0,2.1-0.1v-2.3h-11.9V981.8z"/>
</g>
</svg>
