<?xml version="1.0" encoding="utf-8"?>
<!-- Generator: Adobe Illustrator 19.0.0, SVG Export Plug-In . SVG Version: 6.00 Build 0)  -->
<svg version="1.1" id="图层_2" xmlns="http://www.w3.org/2000/svg" xmlns:xlink="http://www.w3.org/1999/xlink" x="0px" y="0px"
	 viewBox="0 0 1465.2 1257.5" style="enable-background:new 0 0 1465.2 1257.5;" xml:space="preserve">
<style type="text/css">
	.st0{fill:#EAEAEA;}
	.st1{fill:#1C1B20;}
	.st2{fill:#E1AD0B;}
</style>
<polygon id="XMLID_115_" class="st0" points="887.3,807.1 503.2,807.1 575.5,759.4 959.6,759.4 "/>
<g id="XMLID_125_">
	<path id="XMLID_990_" class="st1" d="M643.9,773c1.6,0,2.3,0,3.3-0.1c-0.1,1-0.1,1.8-0.1,3.2v11c0,1.6,0,2.6,0.2,3.6h-4.2v-2.2H634
		v7.3c0,2.2,0.1,3.2,0.3,4.5h-4.6c0.2-1.3,0.3-2.4,0.3-4.5v-7.3h-8.5v2.2h-4.2c0.1-1.2,0.2-2.1,0.2-3.6v-11c0-1.3,0-2-0.1-3.1
		c1,0.1,1.8,0.1,3.2,0.1h9.5v-2.2c0-1.9,0-2.7-0.2-3.9h4.5c-0.1,1.1-0.2,2-0.2,3.8v2.3H643.9z M629.9,776.9h-8.5v7.8h8.5V776.9z
		 M634,784.7h8.9v-7.8H634V784.7z"/>
	<path id="XMLID_994_" class="st1" d="M652.7,772.4c0-1.5-0.1-2.9-0.2-4.3c1.2,0.1,2.3,0.2,4.2,0.2h22.7c1.8,0,2.9,0,4.2-0.2
		c-0.1,1.3-0.2,2.5-0.2,4.3v23.1c0,2.4,0,3.5,0.2,4.6h-4.1v-2h-23v2h-4.1c0.1-1.1,0.2-2.3,0.2-4.7V772.4z M656.6,794.6h23v-22.8h-23
		V794.6z M669.7,781.1h3.7c1.6,0,2.3,0,3.1-0.2v3.6c-0.8-0.1-1.4-0.2-2.3-0.2c0.8,0.9,1.7,2.2,2.3,3.5l-1.9,1.1h0.1
		c1.6,0,2.3,0,3.4-0.2v3.7c-1-0.1-2-0.2-3.4-0.2h-13c-1.7,0-2.4,0-3.4,0.2v-3.7c1,0.2,1.8,0.2,3.4,0.2h4.3v-4.6h-3.1
		c-1.5,0-2.2,0-3.1,0.2V781c0.9,0.1,1.5,0.2,3.1,0.2h3.1v-3.7H662c-1.6,0-2.3,0-3.3,0.2v-3.6c1,0.1,1.7,0.2,3.3,0.2h12.2
		c1.6,0,2.4,0,3.3-0.2v3.6c-1-0.1-1.7-0.2-3.3-0.2h-4.6V781.1z M669.7,784.3v4.6h3.9c-0.1-0.1-0.1-0.1-0.1-0.3
		c-0.6-1.2-1.3-2.3-2.1-3.3l1.9-1H669.7z"/>
	<path id="XMLID_999_" class="st1" d="M695.3,796c0,1.7,0.1,2.6,0.3,4h-4.3c0.2-1.4,0.3-2.4,0.3-4.3v-10c0-1.8,0-1.8,0.1-4.1
		c-1.1,1.8-1.7,2.6-2.9,4c-0.5-1.9-0.8-2.7-1.8-4.2c2.5-2.7,4.3-5.4,5.8-9c0.9-2.2,1.5-4,1.8-5.8l4,1.4c-1,3-1.7,4.7-3.3,7.8V796z
		 M699.6,780.7c-1.5,0-2.1,0.1-3.2,0.2v-4c1.1,0.1,1.9,0.2,3.2,0.2h4.1l0.8-3.5h-2.9c-1.3,0-2.2,0.1-3.1,0.2v-3.8
		c0.9,0.1,1.9,0.2,3.1,0.2h3.7l0.2-0.8c0,0,0-0.1,0-0.3c0,0,0-0.1,0-0.2c0.1-0.9,0.2-1.4,0.2-2l4,0.3c-0.3,0.8-0.3,1.1-0.6,2.4
		l-0.1,0.6h6.9c1.2,0,2.1,0,3-0.2v3.8c-0.9-0.1-1.8-0.2-3-0.2h-7.6c-0.1,0.5-0.2,0.7-0.4,1.7c-0.2,1.1-0.3,1.3-0.4,1.8h10.2
		c1.3,0,2.2-0.1,3.2-0.2v4c-1.3-0.2-2-0.2-3.3-0.2l-11.2,0c-0.3,1-0.5,1.6-1,3.1h9.4c1.2,0,1.7,0,2.4-0.1l2,2.7
		c-1.8,1.3-4.1,3.9-7.5,8.2c1.3,1.2,2,1.9,2.8,2.8l-2.6,3.2c-2.3-2.6-5.9-5.4-9.7-7.9l2.5-2.7c2,1.2,3.3,1.9,3.8,2.2
		c1.8-2,2.3-2.7,4.3-5h-8.6c-0.9,0-1.7,0-2.4,0.1c-0.9,0.1-1,0.1-1.4,0.1c-0.1,0-0.3,0-0.5,0c1.8-4.1,2.1-4.9,2.6-6.7L699.6,780.7z"
		/>
	<path id="XMLID_1002_" class="st1" d="M734,795.7c-1.2-1.4-1.6-1.8-2.5-2.7c-1.7,2.6-2.9,4.1-5.7,6.6c-1-1.5-1.5-2.1-2.7-3.2
		c2.5-1.8,4.4-3.7,5.7-5.8c-1.8-1.6-2.5-2.2-4.6-3.6c1.2-3,1.9-5.2,2.7-9.4h-0.6c-0.9,0-1.6,0-2.6,0.2v-3.9c0.9,0.1,1.8,0.2,2.9,0.2
		h0.8c0.4-3.1,0.6-4.9,0.6-6.4c0-0.2,0-0.4,0-0.6l4.1,0.3c-0.1,0.7-0.2,1-0.4,2.6c-0.2,1.7-0.4,2.8-0.6,4.1h2.1c1.4,0,2.3,0,3.2-0.1
		c-0.4,4.6-0.4,4.6-0.6,6c-0.5,3.4-1.6,7.3-2.7,9.7c1,0.8,1.6,1.3,3,2.8L734,795.7z M730.5,777.5c-0.8,3.9-1.2,5.5-2.2,8.4l2.1,1.5
		c1.2-2.9,1.9-6,2.3-9.9H730.5z M741.5,783.8c-1.4,0-1.8,0-2.8,0.1c0-0.9,0.1-1.6,0.1-2.4v-7.9h-0.1c-1.3,0-1.9,0-2.6,0.2v-3.6
		c0.7,0.1,1.4,0.2,2.6,0.2h0.1v-0.1c0-1.2,0-1.8-0.2-2.8h4c-0.1,0.8-0.1,1.3-0.1,2.9v0.1h6.9v-0.1c0-1.4,0-1.8-0.1-2.8h4
		c-0.1,1-0.2,1.5-0.2,2.8v0.1h0.8c1.2,0,2.1-0.1,2.8-0.2v3.6c-0.9-0.1-1.6-0.1-2.8-0.1h-0.8v7.9c0,1,0,1.6,0.1,2.4
		c-1-0.1-1.8-0.1-2.9-0.1h-2.8v2.2h5.5c1.7,0,2.7,0,3.5-0.2v3.8c-1.1-0.1-1.7-0.2-3.5-0.2h-3.8c1.8,2.4,4.5,4.5,8.2,6.3
		c-1,1.6-1.2,1.8-1.9,3.7c-4.1-2.7-5.8-4.3-8-7.7c0.1,1.2,0.1,1.9,0.1,2.7v3c0,1.5,0,2.3,0.2,3.1h-4.1c0.1-0.8,0.2-1.6,0.2-3.1v-2.9
		c0-0.8,0-1.6,0.1-2.7c-1.3,2-2,2.9-3.5,4.3c-1.4,1.3-2.3,2-4.5,3.3c-0.8-1.2-1-1.6-2.4-3c2.4-1.2,4.1-2.3,5.7-3.7
		c1.1-1,2.3-2.2,2.9-3.1h-3.5c-1.6,0-2.3,0-3.1,0.1v-3.7c0.6,0.1,1.5,0.1,3.1,0.1h5.1v-2.2H741.5z M749.5,773.5h-6.9v2.1h6.9V773.5z
		 M742.5,778.6v2.1h6.9v-2.1H742.5z"/>
	<path id="XMLID_1008_" class="st1" d="M778,779.5c0.9,3.2,2.8,6.7,5.2,9.4c2.7,3,5.6,5.1,9.9,6.8c-1.2,1.4-1.7,2.2-2.6,4.1
		c-4.2-2.2-7-4.3-9.7-7.5c-1.9-2.3-3.5-4.9-4.6-7.8c-1.3,4-2.9,6.8-5.9,9.6c-2.4,2.4-5,4.1-8.6,5.6c-0.6-1.4-1.4-2.5-2.5-3.8
		c2.6-1,4-1.8,5.8-3.1c4.8-3.4,7.2-7.4,8.1-13.6h-8.5c-2.3,0-3.3,0.1-4.5,0.3v-4.6c1.1,0.2,2.4,0.3,4.5,0.3h8.8
		c0.1-2.1,0.1-2.3,0.1-3.9c0-1.9-0.1-2.9-0.3-4h4.7c-0.2,1.3-0.2,1.8-0.3,4.2c0,1.5,0,2.2-0.1,3.6h9.5c2,0,3.3-0.1,4.5-0.3v4.6
		c-1.4-0.2-2.5-0.3-4.5-0.3H778z"/>
	<path id="XMLID_1010_" class="st1" d="M810.1,786.5c0-0.7,0-1.4-0.1-2h1.5c1.5-0.8,2.7-1.6,4.2-2.9h-9.9c-1.5,0-2.4,0-3.6,0.1v-3.6
		c1.1,0.1,2.1,0.2,3.6,0.2h11.9c1.4,0,2.1,0,2.7-0.1l2,2.2c-0.6,0.5-0.6,0.5-1.3,1.1c-2.6,2.2-4.4,3.5-7.2,5.2v0h9.4
		c1.8,0,3.3-0.1,4.4-0.3v4c-1-0.1-2.6-0.2-4.5-0.2h-9.3v6.3c0,1.2-0.1,1.7-0.5,2.2c-0.6,0.9-1.8,1.2-5.4,1.2c-0.3,0-1.4,0-3.2-0.1
		c-0.4-1.9-0.6-2.5-1.2-3.8c1.8,0.2,3.3,0.3,4.5,0.3c1.6,0,1.8-0.1,1.8-0.8v-5.3h-9.7c-1.9,0-3.3,0.1-4.4,0.2v-4
		c1.2,0.2,2.7,0.3,4.3,0.3h9.8V786.5z M810.2,772.5c-0.6-1.7-1.2-2.9-2.2-4.5l3.7-1c1.4,2.7,1.8,3.5,2.5,5.6h3.1
		c0.3-0.4,0.6-0.8,1.1-1.7c1.1-1.9,1.4-2.4,1.9-3.7l3.9,1.1c-0.8,1.5-2,3.5-2.7,4.3h1.6c2.4,0,3.1,0,4.4-0.1c-0.1,0.9-0.1,1.6-0.1,3
		v3.3c0,1,0.1,1.9,0.2,2.7h-3.9v-5.6h-23.4v5.6h-3.9c0.1-0.8,0.2-1.7,0.2-2.8v-3.3c0-1.3,0-2-0.1-3c1.6,0.1,1.8,0.1,4.2,0.1h1.7
		c-0.8-1.5-1.3-2.3-2.7-4.1l3.6-1.1c1.2,1.5,2.3,3.2,3.3,5.1H810.2z"/>
</g>
<g id="XMLID_87_">
	<path id="XMLID_1013_" class="st2" d="M588.8,883.8c-0.2,0.9-1.1,4.4-1.6,5.8c-0.5,1.7-1.3,3.8-2.1,5.5c3-0.4,5.4-1,8.5-1.8
		c-1-2.9-1.2-3.3-2.3-5.8l1.9-0.6c1.5,3.1,2.4,5.7,3.6,9.6l-2.1,0.7c-0.1-0.5-0.3-1.2-0.5-2c-1.6,0.4-2.6,0.6-2.9,0.7
		c-0.2,0-2.3,0.5-6.5,1.4c-0.7,0.1-0.7,0.1-1.4,0.3c-0.1,0-0.3,0.1-0.4,0.1c-0.4,0.1-0.4,0.1-0.7,0.2l-0.7-2.1
		c0.9-0.3,1.2-0.5,1.7-1.5c1.4-3.3,2.6-7.2,3.2-10.5H584c-1.3,0-2,0-2.9,0.2v-2.3c0.8,0.1,1.5,0.2,2.9,0.2h9.7c1.4,0,2.1,0,2.9-0.2
		v2.3c-0.9-0.1-1.5-0.2-2.8-0.2H588.8z M582.6,873.5c0.8,0.1,1.5,0.2,2.8,0.2h7.4c1.3,0,1.9,0,2.8-0.2v2.3c-0.8-0.1-1.5-0.2-2.7-0.2
		h-7.5c-1.3,0-2,0-2.8,0.2V873.5z M607.6,878.7c1.5,0,2.3,0,3.2-0.1c-0.1,0.8-0.1,0.8-0.2,4.4c-0.1,6.5-0.5,10.9-1,14
		c-0.6,3.4-1.3,4.2-3.8,4.2c-1.2,0-2.3-0.1-3.7-0.2c0-0.8-0.1-1.4-0.4-2.2c1.7,0.3,2.8,0.5,3.8,0.5c1.2,0,1.5-0.3,1.8-1.9
		c0.8-3.4,1-7.2,1.2-16.6h-4.4c-0.3,5.4-0.6,7.7-1.4,10.5c-0.7,2.4-1.7,4.7-3,6.6c-1,1.5-1.8,2.4-3.5,4.1c-0.6-0.7-0.9-1.1-1.8-1.7
		c3.5-3,5.4-6.1,6.6-10.5c0.6-2.4,0.9-4.7,1.1-9h-2.4c-1.5,0-2.3,0.1-3.1,0.2v-2.3c0.7,0.1,1.5,0.2,3.1,0.2h2.5c0-3,0-3,0-4.1
		c0-1.8,0-2.4-0.2-3.3h2.5c-0.1,0.7-0.2,1.4-0.2,2.6c0,2,0,3.5-0.1,4.4c0,0.2,0,0.2,0,0.3H607.6z"/>
	<path id="XMLID_1017_" class="st2" d="M615.2,872.2c1,0.1,2.1,0.2,3.5,0.2h22.8c1.5,0,2.5-0.1,3.5-0.2v2.3c-1-0.1-2.2-0.2-3.5-0.2
		h-22.8c-1.4,0-2.4,0.1-3.5,0.2V872.2z M642.1,882.4c0-1.4,0-2.3-0.2-3.2h2.5c-0.1,1-0.2,2.1-0.2,3.5v15.2c0,2,0.1,3,0.2,4.1h-2.3
		v-1.5h-21.5c-2.3,0-3.5,0.1-4.8,0.3c0.1-0.8,0.2-1.8,0.2-3.5v-15.1c0-1.4,0-2.2-0.2-2.9h2.4c-0.1,0.9-0.1,1.6-0.1,2.9v16.4h23.9
		V882.4z M621.8,880.4c0-1,0-1.6-0.1-2.4c0.9,0.1,1.6,0.1,2.8,0.1h11.3c1.2,0,1.9,0,2.8-0.1c-0.1,0.8-0.1,1.4-0.1,2.4v12
		c0,1,0,1.5,0.1,2.4c-0.9-0.1-1.7-0.1-2.9-0.1h-11.1c-1.2,0-2,0-2.9,0.1c0.1-0.9,0.1-1.4,0.1-2.4V880.4z M623.8,879.9v5.1h5.3v-5.1
		H623.8z M623.8,886.9v6h5.3v-6H623.8z M631,885.1h5.5v-5.1H631V885.1z M631,892.8h5.5v-6H631V892.8z"/>
	<path id="XMLID_1025_" class="st2" d="M669.3,892.4c-1-0.1-2.2-0.2-3.5-0.2h-13.5c-1.4,0-2.5,0.1-3.6,0.2V890
		c1,0.1,2.1,0.2,3.6,0.2h13.5c1.4,0,2.5-0.1,3.5-0.2V892.4z M672.6,876c1.6,0,2.3,0,3.2-0.2v2.4c-0.9-0.1-1.8-0.2-3.2-0.2h-16.1
		c-0.2,2.5-0.2,2.8-0.5,5.1h16c1.6,0,2.9-0.1,3.6-0.2c-0.1,1-0.2,1.8-0.5,6.5c-0.2,2.2-0.7,5.7-1.1,7.3c-0.9,3.5-1.9,4.4-5.1,4.4
		c-1.6,0-3.2-0.1-6-0.4c-0.2-0.9-0.3-1.3-0.7-2.4c3.1,0.5,5,0.6,6.6,0.6c2,0,2.6-0.5,3.2-3.1c0.7-2.8,1-5.8,1.2-10.8h-16.7
		c-0.3,0-2.1,0.1-3.1,0.1c0.5-2.7,0.8-4.8,1.1-8.5c0.1-1.8,0.2-3.7,0.2-4.7c0-0.3,0-0.5,0-0.9h2.5c-0.1,0.8-0.1,0.8-0.5,4.9H672.6z"
		/>
	<path id="XMLID_1028_" class="st2" d="M696.4,878.1c1.2,0,1.7,0,2.3-0.1v2c-0.6-0.1-1.1-0.1-2.3-0.1h-4.4v0.6
		c2.9,1.4,2.9,1.4,5.3,2.9l-1.1,1.7c-1.5-1.3-1.9-1.6-3.5-2.5c-0.3-0.2-0.4-0.2-0.7-0.4v2.1c0,0.5,0,1,0.1,1.4h-2.2
		c0.1-0.4,0.1-0.9,0.1-1.4v-1.9c0-0.6,0-1,0.1-2c-1.7,2.9-3,4.3-6.4,6.7c-0.5-0.7-0.8-1.1-1.5-1.6c2.4-1.4,3.6-2.4,5-3.9
		c0.5-0.5,0.5-0.6,1.4-1.8h-3.1c-1.2,0-2,0-2.7,0.2V878c0.7,0.1,1.4,0.2,2.7,0.2h4.4v-4.5c0-0.9,0-1.5-0.2-2.3h2.3
		c-0.1,0.7-0.2,1.3-0.2,2.3v4.5H696.4z M695.5,899.6c-1.5-1-2-1.4-3.2-2.1c-1.8,1.6-4.4,2.9-8.6,4.3c-0.3-0.7-0.6-1.2-1.1-1.9
		c3.3-0.8,5.8-1.9,7.8-3.4c-1.7-0.8-2.6-1.2-5.6-2.3c1.2-1.6,1.6-2.1,2.4-3.6h-2.1c-1.1,0-1.8,0-2.4,0.2v-2.1
		c0.6,0.1,1.2,0.2,2.4,0.2h3c0.4-0.7,0.6-1.3,1-2.7l2.1,0.5c-0.5,1.3-0.7,1.7-0.9,2.2h4.7c0.2,0,1,0,2.5-0.1
		c-1.1,3.4-1.9,4.9-3.8,7.3c1.4,0.7,1.7,0.9,3,1.7L695.5,899.6z M685.6,872c1.1,1.7,1.8,2.7,2.5,4.5l-1.8,0.7
		c-0.7-1.8-1.3-2.9-2.4-4.4L685.6,872z M689.3,890.5c-0.4,0.8-0.7,1.3-1.7,2.8c2,0.7,2.6,1,4.3,1.8c1.3-1.4,2.3-3.1,2.9-4.6H689.3z
		 M698.1,872.8c-1.1,2.3-1.8,3.3-2.9,4.8l-1.7-0.8c1.3-1.6,2.1-2.9,2.8-4.8L698.1,872.8z M713.2,879.9c-0.7-0.1-1.3-0.2-2.9-0.2
		c-0.3,5.8-1.5,9.7-3.8,13.4c1.9,2.7,4.3,4.7,7.5,6.4c-0.5,0.7-0.8,1.1-1.2,2.1c-3.1-1.8-5.5-4-7.5-6.7c-2.3,2.8-4.8,4.9-8.6,7
		c-0.4-0.8-0.8-1.3-1.4-1.9c4-1.9,6.7-4.1,8.7-6.9c-1.9-3.1-2.8-5.9-3.5-9.9c-0.8,1.7-1.3,2.4-2.5,3.9c-0.6-0.7-0.9-0.9-1.7-1.3
		c1.8-2.1,3-4.2,4.2-7.3c0.9-2.5,1.6-5.1,1.7-7.3l2.3,0.5c-0.2,0.5-0.2,0.5-0.6,2.1c-0.4,1.8-0.5,2.1-1.1,3.9h7.2
		c1.6,0,2.2,0,3.1-0.2V879.9z M702.2,879.8c-0.1,0.2-0.1,0.3-0.1,0.4c-0.1,0.2-0.1,0.3-0.2,0.4c0.5,3.2,0.5,3.2,1,4.9
		c0.7,2.4,1.4,4.1,2.4,5.8c0.9-1.7,1.4-3,1.9-4.8c0.6-2.2,0.8-3.6,1-6.7H702.2z"/>
	<path id="XMLID_1036_" class="st2" d="M742.6,888.9c1.5,0,2.6-0.1,3.5-0.2v2.4c-1-0.1-2.1-0.2-3.5-0.2h-10v7.7
		c0,2.1-0.9,2.8-3.6,2.8c-1.4,0-2.7-0.1-4.3-0.2c-0.1-0.8-0.2-1.3-0.6-2.3c1.3,0.3,3.4,0.5,4.7,0.5c1.1,0,1.5-0.2,1.5-1v-7.5h-9.8
		c-1.4,0-2.6,0.1-3.5,0.2v-2.4c1,0.1,2.1,0.2,3.5,0.2h9.8v-0.1c0-1,0-1.8-0.2-2.6h1.7c2.4-1.2,3.8-2.1,5.8-3.9h-12.9
		c-1.3,0-2.3,0.1-3.3,0.2v-2.4c0.9,0.1,1.8,0.2,3.3,0.2h13.1c1.2,0,1.9,0,2.5-0.1l1.1,1.4c-0.4,0.4-0.5,0.4-1.3,1.1
		c-2.5,2.1-4.4,3.4-7.6,5.1v1H742.6z M742.1,875c1.4,0,2.4,0,3.6-0.2c-0.1,0.8-0.2,1.5-0.2,2.6v1.9c0,0.8,0.1,1.6,0.2,2.4h-2.3v-4.8
		h-23.8v4.8h-2.3c0.1-0.8,0.2-1.6,0.2-2.4v-1.9c0-1,0-1.7-0.2-2.6c1.2,0.1,2.2,0.2,3.6,0.2h9.7c-1-1.7-1.3-2.1-2.2-3.2l1.9-1.1
		c1.4,2,1.5,2,2.7,4.4H742.1z"/>
	<path id="XMLID_1039_" class="st2" d="M768.8,875.1v-1.3c0-0.8-0.1-1.6-0.2-2.4h2.5c-0.1,0.8-0.2,1.6-0.2,2.4v1.3h5.4
		c1.8,0,2.8-0.1,3.8-0.2v2.4c-0.9-0.1-2.1-0.2-3.8-0.2h-5.4v1c0,0.8,0.1,1.4,0.2,2.2h-2.4c0.1-0.7,0.1-1.3,0.1-2.2v-1h-7.7v1
		c0,0.9,0,1.6,0.1,2.2h-2.5c0.1-0.8,0.2-1.5,0.2-2.2v-1h-4.9c-1.7,0-2.8,0-3.8,0.2v-2.4c1,0.1,2,0.2,3.8,0.2h4.9v-1.3
		c0-0.8-0.1-1.6-0.2-2.4h2.5c-0.1,0.8-0.2,1.5-0.2,2.4v1.3H768.8z M773.7,884.3c-1.8,0.6-2,0.7-3.3,1.4c-2.7,1.5-7.8,4.4-8.9,5.1
		c-4.1,2.7-5.9,4.7-5.9,6.3c0,1.1,0.6,1.5,2.7,1.7c1.5,0.1,4.7,0.2,9.2,0.2c2.4,0,4.5-0.1,5.7-0.4c1.2-0.2,1.9-0.8,2.3-1.9
		c0.2-0.6,0.3-1.3,0.5-3.3c1,0.5,1.4,0.6,2.3,0.9c-0.4,3.3-0.9,4.7-2.1,5.5c-1.4,0.9-3.5,1.2-11.4,1.2c-5.4,0-7.9-0.2-9.4-0.6
		c-1.3-0.4-2.2-1.5-2.2-2.9c0-2.4,2.1-4.8,7.1-8.1c1.9-1.2,3.1-2,4.9-3c1.8-1.1,1.8-1.1,3.2-1.9h-10.9c-1.4,0-2.2,0-3,0.2v-2.2
		c0.9,0.1,1.5,0.2,3,0.2h12c1.7,0,2.2,0,2.9-0.2L773.7,884.3z"/>
	<path id="XMLID_1042_" class="st2" d="M813.6,881.2c-1.4-0.1-2.5-0.2-3.8-0.2h-9.7c1.8,3,3.3,4.8,5.8,7.4c2.8,2.9,5,4.6,8.7,6.7
		c-0.9,0.9-1.2,1.2-1.7,2.1c-2.3-1.6-3.1-2.2-5.6-4.4c-2.3-2-3.2-3.1-5-5.5c0,0-0.1-0.1-0.2-0.3c-1-1.3-1.4-1.9-2.4-3.8
		c0.1,1.6,0.1,2.5,0.1,3.9V898c0,1.7,0.1,2.7,0.2,3.9h-2.7c0.2-1.3,0.2-2.3,0.2-3.9v-10.9c0-0.2,0.1-1.4,0.2-3.8
		c-1.7,3.4-3.1,5.4-6.2,8.5c-2.1,2.1-3.9,3.6-6.6,5.5c-0.6-0.9-1-1.4-1.7-2c3.8-2.4,6.4-4.6,9.6-8.2c2-2.3,2.9-3.5,4.4-6.1h-9.1
		c-1.3,0-2.2,0-3.7,0.2v-2.4c1.2,0.2,2.2,0.2,3.7,0.2h9.4v-4.4c0-1.1-0.1-2-0.2-3.1h2.7c-0.2,1.1-0.2,2-0.2,3.1v4.4h9.9
		c1.8,0,2.7-0.1,3.8-0.2V881.2z M804.9,872.5c2.5,1.5,3,1.9,5.2,3.8l-1.5,1.7c-1.9-1.9-2.7-2.5-5.2-4L804.9,872.5z"/>
	<path id="XMLID_1045_" class="st2" d="M821.7,892c-1.5,0-2.5,0.1-3.5,0.2v-2.3c1,0.1,2.1,0.2,3.5,0.2h10.2v-0.6c0-0.7,0-1.3-0.1-2
		h1.4c2.3-1.1,4.3-2.3,6-3.8h-12.4c-1.1,0-2.3,0.1-3.2,0.2v-2.2c0.9,0.1,2,0.2,3.3,0.2h12.2c1.2,0,1.9,0,2.5-0.1l1.3,1.4
		c-0.4,0.3-0.4,0.3-1.2,1c-2.3,1.9-4.4,3.3-7.7,5v1h10c1.5,0,2.6-0.1,3.5-0.2v2.3c-0.9-0.1-2.1-0.2-3.6-0.2h-10v7.1
		c0,2.1-0.6,2.5-3.9,2.5c-1,0-2.5-0.1-3.8-0.2c-0.2-1-0.4-1.4-0.7-2.2c1.8,0.2,3.2,0.3,4.5,0.3c1.5,0,1.7-0.1,1.7-0.8V892H821.7z
		 M832.1,876.7c-0.6-1.7-1.3-3.1-2.5-4.9l2.1-0.6c1.3,2.3,1.8,3.4,2.6,5.4h3.7c1.5-1.7,2.5-3.3,3.5-5.4l2.1,0.9
		c-1.4,2.2-2.3,3.4-3.2,4.5h2.6c2,0,2.7,0,3.9-0.1c-0.1,0.9-0.1,1.6-0.1,2.8v2.5c0,0.8,0.1,1.6,0.2,2.4h-2.2v-5.7h-23.9v5.7h-2.2
		c0.1-0.8,0.2-1.5,0.2-2.4v-2.5c0-1.2,0-1.9-0.1-2.8c1.2,0.1,2,0.2,3.9,0.2h2.4c-0.9-1.6-1.6-2.6-3.2-4.4l2-0.6c1.6,1.9,2.3,3,3.4,5
		H832.1z"/>
	<path id="XMLID_1048_" class="st2" d="M852.6,874.9c0-0.9,0-1.7-0.1-2.6c0.5,0.1,1.2,0.1,2.3,0.1h4.6c1.1,0,1.6,0,2.1-0.1l1,1.2
		c-0.1,0.2-0.3,0.6-0.5,1.1c-1.2,3.2-2.2,5.2-3.5,7.8c1.6,2,2.3,2.9,2.8,4.4c0.5,1.2,0.7,2.6,0.7,4c0,1.9-0.6,3-1.8,3.3
		c-0.7,0.2-1.5,0.3-2.6,0.3c-0.4,0-0.6,0-1.2,0c-0.1-0.9-0.2-1.5-0.5-2.2c0.9,0.2,1.4,0.2,2.2,0.2c1.6,0,1.9-0.3,1.9-1.8
		c0-1.6-0.4-3.1-1.2-4.6c-0.5-0.9-1.2-1.9-2.6-3.3c1.7-3,2.6-5.2,3.7-8.3h-5.2v24.4c0,1.4,0,2.2,0.2,3.1h-2.4
		c0.1-0.9,0.2-1.9,0.2-3.1V874.9z M865.7,887.8c-1.3,0-2.1,0-3.1,0.2v-2.2c0.9,0.1,1.9,0.2,3.1,0.2h12.7c1.4,0,2.3-0.1,3.2-0.2v2.2
		c-0.9-0.1-1.9-0.2-3.2-0.2H875v10.6c0,0.7,0.4,0.8,2.4,0.8c2.4,0,2.4,0,2.7-5.3c0.8,0.5,1.1,0.6,2,0.8c-0.5,5.9-0.9,6.5-4.7,6.5
		c-3.8,0-4.6-0.4-4.6-2.1v-11.4h-3.5c-0.2,3.1-0.3,3.9-0.8,5.6c-0.7,2.4-2.1,4.5-4.2,5.9c-1.3,0.9-2.5,1.6-4.7,2.4
		c-0.5-0.7-1-1.3-1.5-1.8c4.3-1.5,6.1-2.6,7.5-4.9c1.1-1.8,1.5-3.6,1.6-7.3H865.7z M878.1,875.1c1.2,0,2.3-0.1,3.2-0.2
		c-0.1,0.7-0.1,1-0.1,2.2v2.2c0,1,0,1.5,0.1,2.3h-2.2V877h-14.9v4.6h-2.1c0.1-0.9,0.1-1.2,0.1-2.3v-2.2c0-1,0-1.2-0.1-2.1
		c1.2,0.1,2.2,0.2,3.6,0.2h5c-1-1.8-1.1-2-2-3.1l1.7-1c0.9,1.3,1.7,2.4,2.6,4.1H878.1z M865.4,880.4c0.8,0.1,1.4,0.1,2.6,0.1h7.8
		c1.2,0,1.7,0,2.5-0.1v2.1c-0.9-0.1-1.6-0.1-2.5-0.1h-7.8c-0.9,0-1.8,0-2.5,0.1V880.4z"/>
</g>
<path id="XMLID_79_" class="st2" d="M959.8,917.2H503.1V859h456.7V917.2z M505.1,915.2h452.7V861H505.1V915.2z"/>
</svg>
