<?xml version="1.0" encoding="utf-8"?>
<!-- Generator: Adobe Illustrator 19.0.0, SVG Export Plug-In . SVG Version: 6.00 Build 0)  -->
<svg version="1.1" id="图层_3" xmlns="http://www.w3.org/2000/svg" xmlns:xlink="http://www.w3.org/1999/xlink" x="0px" y="0px"
	 viewBox="0 0 1465.2 1257.5" style="enable-background:new 0 0 1465.2 1257.5;" xml:space="preserve">
<style type="text/css">
	.st0{fill:#E1AD0B;}
	.st1{fill:#EAEAEA;}
	.st2{fill:#1C1B20;}
</style>
<polygon id="XMLID_1069_" class="st0" points="830.3,435.5 550,435.5 634,380.1 914.3,380.1 "/>
<polygon id="XMLID_1066_" class="st1" points="922.1,935.8 476.9,935.8 542.2,892.7 987.4,892.7 "/>
<g id="XMLID_1053_">
	<path id="XMLID_1111_" class="st2" d="M660.4,414.1c-1.7,0-3,0.1-4.2,0.2v-2.7c1.2,0.2,2.4,0.2,4.1,0.2h12v-0.7
		c0-0.8,0-1.5-0.1-2.3h1.7c2.7-1.3,5-2.7,7.1-4.5h-14.5c-1.4,0-2.7,0.1-3.8,0.2v-2.6c1.1,0.1,2.4,0.2,3.9,0.2h14.3
		c1.5,0,2.3,0,2.9-0.2l1.5,1.6c-0.5,0.4-0.5,0.4-1.4,1.2c-2.7,2.2-5.1,3.9-9.1,5.9v1.2h11.8c1.8,0,3.1-0.1,4.2-0.2v2.7
		c-1.1-0.2-2.5-0.2-4.2-0.2h-11.8v8.3c0,2.5-0.7,2.9-4.6,2.9c-1.2,0-3-0.1-4.5-0.2c-0.3-1.2-0.4-1.7-0.8-2.5
		c2.1,0.3,3.8,0.4,5.3,0.4c1.7,0,2-0.1,2-0.9v-8H660.4z M672.7,396.1c-0.7-2-1.5-3.7-2.9-5.7l2.5-0.7c1.5,2.7,2.1,4,3,6.4h4.4
		c1.8-2,3-3.9,4.1-6.4l2.5,1.1c-1.6,2.6-2.7,4.1-3.8,5.3h3.1c2.3,0,3.2,0,4.6-0.2c-0.1,1-0.2,1.8-0.2,3.3v2.9c0,0.9,0.1,1.9,0.2,2.8
		h-2.6v-6.7h-28.1v6.7h-2.6c0.1-0.9,0.2-1.8,0.2-2.8v-2.9c0-1.5,0-2.3-0.2-3.3c1.5,0.2,2.3,0.2,4.5,0.2h2.8c-1-1.9-1.9-3.1-3.7-5.2
		l2.4-0.8c1.8,2.2,2.7,3.6,4.1,5.9H672.7z"/>
	<path id="XMLID_1421_" class="st2" d="M696.8,394c0-1.1,0-2-0.1-3c0.6,0.1,1.5,0.1,2.7,0.1h5.4c1.3,0,1.8,0,2.4-0.2l1.2,1.4
		c-0.1,0.2-0.4,0.7-0.6,1.3c-1.5,3.7-2.6,6.2-4.1,9.1c1.9,2.3,2.7,3.4,3.3,5.1c0.6,1.5,0.9,3.1,0.9,4.7c0,2.3-0.7,3.5-2.1,3.9
		c-0.8,0.2-1.8,0.3-3.1,0.3c-0.5,0-0.8,0-1.4,0c-0.1-1.1-0.3-1.7-0.6-2.5c1,0.2,1.7,0.2,2.6,0.2c1.8,0,2.2-0.4,2.2-2.1
		c0-1.8-0.5-3.7-1.4-5.4c-0.6-1.1-1.4-2.2-3-3.9c1.9-3.6,3.1-6.2,4.4-9.8h-6.2V422c0,1.6,0,2.5,0.2,3.7h-2.9
		c0.2-1.1,0.2-2.2,0.2-3.7V394z M712.2,409.2c-1.5,0-2.5,0-3.6,0.2v-2.6c1,0.2,2.2,0.2,3.7,0.2h14.9c1.6,0,2.7-0.1,3.8-0.2v2.6
		c-1.1-0.2-2.2-0.2-3.8-0.2h-4v12.5c0,0.8,0.5,1,2.9,1c2.8,0,2.8,0,3.2-6.2c1,0.6,1.4,0.8,2.4,1c-0.6,7-1,7.6-5.5,7.6
		c-4.4,0-5.4-0.4-5.4-2.5v-13.4h-4.2c-0.2,3.7-0.4,4.6-0.9,6.6c-0.8,2.9-2.5,5.2-5,7c-1.5,1.1-2.9,1.8-5.5,2.8
		c-0.6-0.9-1.2-1.5-1.8-2.1c5-1.7,7.2-3.1,8.8-5.8c1.3-2.1,1.7-4.2,1.9-8.5H712.2z M726.9,394.3c1.4,0,2.7-0.1,3.8-0.2
		c-0.1,0.8-0.1,1.2-0.1,2.5v2.6c0,1.2,0,1.8,0.2,2.7h-2.6v-5.4h-17.5v5.4h-2.5c0.1-1,0.1-1.4,0.1-2.7v-2.6c0-1.2,0-1.4-0.1-2.5
		c1.4,0.2,2.5,0.2,4.2,0.2h5.8c-1.2-2.1-1.4-2.3-2.3-3.6l1.9-1.2c1.1,1.5,1.9,2.8,3,4.8H726.9z M711.8,400.5c1,0.1,1.6,0.2,3,0.2
		h9.2c1.4,0,2,0,2.9-0.2v2.5c-1-0.1-1.8-0.2-2.9-0.2h-9.2c-1.1,0-2.1,0-3,0.2V400.5z"/>
	<path id="XMLID_1426_" class="st2" d="M757.6,398.4c0.1,1.9,0.4,4.7,0.7,7c0.5,2.9,1,4.8,1.9,7.3c2.3-3.2,4.5-8,4.9-10.9l2.7,1.1
		c-0.1,0.2-0.6,1.4-1.5,3.5c-1.9,4.4-2.7,6-4.9,8.9c1.2,2.3,2,3.5,3.4,4.8c1.1,1,1.8,1.4,2.3,1.4c0.6,0,1.3-2,1.8-5.7
		c0.8,0.8,1.4,1.3,2.1,1.7c-0.5,2.6-0.8,3.7-1.4,4.8c-0.6,1.3-1.4,1.9-2.5,1.9c-1,0-2.6-0.9-4.2-2.5c-1.2-1.2-2.2-2.6-3.3-4.5
		c-3.4,3.6-6.4,5.8-11,7.9c-0.6-1-1-1.4-1.9-2c5-2,8.5-4.5,11.8-8.2c-1.8-4.3-3-9.7-3.4-16.5h-14c0,3.1,0,3.5-0.1,6.5h7.6
		c1.4,0,2.1,0,3-0.2c-0.1,0.8-0.1,0.8-0.3,4.5c-0.2,4.5-0.6,7.4-1.2,8.5c-0.6,1.2-1.5,1.6-3.7,1.6c-1.3,0-2.4-0.1-4.1-0.4
		c-0.1-1-0.2-1.6-0.5-2.6c2.2,0.5,3.3,0.6,4.6,0.6c1.4,0,1.7-0.3,2-1.8c0.3-1.6,0.5-4.7,0.6-8.1h-7.9c-0.3,6-0.5,7.9-1.3,11
		c-0.7,2.8-1.4,4.5-3,7c-0.7-0.8-1.3-1.3-2.1-1.8c1.5-2.1,2.2-3.7,2.8-6c0.9-3.7,1.3-9,1.3-17c0-2.2,0-3.1-0.2-4.3
		c1.4,0.2,2.8,0.2,4.8,0.2h11.7c0-0.4,0-1-0.1-1.7c-0.1-3.4-0.2-3.9-0.3-4.7h3.1c-0.2,0.8-0.2,1.7-0.2,3.2c0,0.6,0,2.4,0.1,3.3h8.7
		c2.2,0,3.3,0,4.3-0.2v2.7c-1.2-0.2-2.3-0.2-4.5-0.2H757.6z M765.6,395.5c-2.2-2.1-3.1-2.7-5.7-4.2l1.7-1.4c2.6,1.5,3.1,1.8,5.7,3.9
		L765.6,395.5z"/>
	<path id="XMLID_1429_" class="st2" d="M793.6,410.2h12.7c1.8,0,2.8-0.1,4.1-0.3v2.8c-1.3-0.2-2.4-0.2-4.1-0.2h-11.1
		c3.9,4.4,9.4,7.7,15.7,9.4c-0.7,1-1,1.5-1.4,2.5c-3.9-1.4-7.1-3-9.9-5c-2.4-1.7-3.7-3-6.1-5.7c0.1,2.1,0.1,2.4,0.1,3.1v4.6
		c0,2.1,0,3.1,0.3,4.3h-3c0.2-1.3,0.3-2.3,0.3-4.3v-4.6c0-0.8,0-1.9,0.1-3.1c-3.9,4.8-8.7,8.3-14.9,10.8c-0.5-1-1-1.6-1.6-2.3
		c2.8-0.9,5.8-2.4,8.3-4c2.8-1.9,4.6-3.5,6.4-5.8h-10.3c-1.6,0-2.7,0.1-3.9,0.2V410c1.1,0.2,2.1,0.3,3.9,0.3h12.1v-3.6h-7.1
		c-2.4,0-3.6,0-4.7,0.2c0.2-1.2,0.2-2,0.2-4.4v-6.9c0-2.3,0-3-0.2-4.3c1,0.2,2.2,0.2,4.5,0.2h17.6c2.5,0,3.5,0,4.7-0.2
		c-0.2,1.2-0.2,1.9-0.2,4.4v6.8c0,2.5,0,3.1,0.2,4.4c-1.1-0.2-2.3-0.2-4.7-0.2h-7.9V410.2z M791.1,393.7H782v4.3h9.1V393.7z
		 M791.1,400.1H782v4.4h9.1V400.1z M803.5,398v-4.3h-9.9v4.3H803.5z M803.5,404.5v-4.4h-9.9v4.4H803.5z"/>
</g>
<g id="XMLID_1057_">
	<path id="XMLID_1435_" class="st2" d="M592.1,912.6h-2c-1.2,0-1.8,0-2.7,0.1v-3.5c0.9,0.1,1.5,0.1,3,0.1H602v-3.2
		c0.8,0.1,1.5,0.1,3,0.1h2.1c0-1.1,0-1.6,0-3.7c0-1.2,0-1.9-0.2-2.8h3.8c-0.2,1-0.2,1-0.3,6.5h2.8c1.7,0,2.4,0,3.3-0.1
		c-0.1,0.8-0.1,2.3-0.2,6.1c-0.1,6.5-0.5,10.3-1.1,13.1c-0.7,2.9-1.5,3.5-4.6,3.5c-0.8,0-1.5,0-2.7-0.1c-0.1-1.5-0.2-2.1-0.7-3.5
		c1.3,0.3,2.2,0.4,3,0.4c1.2,0,1.5-0.3,1.8-2c0.6-3,0.8-5.9,1-14.1h-2.7c-0.2,3.6-0.6,6.2-1,8.2c-0.9,3.6-2.1,6.5-4.1,9.4
		c-0.6,0.8-1,1.3-2,2.5c-0.2-0.3-0.4-0.5-1-1.2c-0.9-1-0.9-1-1.9-1.5c1.2-1.1,1.6-1.5,2.7-3l-3.1,1.2c-0.1-0.7-0.2-0.9-0.3-1.4
		c-1.7,0.5-2,0.6-5.7,1.3c-2.9,0.6-2.9,0.6-3.6,0.8c-0.9,0.2-0.9,0.2-1.3,0.3l-1-3.3c1.1-0.3,1.5-0.7,2-1.9
		C590.9,918.5,591.5,915.9,592.1,912.6z M588.9,901.3c0.8,0.1,1.3,0.2,2.6,0.2h7.7c1.2,0,1.7,0,2.5-0.2v3.5
		c-0.8-0.1-1.3-0.2-2.4-0.2h-7.9c-1.2,0-1.7,0-2.5,0.2V901.3z M595.7,912.6c-0.1,0.6-0.2,0.9-0.2,1.2c-0.6,3-1.3,5.6-2.3,8.3
		c1.7-0.4,3.2-0.7,5.4-1.4c-0.4-1.2-0.7-2-1.6-4.7l3-1c1.4,3.3,2.3,6.1,3.1,8.9c1.2-1.8,1.9-3.3,2.6-5.7c0.6-2.2,1-5,1.2-8.5H605
		c-0.1,0-0.5,0-1.1,0c-0.2,0-0.4,0-0.7,0v3.1c-0.9-0.1-1.5-0.1-2.7-0.1H595.7z"/>
	<path id="XMLID_1439_" class="st2" d="M620.1,900.3c1.2,0.1,2.4,0.2,3.9,0.2h21.4c1.5,0,2.7-0.1,4-0.2v3.6c-1.2-0.1-2.6-0.2-4-0.2
		h-21.4c-1.5,0-2.7,0.1-4,0.2V900.3z M645,909.9c0-1.3,0-2-0.2-2.8h3.8c-0.1,1.1-0.2,2.5-0.2,3.6v14.6c0,1.7,0.1,3,0.2,4.4H645v-1.2
		h-20.3c-1.4,0-2.6,0.1-4,0.2c0.2-1.5,0.2-2.4,0.2-3.9v-14.6c0-1.1,0-1.9-0.2-3.1h3.9c-0.1,0.8-0.2,1.4-0.2,2.8v15.3H645V909.9z
		 M626.7,908.6c0-1,0-1.6-0.1-2.4c0.7,0.1,1.5,0.1,2.7,0.1h10.9c1.2,0,1.9,0,2.7-0.1c-0.1,0.7-0.1,1.4-0.1,2.4v11.6
		c0,1.2,0,1.7,0.1,2.4c-0.8-0.1-1.4-0.1-2.9-0.1h-10.5c-1.6,0-2.1,0-2.9,0.1c0.1-0.8,0.1-1.2,0.1-2.4V908.6z M629.8,909.3v3.7h3.2
		v-3.7H629.8z M629.8,916v3.7h3.2V916H629.8z M636.3,913h3.3v-3.7h-3.3V913z M636.3,919.6h3.3V916h-3.3V919.6z"/>
	<path id="XMLID_1447_" class="st2" d="M673.2,921.2c-1.2-0.1-2.6-0.2-3.9-0.2h-12.7c-1.5,0-2.8,0.1-4.1,0.2v-3.7
		c1.2,0.1,2.5,0.2,4.2,0.2h12.7c1.4,0,2.7-0.1,3.9-0.2V921.2z M674.9,903.5c1.9,0,2.8,0,4-0.2v3.7c-1-0.1-2.1-0.2-3.8-0.2h-13.8
		c-0.1,1.3-0.1,1.4-0.4,3.8h14.6c1.6,0,2.6,0,3.3-0.2c-0.1,0.9-0.1,0.9-0.2,3.3c-0.4,6.4-0.9,10.2-1.8,12.3c-1,2.4-2.2,3-5.8,3
		c-1.5,0-2.4-0.1-5.2-0.3c-0.3-1.5-0.8-3-1.2-3.9c3.8,0.5,4.8,0.6,6.6,0.6c1.9,0,2.2-0.3,2.7-2.8c0.5-2.3,0.7-4.4,1-8.9h-13.1
		c-1.3,0-3.1,0.1-5,0.2c0.6-3.3,0.8-4.6,1.1-7.3c0.2-2.4,0.3-4.4,0.3-5.6c0-0.3,0-0.6,0-0.8c0-0.6,0-0.6,0-0.8l4,0
		c-0.1,0.5-0.1,0.9-0.2,1.5c0,0.2-0.1,0.8-0.1,1.7c0,0.2,0,0.3-0.1,0.6H674.9z"/>
	<path id="XMLID_1450_" class="st2" d="M694.9,912.6c0,0.4,0,0.8,0.1,1.2h-3.5c0.1-0.4,0.1-0.7,0.1-1.1v-1.2c0-0.3,0-0.8,0.1-1.4
		c-1.8,2.4-2.8,3.4-5.3,5.1c-0.7-1.2-1.1-1.7-2.1-2.7c2.6-1.3,4.1-2.5,5.2-4.1h-1.8c-1.2,0-2,0-2.7,0.2v-3.1
		c0.7,0.1,1.5,0.2,2.7,0.2h3.9v-3.8c0-1,0-1.6-0.2-2.2h3.6c-0.1,0.6-0.2,1.2-0.2,2.1v3.9h4c1,0,1.7,0,2.1-0.1v3
		c-0.5-0.1-1.1-0.1-2.1-0.1H696c1.5,0.8,2.7,1.6,3.8,2.4l-1.6,2.6c-0.7-0.7-0.7-0.7-2.2-1.9c-0.1,0-0.2-0.2-0.5-0.4
		c-0.1-0.1-0.3-0.2-0.5-0.4V912.6z M697.3,916.1c0.8,0,2-0.1,2.5-0.2c-0.3,0.9-0.3,0.9-0.7,2.3c-0.3,1.3-1,3.2-1.6,4.1
		c-0.2,0.4-0.3,0.5-0.7,1.1c0.8,0.4,1.2,0.6,2.3,1.3l-1.9,3c-1.2-0.9-1.7-1.2-2.7-1.8c-1.8,1.6-4.5,2.9-8.1,3.8
		c-0.4-1-0.7-1.7-1.8-3c2.9-0.5,5.2-1.3,6.8-2.3c-1.9-0.8-2.7-1.2-5.1-2c1-1.4,1.2-1.6,2.1-3.2h-0.7c-1,0-1.9,0-2.8,0.1V916
		c0.8,0.1,1.6,0.1,2.9,0.1h2.1c0.3-0.6,0.5-1.1,0.8-2.3l3.4,0.7c-0.3,0.8-0.4,1-0.7,1.6H697.3z M688.6,899.9
		c1.2,1.8,1.6,2.6,2.3,4.3l-2.9,1.1c-0.6-1.8-1.2-2.8-2.2-4.3L688.6,899.9z M692,919c-0.2,0.5-0.5,0.8-1.1,1.9
		c1.3,0.5,1.3,0.5,3.2,1.2c0.7-0.9,1.2-1.9,1.7-3.1H692z M700.8,901c-1.2,2.4-1.5,2.9-2.5,4.4l-2.8-1.2c1-1.4,1.8-2.8,2.3-4.4
		L700.8,901z M714.9,908.4c-0.6-0.1-0.8-0.1-2.3-0.1c-0.2,5.2-1.3,9.3-3.3,12.7c1.7,2.2,3.7,3.8,6.2,5.1c-0.7,1-1.3,2-1.9,3.4
		c-2.4-1.4-4.8-3.5-6.3-5.6c-2.1,2.4-4.5,4.4-7.4,5.8c-0.7-1.7-0.9-2.2-1.8-3.2c1.9-0.9,2.6-1.3,3.8-2.2c1.4-1,2.5-2.1,3.4-3.2
		c-1.5-2.8-2.2-4.6-2.7-7.6c-0.5,0.8-0.8,1.3-1.5,2.1c-0.7-0.9-1.4-1.7-2.3-2.3c2-2.5,3.4-5.4,4.4-9.4c0.4-1.5,0.7-3.5,0.8-4.4
		l3.6,0.7c-0.1,0.4-0.2,0.7-0.5,1.8c-0.2,0.9-0.5,2.1-0.8,3.2h5.7c1.6,0,2.3,0,3.1-0.2V908.4z M705.1,908.3c-0.1,0.3-0.2,0.4-0.4,1
		c0.5,3.3,1.3,6.1,2.6,8.5c1.3-2.8,1.9-5.5,2-9.6H705.1z"/>
	<path id="XMLID_1458_" class="st2" d="M734.2,925.5c0,1.6-0.4,2.6-1.3,3.1c-0.7,0.4-1.6,0.6-3.3,0.6c-1.2,0-2.2-0.1-3.9-0.2
		c-0.2-1.3-0.3-1.7-1-3.4c1.6,0.2,3.3,0.4,4.5,0.4c1.2,0,1.6-0.2,1.6-0.9v-5.3h-8.9c-1.5,0-2.9,0.1-4,0.2v-3.7
		c1.2,0.1,2.5,0.2,4,0.2h8.9v-0.2c0-0.7,0-1.4-0.1-2.1h1.7c1.6-0.8,2.9-1.7,4-2.8H726c-1.5,0-2.4,0.1-3.4,0.2v-3.5
		c0.9,0.1,1.9,0.2,3.4,0.2h11.9c1.2,0,1.9,0,2.5-0.1l1.7,2.2c-0.6,0.5-0.8,0.7-1.3,1.1c-2.4,2.1-4.3,3.5-6.7,4.8v0.2h8.6
		c1.6,0,2.9-0.1,4-0.2v3.7c-1-0.1-2.5-0.2-4-0.2h-8.6V925.5z M730.1,902.7c-0.4-0.8-0.6-1.2-1.4-2.3l3.7-1.3
		c0.9,1.6,1.2,2.2,1.8,3.6h8.3c1.7,0,2.5,0,3.7-0.1c-0.1,0.8-0.1,1.5-0.1,2.6v2.6c0,0.9,0.1,1.7,0.2,2.5h-3.6v-4.3h-21.1v4.3h-3.6
		c0.1-0.7,0.2-1.5,0.2-2.5v-2.6c0-1,0-1.8-0.2-2.6c1.2,0.1,2.1,0.1,3.7,0.1H730.1z"/>
	<path id="XMLID_1461_" class="st2" d="M757.7,901.8c0-0.6-0.1-1.3-0.2-1.9h3.8c-0.1,0.6-0.2,1.3-0.2,1.9v1.1h6.5v-1.1
		c0-0.8,0-1.3-0.2-1.9h3.8c-0.1,0.6-0.2,1.1-0.2,1.9v1.1h4.4c1.6,0,2.6-0.1,3.8-0.2v3.6c-1-0.1-1.9-0.2-3.8-0.2h-4.4v0.6
		c0,0.7,0,1,0.1,1.8h-3.7c0.1-0.7,0.1-1.1,0.1-1.8v-0.5h-6.5v0.5c0,0.8,0,1,0.1,1.8h-3.7c0.1-0.6,0.1-1,0.1-1.8v-0.6h-4
		c-1.9,0-2.8,0-3.8,0.2v-3.6c1.3,0.1,2.2,0.2,3.8,0.2h4V901.8z M756.8,913.3c-1.7,0-2.4,0-3.4,0.2v-3.4c1,0.1,1.8,0.2,3.4,0.2h11.6
		c1.9,0,2.5,0,3.2-0.2l1.9,2.7c-5.1,2.2-6.9,3.1-11.4,5.9c-3.2,2-4.1,2.6-5,3.6c0,0.1-0.1,0.1-0.1,0.1c-0.4,0.5-0.5,0.7-0.5,1.2
		c0,0.7,0.4,1.1,1.2,1.4c1,0.3,3.6,0.5,6.5,0.5c3.1,0,6.5-0.3,7.5-0.6c1-0.3,1.6-1,1.9-2.3c0.2-0.7,0.3-1.5,0.4-3.5
		c1.5,0.7,2.3,1,3.7,1.2c-0.4,3.9-0.8,5.4-2,6.5c-1.5,1.4-4.4,1.9-11.2,1.9c-4.2,0-6.8-0.3-8.8-0.9c-1.9-0.7-2.9-1.8-2.9-3.6
		c0-2.1,1.2-3.9,4.5-6.1c1.1-0.7,3.1-2,4.5-2.8c0.6-0.4,1.3-0.7,2.6-1.3c0.3-0.1,0.5-0.2,0.7-0.3c0.5-0.2,0.8-0.4,1.3-0.6H756.8z"/>
	<path id="XMLID_1464_" class="st2" d="M811.5,910.2c-1.3-0.2-2.4-0.2-3.9-0.2h-7.6c1.8,2.9,3.2,4.6,5.3,6.6c2.2,2,4.2,3.4,7.4,5.1
		c-1.3,1.4-1.5,1.7-2.5,3.4c-3.5-2.5-4.9-3.6-6.5-5.2c-2-2.1-3.3-3.8-5.1-6.8c0.2,1.5,0.3,3,0.3,4v8.1c0,1.7,0.1,2.8,0.2,4h-4.2
		c0.2-1.3,0.2-2.4,0.2-4.1v-8.1c0-0.8,0.1-1.9,0.2-3.9c-1.5,2.8-2.7,4.5-4.5,6.4c-1.9,2-3.6,3.4-6.7,5.5c-0.8-1.6-1.4-2.3-2.4-3.3
		c2.8-1.6,4.7-3,7-5.2c2.4-2.2,3.8-4.1,5.3-6.8h-7.2c-1.5,0-2.6,0.1-3.9,0.2v-3.8c1.3,0.2,2.3,0.2,3.9,0.2h8.3v-3.9
		c0-1.3-0.1-2-0.2-3h4.2c-0.2,1-0.2,1.8-0.2,3v3.9h8.7c1.7,0,2.8-0.1,3.9-0.2V910.2z M805.9,906.6c-1.8-2.2-2.5-2.9-5-4.7l2.5-2.2
		c2.6,1.9,3.2,2.4,5.1,4.5L805.9,906.6z"/>
	<path id="XMLID_1467_" class="st2" d="M828,917.2c0-0.6,0-1.2-0.1-1.8h1.4c1.4-0.7,2.5-1.4,3.8-2.6h-8.9c-1.3,0-2.2,0-3.2,0.1v-3.2
		c1,0.1,1.9,0.2,3.3,0.2h10.8c1.3,0,1.9,0,2.5-0.1l1.8,2c-0.5,0.4-0.5,0.4-1.2,1c-2.3,2-4,3.2-6.5,4.7v0h8.5c1.6,0,3-0.1,4-0.2v3.6
		c-0.9-0.1-2.3-0.2-4-0.2h-8.4v5.7c0,1.1-0.1,1.6-0.4,2c-0.6,0.8-1.6,1.1-4.9,1.1c-0.3,0-1.2,0-2.9-0.1c-0.4-1.7-0.5-2.3-1.1-3.4
		c1.6,0.2,3,0.3,4,0.3c1.4,0,1.7-0.1,1.7-0.7v-4.8h-8.8c-1.7,0-3,0.1-4,0.2v-3.6c1.1,0.2,2.4,0.2,3.9,0.2h8.8V917.2z M828.1,904.5
		c-0.6-1.5-1.1-2.7-2-4.1l3.4-0.9c1.3,2.4,1.6,3.2,2.2,5h2.8c0.3-0.4,0.6-0.7,1-1.5c1-1.7,1.2-2.2,1.7-3.4l3.5,1
		c-0.7,1.4-1.9,3.2-2.4,3.9h1.5c2.2,0,2.8,0,4-0.1c-0.1,0.8-0.1,1.5-0.1,2.7v3c0,0.9,0.1,1.7,0.2,2.5h-3.5v-5H819v5h-3.5
		c0.1-0.7,0.2-1.5,0.2-2.5v-3c0-1.2,0-1.9-0.1-2.7c1.5,0.1,1.7,0.1,3.8,0.1h1.5c-0.7-1.4-1.2-2.1-2.4-3.7l3.3-1
		c1.1,1.3,2.1,2.9,3,4.6H828.1z"/>
	<path id="XMLID_1470_" class="st2" d="M858.9,902.2c-0.1,0.2-0.1,0.3-0.2,0.6c0.4,0,1.3,0.1,2.4,0.1h4.2c-0.3-0.8-0.6-1.3-1.3-2.3
		l3.3-1.2c0.8,1.5,1.2,2.2,1.7,3.5h4.8c1.2,0,2,0,2.9-0.2c-0.1,0.7-0.1,1.1-0.1,2.3v2.6c0,1,0,1.6,0.1,2.4h-3.1v1.5
		c-0.8-0.1-1.6-0.1-2.5-0.1h-7.6c-1,0-1.8,0-2.6,0.1v-1.6h-3c0-0.2,0-0.2,0.1-0.6c0-0.3,0.1-1.2,0.1-1.9V905c0-0.2,0-0.4,0-0.6
		c-0.1,0.2-0.1,0.2-0.1,0.4c-0.7,2.1-0.7,2.1-2.4,5.9c1.2,1.8,1.6,2.7,2,3.8c0.5,1.3,0.7,2.8,0.7,4.1c0,1.9-0.8,3.2-2.3,3.6
		c-0.7,0.2-1.8,0.3-3.2,0.4c-0.1-1.8-0.3-2.6-0.8-3.5c0.7,0.1,1.1,0.1,1.7,0.1c1.1,0,1.3-0.2,1.3-1.4c0-1.1-0.4-2.5-1.2-3.9
		c-0.4-0.8-0.9-1.5-1.9-2.8c1-2.1,2-4.7,2.7-7.3h-3.2v22.2c0,1.7,0,2.6,0.2,3.7H848c0.1-1,0.2-2.2,0.2-3.7v-22.3c0-1.1,0-2-0.1-3
		c0.6,0.1,1.3,0.1,2.3,0.1h4.9c1.1,0,1.6,0,2.1-0.1L858.9,902.2z M865.3,916.6c-0.2,3.5-0.8,5.6-2.1,7.6c-1.4,2.3-3.3,3.8-6.8,5.4
		c-0.7-1.3-1.2-1.9-2.3-2.9c2.9-1,4.6-2.2,6-3.9c0.8-1,1.4-2.5,1.7-4.2c0.1-0.5,0.1-0.5,0.2-2h-0.3c-1.6,0-2.1,0-3.1,0.2v-3.3
		c0.9,0.1,1.8,0.2,3.1,0.2h12c1.6,0,2.2,0,3.2-0.2v3.4c-0.9-0.1-1.9-0.2-3.2-0.2h-2.9v8.6c0,0.5,0.2,0.6,1.4,0.6
		c1.1,0,1.5-0.2,1.7-0.7c0.2-0.6,0.3-1.7,0.4-4.1c1.1,0.6,1.6,0.7,3.1,1c-0.6,6.2-1.1,7-5.4,7c-3.5,0-4.6-0.6-4.6-2.4v-10H865.3z
		 M861.3,908.2c0.5,0,1.1,0.1,2.2,0.1h7.6c1.1,0,1.6,0,2.1-0.1v-2.3h-11.9V908.2z"/>
</g>
</svg>
