<?xml version="1.0" encoding="utf-8"?>
<!-- Generator: Adobe Illustrator 19.0.0, SVG Export Plug-In . SVG Version: 6.00 Build 0)  -->
<svg version="1.1" id="图层_3" xmlns="http://www.w3.org/2000/svg" xmlns:xlink="http://www.w3.org/1999/xlink" x="0px" y="0px"
	 viewBox="0 0 1465.2 1257.5" style="enable-background:new 0 0 1465.2 1257.5;" xml:space="preserve">
<style type="text/css">
	.st0{fill:none;stroke:#E1AD0B;stroke-width:5;stroke-miterlimit:10;}
	.st1{fill:#EAEAEA;}
</style>
<rect id="XMLID_1058_" x="459.4" y="407.8" class="st0" width="545.5" height="401"/>
<g id="XMLID_12_">
	<g id="XMLID_4327_">
		<path id="XMLID_4640_" class="st1" d="M493.2,506.4c-1.4,0-2.4,0.1-3.4,0.2v-2.2c0.9,0.1,2,0.2,3.4,0.2h9.7V504
			c0-0.6,0-1.2-0.1-1.9h1.4c2.2-1.1,4.1-2.2,5.8-3.6h-11.8c-1.1,0-2.2,0.1-3.1,0.2v-2.1c0.9,0.1,1.9,0.2,3.1,0.2h11.6
			c1.2,0,1.8,0,2.4-0.1l1.2,1.3c-0.4,0.3-0.4,0.3-1.1,0.9c-2.2,1.8-4.2,3.1-7.4,4.8v1h9.6c1.5,0,2.5-0.1,3.4-0.2v2.2
			c-0.9-0.1-2-0.2-3.4-0.2h-9.5v6.8c0,2-0.6,2.4-3.7,2.4c-1,0-2.4-0.1-3.6-0.2c-0.2-0.9-0.4-1.4-0.7-2.1c1.7,0.2,3.1,0.3,4.3,0.3
			c1.4,0,1.6-0.1,1.6-0.7v-6.5H493.2z M503.1,491.8c-0.6-1.6-1.3-3-2.4-4.6l2-0.5c1.2,2.2,1.7,3.2,2.5,5.2h3.5
			c1.5-1.6,2.4-3.2,3.3-5.2l2,0.9c-1.3,2.1-2.2,3.3-3.1,4.3h2.5c1.9,0,2.6,0,3.7-0.1c-0.1,0.8-0.1,1.5-0.1,2.7v2.4
			c0,0.7,0.1,1.5,0.2,2.3h-2.1v-5.4h-22.8v5.4h-2.1c0.1-0.7,0.2-1.5,0.2-2.3v-2.4c0-1.2,0-1.8-0.1-2.7c1.2,0.1,1.9,0.2,3.7,0.2h2.3
			c-0.8-1.5-1.5-2.5-3-4.2l1.9-0.6c1.5,1.8,2.2,2.9,3.3,4.8H503.1z"/>
		<path id="XMLID_4635_" class="st1" d="M522.7,490.1c0-0.9,0-1.6-0.1-2.5c0.5,0.1,1.2,0.1,2.2,0.1h4.4c1,0,1.5,0,2-0.1l1,1.2
			c-0.1,0.2-0.3,0.6-0.5,1c-1.2,3-2.1,5-3.4,7.4c1.5,1.9,2.2,2.8,2.7,4.2c0.5,1.2,0.7,2.5,0.7,3.8c0,1.8-0.5,2.8-1.7,3.1
			c-0.6,0.2-1.5,0.3-2.5,0.3c-0.4,0-0.6,0-1.1,0c-0.1-0.9-0.2-1.4-0.5-2.1c0.8,0.2,1.4,0.2,2.1,0.2c1.5,0,1.8-0.3,1.8-1.7
			c0-1.5-0.4-3-1.2-4.4c-0.5-0.9-1.2-1.8-2.5-3.2c1.6-2.9,2.5-5,3.5-7.9h-5v23.2c0,1.3,0,2.1,0.2,3h-2.3c0.1-0.9,0.2-1.8,0.2-3
			V490.1z M535.2,502.5c-1.3,0-2,0-2.9,0.2v-2.1c0.8,0.1,1.8,0.2,3,0.2h12.1c1.3,0,2.2-0.1,3.1-0.2v2.1c-0.9-0.1-1.8-0.2-3.1-0.2
			h-3.2v10.1c0,0.7,0.4,0.8,2.3,0.8c2.3,0,2.3,0,2.6-5.1c0.8,0.5,1.1,0.6,1.9,0.8c-0.5,5.7-0.8,6.2-4.5,6.2c-3.6,0-4.4-0.4-4.4-2
			v-10.8h-3.4c-0.2,3-0.3,3.7-0.7,5.4c-0.6,2.3-2,4.3-4,5.7c-1.2,0.9-2.4,1.5-4.4,2.3c-0.5-0.7-0.9-1.3-1.5-1.7
			c4.1-1.4,5.8-2.5,7.1-4.7c1-1.7,1.4-3.4,1.5-6.9H535.2z M547.1,490.3c1.2,0,2.2-0.1,3.1-0.2c-0.1,0.7-0.1,1-0.1,2.1v2.1
			c0,0.9,0,1.5,0.1,2.2h-2.1v-4.4h-14.2v4.4h-2c0.1-0.8,0.1-1.2,0.1-2.2v-2.1c0-1,0-1.1-0.1-2c1.1,0.1,2.1,0.2,3.4,0.2h4.7
			c-1-1.7-1.1-1.9-1.9-2.9l1.6-0.9c0.9,1.2,1.6,2.3,2.5,3.9H547.1z M534.9,495.4c0.8,0.1,1.3,0.1,2.5,0.1h7.4c1.1,0,1.6,0,2.4-0.1v2
			c-0.8-0.1-1.5-0.1-2.4-0.1h-7.5c-0.9,0-1.7,0-2.4,0.1V495.4z"/>
		<path id="XMLID_4628_" class="st1" d="M561.8,488.6c1.2,1.1,1.2,1.1,3,3.1c1.6,1.7,1.9,2,2.9,3.3l-1.5,1.3
			c-1.7-2.4-2.3-3.1-5.2-6.1c-2.2,3.3-4.2,5.6-6.9,7.7c-0.3-0.7-0.5-1.1-1.1-1.7c2.4-1.8,3-2.5,4.4-4.2c1.4-1.7,1.8-2.5,3.1-5.2
			l1.8,0.8L561.8,488.6z M567.2,501.4c-0.3,0.5-0.3,0.5-0.8,1.6c-1.1,2.3-2.9,5.4-4.7,7.8c0.7,1,1,1.4,2.4,3.5l-1.6,1.4
			c-2.1-3.8-3.7-6-6.3-8.9l1.5-1.3c1.4,1.5,1.8,2.1,3,3.6c1.7-2.3,2.9-4.4,4-6.9h-7.7c-1.1,0-1.8,0.1-2.5,0.2v-2.1
			c0.7,0.1,1.4,0.2,2.5,0.2h6.5c1.5,0,2,0,2.5-0.1L567.2,501.4z M559.8,493.7c1.3,1.2,2.4,2.5,3.7,4.3l-1.5,1.4
			c-1.1-1.8-2.2-3.2-3.5-4.4L559.8,493.7z M576.2,497.1c-0.1,0.8-0.2,1.7-0.2,2.9v4.2c0,2-0.1,2.7-0.3,3.9c-0.5,2.1-1.6,3.7-3.6,5.2
			c-1.5,1.1-2.7,1.6-5.3,2.6c-0.4-0.9-0.6-1.1-1.4-1.8c3.5-1,5.3-1.9,6.7-3.4c1.4-1.4,1.9-3.1,1.9-6.5V500c0-1.1-0.1-2.2-0.2-2.9
			H576.2z M570.4,489.6c-1.6,0-2.3,0-3,0.1v-2.1c0.9,0.2,1.6,0.2,3.1,0.2h9.5c1.5,0,2.4-0.1,3.1-0.2v2.1c-0.9-0.1-1.7-0.2-3-0.2
			h-3.5c-0.4,1.1-0.5,1.5-1.4,3.6h3.4c1.5,0,2.3,0,3.2-0.1c-0.1,0.5-0.1,1.2-0.1,2.3v9.9c0,1.4,0.1,2.3,0.2,3.3h-2.3
			c0.1-1,0.2-1.8,0.2-3.3V495h-9v10.3c0,1.4,0.1,2.2,0.2,3.2h-2.3c0.1-1,0.2-1.8,0.2-3.2v-9.7c0-1,0-1.8-0.1-2.4
			c0.9,0.1,1.6,0.1,3,0.1h1.5c0.6-1.4,1.1-2.6,1.3-3.6H570.4z M577.1,509.5c1.9,1.1,4.4,2.8,6.3,4.5l-1.2,1.7
			c-2.1-2.1-3.9-3.4-6.2-4.8L577.1,509.5z"/>
		<path id="XMLID_4624_" class="st1" d="M610.8,492.7c1.1,0,1.7,0,2.5-0.1c-0.1,0.8-0.2,1.5-0.2,2.5v8.8c0,1.1,0.1,1.9,0.2,2.9h-2.3
			v-2.2h-9.6v7.5c0,1.8,0,2.6,0.2,3.7H599c0.2-1.1,0.2-1.9,0.2-3.7v-7.5h-9.1v2.2h-2.3c0.1-0.9,0.2-1.8,0.2-2.9v-8.8
			c0-1-0.1-1.7-0.2-2.5c0.8,0.1,1.4,0.1,2.4,0.1h9v-2.8c0-1.6-0.1-2.4-0.2-3.4h2.6c-0.2,1-0.2,1.9-0.2,3.3v2.8H610.8z M599.2,494.6
			h-9.1v8h9.1V494.6z M601.3,502.7h9.6v-8h-9.6V502.7z"/>
		<path id="XMLID_4619_" class="st1" d="M619.5,491.9c0-1.5-0.1-2.7-0.2-4c1.1,0.1,2,0.2,3.8,0.2h19.3c1.7,0,2.6,0,3.8-0.2
			c-0.1,1.2-0.2,2.3-0.2,4v19.6c0,2.4,0.1,3.5,0.2,4.4h-2.3v-2h-22.4v2h-2.3c0.1-0.9,0.2-2,0.2-4.4V491.9z M621.6,512.1h22.4v-22.2
			h-22.4V512.1z M633.5,499.7h4c1.5,0,2.1,0,2.9-0.2v2c-0.8-0.1-1.5-0.2-2.9-0.2h-4v5.9h5.4c1.3,0,2.3-0.1,3.2-0.2v2.1
			c-0.9-0.1-1.9-0.2-3.2-0.2h-12.3c-1.3,0-2.2,0.1-3.2,0.2v-2.1c0.9,0.1,1.8,0.2,3.2,0.2h4.9v-5.9h-3.4c-1.4,0-2.1,0-2.9,0.2v-2
			c0.8,0.1,1.5,0.2,2.9,0.2h3.4v-5h-4.4c-1.4,0-2.2,0-3,0.2v-2.1c0.9,0.2,1.6,0.2,3,0.2h11.4c1.5,0,2.3-0.1,3.2-0.2v2.1
			c-0.9-0.1-1.7-0.2-3.1-0.2h-5V499.7z M637.4,502c1.3,1.3,1.8,2,3,3.8l-1.5,1c-1.1-2-1.6-2.7-2.9-4L637.4,502z"/>
		<path id="XMLID_4615_" class="st1" d="M657.9,498.6c-0.2,0.8-1.1,4.2-1.5,5.6c-0.5,1.6-1.3,3.6-2,5.3c2.8-0.4,5.2-0.9,8.1-1.7
			c-1-2.8-1.1-3.2-2.2-5.5l1.8-0.6c1.4,3,2.3,5.4,3.5,9.2l-2,0.7c-0.1-0.5-0.3-1.2-0.5-1.9c-1.5,0.4-2.5,0.6-2.8,0.7
			c-0.2,0-2.2,0.5-6.2,1.3c-0.6,0.1-0.6,0.1-1.4,0.3c-0.1,0-0.3,0.1-0.4,0.1c-0.4,0.1-0.4,0.1-0.7,0.2l-0.7-2
			c0.9-0.3,1.1-0.5,1.6-1.4c1.4-3.2,2.5-6.9,3.1-10h-2.4c-1.3,0-1.9,0-2.7,0.2v-2.2c0.7,0.1,1.5,0.2,2.8,0.2h9.3c1.4,0,2,0,2.8-0.2
			v2.2c-0.9-0.1-1.5-0.2-2.7-0.2H657.9z M651.9,488.8c0.8,0.1,1.4,0.2,2.7,0.2h7.1c1.3,0,1.8,0,2.6-0.2v2.2
			c-0.8-0.1-1.4-0.2-2.6-0.2h-7.2c-1.2,0-1.9,0-2.7,0.2V488.8z M675.8,493.8c1.5,0,2.2,0,3-0.1c-0.1,0.8-0.1,0.8-0.2,4.2
			c-0.1,6.2-0.5,10.4-1,13.3c-0.6,3.3-1.2,4-3.6,4c-1.1,0-2.2-0.1-3.5-0.2c0-0.8-0.1-1.4-0.4-2.1c1.6,0.3,2.6,0.5,3.6,0.5
			c1.1,0,1.4-0.3,1.7-1.8c0.7-3.2,1-6.9,1.1-15.8h-4.2c-0.3,5.2-0.6,7.3-1.4,10c-0.7,2.3-1.6,4.4-2.9,6.3c-0.9,1.4-1.7,2.3-3.4,3.9
			c-0.6-0.7-0.9-1-1.7-1.6c3.3-2.8,5.2-5.8,6.3-10.1c0.5-2.3,0.8-4.5,1.1-8.5h-2.3c-1.4,0-2.2,0.1-3,0.2v-2.2c0.7,0.1,1.4,0.2,3,0.2
			h2.4c0-2.8,0-2.9,0-3.9c0-1.7,0-2.3-0.2-3.2h2.4c-0.1,0.7-0.2,1.4-0.2,2.5c0,1.9,0,3.3-0.1,4.2c0,0.2,0,0.2,0,0.3H675.8z"/>
		<path id="XMLID_4607_" class="st1" d="M683,487.5c0.9,0.1,2,0.2,3.4,0.2h21.7c1.4,0,2.4-0.1,3.4-0.2v2.2c-1-0.1-2.1-0.2-3.4-0.2
			h-21.7c-1.3,0-2.3,0.1-3.4,0.2V487.5z M708.7,497.3c0-1.4,0-2.2-0.2-3.1h2.4c-0.1,1-0.2,2-0.2,3.3v14.5c0,1.9,0.1,2.8,0.2,3.9
			h-2.2v-1.5h-20.5c-2.2,0-3.4,0.1-4.5,0.3c0.1-0.7,0.2-1.7,0.2-3.3v-14.4c0-1.3,0-2.1-0.2-2.8h2.3c-0.1,0.8-0.1,1.5-0.1,2.8v15.7
			h22.8V497.3z M689.3,495.3c0-0.9,0-1.5-0.1-2.3c0.8,0.1,1.5,0.1,2.7,0.1h10.8c1.2,0,1.8,0,2.7-0.1c-0.1,0.8-0.1,1.4-0.1,2.3v11.5
			c0,1,0,1.4,0.1,2.3c-0.9-0.1-1.6-0.1-2.8-0.1H692c-1.2,0-1.9,0-2.8,0.1c0.1-0.8,0.1-1.3,0.1-2.3V495.3z M691.2,494.9v4.9h5v-4.9
			H691.2z M691.2,501.5v5.7h5v-5.7H691.2z M698.1,499.8h5.2v-4.9h-5.2V499.8z M698.1,507.2h5.2v-5.7h-5.2V507.2z"/>
		<path id="XMLID_4605_" class="st1" d="M717.5,507c2.6,2.1,4.3,3.9,6.5,6.8l-1.8,1.7c-2.1-3-3.9-5-6.4-7L717.5,507z"/>
		<path id="XMLID_4594_" class="st1" d="M752.8,509.5c-1.4,2.5-2.4,3.8-4.5,5.6c-0.4-0.6-0.5-0.8-1.4-1.4c1.9-1.4,3-2.7,4.2-5
			L752.8,509.5z M752.2,496.3c-1.6,0-2.4,0-3,0.1c0.1-1,0.1-1.8,0.1-2.8v-3.2c0-1.3,0-2-0.1-2.9c0.9,0.1,1.6,0.1,3.1,0.1h7.9
			c1.4,0,2.3,0,3.1-0.1c-0.1,0.8-0.1,1.2-0.1,2.9v3.1c0,1.2,0,2,0.1,2.8c-0.5-0.1-1.4-0.1-2.9-0.1h-4.2c0.5,0.7,0.8,1.1,1.4,2.1h4.1
			c1.5,0,2.2,0,3-0.2v2c-0.8-0.1-1.6-0.2-3-0.2h-11.2c-1.5,0-2.4,0.1-3.1,0.2v-2.1c0.7,0.1,1.6,0.2,3.1,0.2h4.9
			c-0.5-0.7-0.6-0.9-1.2-1.5l1.3-0.6H752.2z M752.1,507.8c-1.1,0-1.6,0-2.4,0.1c0.1-0.7,0.1-1.3,0.1-2.1V504c0-0.8,0-1.4-0.1-2.1
			c0.7,0.1,1.3,0.1,2.4,0.1h8.2c1.1,0,1.7,0,2.4-0.1c-0.1,0.7-0.1,1.4-0.1,2.1v1.8c0,0.7,0,1.4,0.1,2.1c-0.7-0.1-1.4-0.1-2.4-0.1
			h-3.1v5.8c0,0.9-0.1,1.4-0.5,1.7c-0.3,0.3-0.8,0.4-2.2,0.4c-0.7,0-1.2,0-2.2-0.1c-0.1-0.6-0.2-1.3-0.4-2c0.9,0.2,1.6,0.3,2.5,0.3
			c0.7,0,0.8-0.1,0.8-0.6v-5.5H752.1z M751.2,491.2h10.1v-2h-10.1V491.2z M751.2,494.8h10.1v-2h-10.1V494.8z M751.8,506.2h9v-2.6h-9
			V506.2z M762,514c-0.8-1.5-1.8-3-3-4.3l1.4-0.9c1.3,1.5,2.2,2.6,3.2,4.2L762,514z M776.7,505.6c-0.8,0.7-0.8,0.7-2.5,2.6
			c-1.1,1.2-2.9,2.8-4.6,4.1c-1.8,1.4-3,2.1-5.2,3.2c-0.4-0.7-0.6-1.1-1.3-1.9c3.3-1.4,6.2-3.4,9.2-6.4c1.4-1.4,2.2-2.4,2.7-3.2
			L776.7,505.6z M775.9,496.5c-0.5,0.4-0.8,0.7-1.3,1.2c-2.9,3-5.5,5.1-9.2,7.1c-0.3-0.7-0.7-1.3-1.3-1.9c2.5-1,4.9-2.6,7.3-4.9
			c1.5-1.4,2.2-2.2,2.7-3L775.9,496.5z M774.9,488.2c-0.5,0.4-0.5,0.4-2,1.8c-2.6,2.5-4.3,3.8-7.4,5.5c-0.4-0.8-0.7-1.2-1.3-1.8
			c2.7-1.1,4.8-2.6,7-4.7c0.9-0.9,1.3-1.3,1.9-2.2L774.9,488.2z"/>
		<path id="XMLID_4588_" class="st1" d="M786.3,512.3c0,1.7,0.1,2.7,0.2,3.4h-2.3c0.1-1,0.2-2.1,0.2-3.4v-9.7
			c-1.5,1.6-1.9,2-4.4,4.1c-0.2-0.5-0.7-1.4-1.1-1.8c2-1.4,3.7-2.8,5.3-4.7c1.7-2,2.9-3.8,4.1-6.3h-6c-0.8,0-1.6,0-2.5,0.1v-2.1
			c0.8,0.1,1.5,0.1,2.4,0.1h6.1c0.8,0,1.3,0,1.5-0.1l0.9,1.2c-0.2,0.3-0.3,0.5-0.6,1.2c-0.9,1.9-1.7,3.3-3.5,5.6
			c1.5,1,3.1,2.5,4.8,4.2l-1.4,1.5c-1.4-1.6-2.2-2.5-3.7-3.7V512.3z M784.7,486.4c1.1,1.3,1.7,2.1,2.9,4.2l-1.7,1
			c-0.9-1.9-1.7-3-2.8-4.3L784.7,486.4z M800.9,492.5c-0.2,1-0.2,1-0.2,5.6c0,5.6-0.5,8.3-2.1,10.9c-1.7,3-4.4,5.2-8.2,6.9
			c-0.4-0.7-0.7-1.2-1.3-1.8c2.5-1.1,4-2,5.3-3.2c2.2-2,3.5-4.2,3.9-6.9c0.3-1.9,0.3-2.6,0.3-8.6c0-1.9,0-2.2-0.2-3H800.9z
			 M792.5,506.7c0.2-1,0.2-2.1,0.2-3.6v-11.7c0-2,0-2.5-0.1-3.4c1,0.1,2,0.1,3.6,0.1h7c1.6,0,2.7,0,3.6-0.1
			c-0.1,0.8-0.1,1.7-0.1,3.2v11.9c0,1.8,0,2.8,0.2,3.6h-2.5c0.2-1,0.2-2.1,0.2-3.6v-13.1h-9.9v13.1c0,1.8,0,2.8,0.2,3.6H792.5z
			 M802.4,504.6c-0.1,1-0.1,1.8-0.1,2.9v4.6c0,0.9,0.3,1.2,1.5,1.2c1.5,0,2.3-0.2,2.5-0.8c0.3-0.5,0.5-2.2,0.5-4
			c0.5,0.3,1.1,0.5,2,0.7c-0.4,3.3-0.6,4.3-1,5c-0.6,0.7-2,1.1-4.4,1.1c-2.5,0-3-0.5-3-2.6v-5.1c0-1.3,0-2-0.1-2.9H802.4z"/>
		<path id="XMLID_4585_" class="st1" d="M817.2,493.5v-4.3c0-1.1-0.1-1.8-0.2-2.7h2.4c-0.2,0.8-0.2,1.6-0.2,2.7v4.3h0.7
			c1.2,0,2-0.1,2.8-0.2v2.2c-0.8-0.1-1.7-0.2-2.7-0.2h-0.8v6.4c1-0.5,1.6-0.7,3.4-1.7l0,1.9l-0.1,0.1c0.6,0.1,1.7,0.2,3,0.2h9.4
			v-3.7h-9.4c-1.5,0-2.4,0.1-3.3,0.2v-2.2c0.9,0.1,1.8,0.2,3.3,0.2h4.5v-4.3h-3.5c-1.2,0-2.2,0.1-3.1,0.2v-2.1
			c0.8,0.1,1.7,0.2,3.1,0.2h3.5v-1.3c0-1-0.1-1.8-0.2-2.6h2.4c-0.1,0.8-0.2,1.5-0.2,2.6v1.3h4.4c1.3,0,2.3-0.1,3.1-0.2v2.1
			c-0.9-0.1-1.9-0.2-3.1-0.2H832v4.3h5.5c1.5,0,2.4-0.1,3.3-0.2v2.2c-0.9-0.1-1.9-0.2-3.2-0.2h-0.8v3.7h0.8c1.4,0,2.3-0.1,3.1-0.2
			v2.2c-0.9-0.1-1.9-0.2-3.1-0.2h-0.8v9.2c0,1.8-0.8,2.4-3.4,2.4c-0.9,0-2,0-3.3-0.1c-0.1-0.9-0.2-1.4-0.5-2.2
			c1.5,0.3,2.8,0.4,3.7,0.4c1.2,0,1.4-0.1,1.4-0.9V504h-9.5c-1.3,0-2.2,0.1-3.1,0.2v-2c-1.1,0.6-1.1,0.6-3,1.5v8.9
			c0,1.2,0.1,2.3,0.2,3.4H817c0.2-0.9,0.2-2,0.2-3.4v-8c-0.1,0-0.2,0.1-0.4,0.1c-3,1.2-4,1.6-4.4,1.9l-0.7-2.3
			c1.3-0.2,2.8-0.7,5.5-1.8v-7.2h-2.6c-0.3,1.6-0.7,3.1-1.4,4.9c-0.8-0.5-1.1-0.6-1.8-0.9c0.8-1.8,1.2-3.1,1.6-5.2
			c0.3-1.5,0.5-2.9,0.5-4.1c0-0.3,0-0.5,0-0.8l2.1,0.3c-0.1,0.4-0.1,0.5-0.1,1c-0.1,0.9-0.2,2-0.4,3H817.2z M826,505.1
			c1.9,1.8,3.1,3.1,4.6,5.3l-1.7,1.3c-1.4-2.2-2.6-3.7-4.5-5.4L826,505.1z"/>
		<path id="XMLID_4579_" class="st1" d="M848.9,500.5c1.6,1.6,2.3,2.3,3.1,3.2c0.2,0.2,0.2,0.2,0.3,0.3c1-2.3,1.1-2.5,1.6-4.7l2,0.8
			c-0.2,0.4-0.3,0.6-0.6,1.5c-0.7,2.1-1.1,3-1.6,4c1.8,2.3,2.1,2.5,3.6,4.6l-1.5,1.6c-1.1-1.7-2-2.8-3.1-4.3c-2,3.4-4,5.6-7.4,8.3
			c-0.5-0.8-0.7-1.2-1.4-1.7c2.5-1.7,3.9-3,5.6-5.2c0.8-1,1.4-1.9,2-2.9c-1.5-1.8-2-2.3-3.7-4L848.9,500.5z M850.2,494.6
			c-1.3,3.3-2.4,5.1-4.5,7.7c-0.5-0.6-0.9-1-1.5-1.5c1.3-1.3,1.8-2,2.5-3.3c0.7-1.3,1.1-2,1.6-3.7L850.2,494.6z M855.9,491
			c1.5,0,2.4,0,3.2-0.2v2.1c-0.9-0.1-1.6-0.1-3-0.1h-8.4c-1.2,0-2.2,0.1-3.1,0.2v-2.2c1,0.1,1.8,0.2,3.2,0.2h3.7
			c-0.5-1.1-1.3-2.2-2.3-3.5l1.6-1.1c1.1,1.6,1.2,1.8,2.7,4.6H855.9z M873.1,494.4c-0.7-0.1-1.6-0.2-2.6-0.2
			c-0.3,3.4-0.5,4.5-1.2,6.7c-0.7,2.4-1.4,3.8-2.7,6.1c0.6,0.8,1.5,1.9,2.4,2.8c1.5,1.5,2.8,2.5,5,3.6c-0.7,0.7-1,1.1-1.4,1.9
			c-3.3-2.2-5.4-4.1-7.3-6.7c-2.1,2.7-4.7,4.8-8.5,7c-0.4-0.8-0.7-1.2-1.4-1.8c4-1.9,6.6-4,8.8-6.9c-1.2-2-2.3-4.7-3.1-7.7
			c-0.5,1-0.8,1.5-1.7,2.7c-0.4-0.6-0.7-1.1-1.1-1.5l-0.8,0.6c-1-2-2.6-4.5-3.7-6.1l1.5-1c1.6,2.3,2.5,3.8,3.4,5.3
			c1.3-1.9,2.5-5.1,3.3-8.4c0.5-2,0.6-3.3,0.6-4.4l2.4,0.4c-0.3,0.7-0.3,0.7-0.9,3.6c-0.1,0.6-0.3,1.5-0.5,2h6.3
			c1.5,0,2.3-0.1,3.1-0.2V494.4z M863.1,494.2c-0.4,1.2-0.5,1.5-0.8,2.3c0.7,3.5,1.6,6.1,3,8.7c1-1.7,1.5-3.1,2.1-5
			c0.5-1.6,0.7-2.9,0.9-4.7l0.1-1.3H863.1z"/>
		<path id="XMLID_4575_" class="st1" d="M881,508.7c4.9-2.4,5.2-2.5,9.4-5l0.2,2.3c-2,1.2-3.1,1.7-3.8,2.1c-3,1.5-5.6,2.9-7.5,4
			l-1.1-2.2c0.6-0.3,0.8-0.7,0.8-1.8v-16.9c0-1.1-0.1-2.3-0.3-3.4h2.6c-0.2,1-0.2,1.7-0.2,3.4V508.7z M904.2,515.7
			c-2.3-2.9-4.8-5.7-7.7-8.4c-2.7,3.6-6.4,6.3-11.6,8.4c-0.4-0.8-0.8-1.5-1.4-1.9c2.8-1,4.5-1.9,6.4-3.2c4.5-3.1,7.4-7.2,8.8-12.8
			c0.7-2.7,1-5.6,1-8.6c0-0.8,0-1.1-0.1-1.7l2.5,0.1c-0.1,0.7-0.1,1-0.3,3.3c-0.1,2.4-0.8,6.4-1.3,8.3c-0.6,2.1-1.7,4.5-3,6.5
			c3,2.6,5.4,5,8.3,8.4L904.2,515.7z M886.9,489.9c2.7,2.7,4.2,4.6,6.5,8.2l-1.9,1.5c-2.2-3.8-3.4-5.4-6.4-8.5L886.9,489.9z"/>
		<path id="XMLID_4572_" class="st1" d="M935.1,497.8c-0.3,0.4-0.4,0.6-1.2,2.4c-1.4,2.9-3.8,6.2-5.9,8.3c3.1,2.4,5.5,3.7,10,5.2
			c-0.7,1-0.7,1-1.2,2.2c-3.8-1.6-5-2.2-7.1-3.5c-1.2-0.8-2.2-1.5-3.2-2.4c-3.4,2.7-5.6,4-10.5,5.9c-0.1-0.2-0.1-0.3-0.2-0.4
			c-0.3-0.7-0.3-0.8-1-1.7c2.5-0.6,4.4-1.4,6.9-2.9c1.1-0.6,2-1.3,3.3-2.3c-2.9-2.8-5.4-6.4-7-10.1c-0.4,3.3-1.2,6.1-2.4,8.9
			c-1.3,3.1-3,5.4-5.7,8.1c-0.5-0.7-1-1.2-1.7-1.6c3.8-3.2,6.1-7.1,7.4-12.7c0.4-1.5,0.6-3.3,0.7-4.5c0.3-5.3,0.3-5.3,0.3-6.4h-3.2
			c-1.3,0-2.2,0.1-3.3,0.2v-2.3c0.9,0.1,1.9,0.2,3.4,0.2h12.7c1.1,0,2.3-0.1,3.3-0.1c-0.2,0.7-0.2,0.7-0.4,1.3
			c-0.5,2.1-1.4,5.3-2,7.1h4.2c1.4,0,2.2,0,2.7-0.1L935.1,497.8z M918.5,490.3c-0.1,1.2-0.1,1.2-0.2,4.2c0.7,2.2,1.9,4.9,3.2,6.9
			c1.3,2.1,2.8,3.8,5,5.8c2.6-2.5,4.2-4.8,6-8.7h-5.3c-1.2,0.1-1.2,0.1-1.6,0.1c-0.5,0-0.6,0-1.1,0.1c1.1-3.3,1.9-5.9,2.4-8.4H918.5
			z"/>
		<path id="XMLID_4564_" class="st1" d="M945.6,506.4c-1.2,3-2.2,4.9-3.9,7.1c-0.3-0.2-0.3-0.2-0.7-0.5c-0.2-0.1-0.4-0.3-1-0.6
			c1.9-2.3,2.7-3.7,3.8-6.5L945.6,506.4z M953,497.1c1.2,0,1.9,0,2.6-0.2v2.2c-0.8-0.1-1.4-0.2-2.6-0.2h-9.6c-1.2,0-1.9,0-2.7,0.2
			v-2.2c0.7,0.1,1.4,0.2,2.7,0.2h5.8c1.2-2.1,1.7-3.3,2.2-5.3l1.9,0.6c-0.7,1.9-1.5,3.5-2.2,4.7H953z M943.5,504.2
			c-1.3,0-1.9,0-2.7,0.2v-2.1c0.7,0.2,1.4,0.2,2.7,0.2h4V501c0-0.4-0.1-0.9-0.1-1.3h2.1c-0.1,0.4-0.1,0.9-0.1,1.3v1.5h3.5
			c1.1,0,1.7,0,2.6-0.2v2.1c-0.7-0.1-1.4-0.2-2.6-0.2h-3.5v9c0,1.7-0.6,2.2-2.9,2.2c-0.7,0-1.5,0-2-0.1c0-0.1,0-0.2,0-0.3
			c0-0.5-0.2-1.1-0.4-1.7c1.2,0.2,1.7,0.3,2.5,0.3c0.8,0,1.1-0.2,1.1-0.7v-8.7H943.5z M947.6,489.6c-0.5-0.9-0.9-1.5-1.8-2.6
			l1.9-0.7c1.4,2.1,1.4,2.1,2.1,3.3h2.5c1.3,0,1.9,0,2.7-0.2v2.2c-0.9-0.1-1.5-0.2-2.7-0.2h-8c-1.3,0-1.9,0-2.8,0.2v-2.2
			c0.7,0.1,1.4,0.2,2.8,0.2H947.6z M945.1,496.8c-0.5-1.8-1-2.8-1.8-4.3l1.7-0.6c0.9,1.6,1.3,2.6,1.8,4.4L945.1,496.8z M952.2,505.7
			c1.6,2.1,2,2.8,3,4.8l-1.7,1.1c-0.8-2.2-1.5-3.3-2.8-5.1L952.2,505.7z M959,498.7c0,0.4,0,0.4,0,1.3c0,4.3-0.7,8.6-1.8,11.6
			c-0.6,1.7-1.3,2.9-2.4,4.4c-0.7-0.6-1-0.9-1.8-1.4c1.4-1.8,2.4-3.6,3-6.1c0.7-2.8,1-7.1,1-14.5c0-2.1-0.1-3.6-0.2-4.4
			c0.2,0,0.3,0,0.4,0c1.7,0,5-0.6,7.6-1.5c1.4-0.5,2.2-0.8,3-1.4l1.6,1.8c-0.3,0.1-0.3,0.1-1.2,0.5c-2.6,1.1-5.1,1.7-9.3,2.4v5.5
			h8.2c1.5,0,2.2-0.1,2.9-0.2v2.2c-0.8-0.1-1.5-0.2-2.8-0.2h-1.2v14.1c0,1.6,0,2.4,0.2,3.2h-2.5c0.1-0.8,0.2-1.6,0.2-3.2v-14.1H959z
			"/>
		<path id="XMLID_4558_" class="st1" d="M499,559.6c-1.3-1.4-1.8-1.8-2.7-2.7c-1.8,3-3,4.3-5.9,6.5c-0.4-0.6-0.9-1.2-1.5-1.6
			c2.9-2.1,4.2-3.4,5.9-6.2c-1.6-1.3-2.4-1.8-4.4-3c1.2-2.7,1.8-4.6,2.8-9h-1c-1,0-1.7,0.1-2.6,0.2v-2.2c0.8,0.1,1.6,0.2,2.7,0.2
			h1.3c0.4-2.3,0.7-4.7,0.7-6v-0.5l2.3,0.2c-0.1,0.4-0.2,0.9-0.3,2c-0.2,1.6-0.5,3.3-0.7,4.4h2c1.4,0,2.2,0,2.9-0.1
			c-0.6,6.2-1.4,9.8-3.1,13.5c1.3,1,1.7,1.4,3,2.6L499,559.6z M495,543.6c-0.6,3.1-1.4,5.6-2.4,8.4c1.6,1.1,2.3,1.5,3,2
			c1.4-3,2.1-5.8,2.6-10.4H495z M505.5,549.8c-1.4,0-1.7,0-2.4,0.1c0-0.9,0.1-1.4,0.1-1.9v-7.4h-0.4c-1.4,0-2.1,0-2.8,0.2v-2.1
			c0.8,0.1,1.6,0.2,2.8,0.2h0.4v-0.5c0-1.2,0-1.8-0.2-2.6h2.2c-0.1,0.7-0.1,1.1-0.1,2.7v0.5h7.6v-0.5c0-1.5,0-1.8-0.1-2.6h2.2
			c-0.1,0.8-0.2,1.4-0.2,2.6v0.5h0.9c1.2,0,2.1-0.1,2.9-0.2v2.1c-0.9-0.1-1.6-0.1-2.9-0.1h-0.9v7.4c0,0.8,0,1.4,0.1,1.9
			c-0.9,0-1.7-0.1-2.5-0.1h-2.6v2.8h5.6c1.5,0,2.4-0.1,3.1-0.2v2c-1-0.1-1.7-0.2-3.2-0.2h-4.9c0.2,0.2,0.2,0.2,0.5,0.6
			c2.5,2.9,4.8,4.8,8.3,6.6c-0.6,0.6-0.9,1.1-1.3,1.8c-3.6-2.3-5.4-4-8.4-7.9c0.1,1.1,0.1,2,0.1,2.8v3.2c0,1.5,0.1,2.5,0.2,3.1h-2.3
			c0.1-0.7,0.2-1.6,0.2-3.2v-3.2c0-0.9,0-1.9,0.1-2.9c-1.5,2.2-2.4,3.2-4,4.6c-1.4,1.3-2.4,2-4.6,3.3c-0.4-0.7-0.8-1.1-1.4-1.6
			c2.4-1.2,3.8-2.2,5.8-3.9c1.4-1.2,1.7-1.5,3.4-3.6h-4.3c-1.5,0-2.3,0-3,0.2v-2c0.7,0.1,1.5,0.2,3,0.2h4.9v-2.8H505.5z
			 M512.7,540.5h-7.6v2.9h7.6V540.5z M505.1,545v3.1h7.6V545H505.1z"/>
		<path id="XMLID_4555_" class="st1" d="M525.3,550.2c0-1.5,0-2.4,0.1-3.9c-1.1,1.9-1.8,3-3.3,4.7c-0.5-0.9-0.6-1-1.3-1.8
			c2.9-3.1,4.8-6.2,6.3-9.8c0.7-1.7,1-2.7,1.2-4.2l2.3,0.7c-0.3,0.7-0.5,1.1-0.9,2.2c-0.9,2.4-1.3,3.3-2.3,5.4v17.2
			c0,1.6,0,2.7,0.2,3.8h-2.4c0.1-1.2,0.2-2.2,0.2-3.9V550.2z M538.6,549.3c0-1.5,0-2.6,0.1-4c-1.4,3.2-2.3,4.9-3.9,7
			c-1.6,2.3-3.2,3.9-5.4,5.8c-0.5-0.7-0.7-1-1.5-1.7c2.8-2,4.4-3.7,6.7-6.8c1.6-2.2,2.1-3,3.3-5.6h-5.1c-1.2,0-2.2,0.1-3.2,0.2v-2.3
			c0.8,0.1,1.9,0.2,3.2,0.2h5.9v-3.5c0-1-0.1-2.2-0.2-3.2h2.4c-0.2,0.7-0.3,2-0.3,3.2v3.5h6.9c1.4,0,2.4-0.1,3.3-0.2v2.3
			c-0.9-0.1-2-0.2-3.3-0.2h-6.1c1.9,3.5,2.7,4.9,4.5,7.1c1.8,2.2,3.4,3.7,5.8,5.4c-0.6,0.5-1,1-1.6,1.8c-1.7-1.4-3.1-2.7-4.6-4.5
			c-2.2-2.6-3.5-4.7-5.1-8.4c0.1,1.7,0.1,2.7,0.1,4v6.8h2.9c1.2,0,1.9,0,2.6-0.2v2.1c-0.8-0.1-1.5-0.2-2.6-0.2h-2.9v3.2
			c0,1.2,0.1,2.2,0.2,3.3h-2.4c0.1-1.1,0.2-2.2,0.2-3.3v-3.2h-2.7c-1.2,0-1.9,0-2.6,0.2v-2.1c0.7,0.1,1.5,0.2,2.6,0.2h2.7V549.3z"/>
		<path id="XMLID_4552_" class="st1" d="M571.7,538.9v-1.3c0-0.8-0.1-1.5-0.2-2.3h2.4c-0.1,0.8-0.2,1.5-0.2,2.3v1.3h5.2
			c1.7,0,2.7-0.1,3.6-0.2v2.3c-0.9-0.1-2-0.2-3.6-0.2h-5.2v1c0,0.8,0.1,1.4,0.2,2.1h-2.3c0.1-0.7,0.1-1.3,0.1-2.1v-1h-7.4v1
			c0,0.9,0,1.5,0.1,2.1h-2.4c0.1-0.7,0.2-1.4,0.2-2.1v-1h-4.7c-1.6,0-2.7,0-3.6,0.2v-2.3c0.9,0.1,1.9,0.2,3.6,0.2h4.7v-1.3
			c0-0.8-0.1-1.5-0.2-2.3h2.4c-0.1,0.8-0.2,1.5-0.2,2.3v1.3H571.7z M576.3,547.6c-1.7,0.6-1.9,0.7-3.1,1.4c-2.6,1.4-7.4,4.2-8.4,4.9
			c-3.9,2.6-5.6,4.4-5.6,6c0,1.1,0.5,1.4,2.6,1.6c1.4,0.1,4.5,0.2,8.8,0.2c2.3,0,4.3-0.1,5.4-0.4c1.2-0.2,1.8-0.7,2.2-1.8
			c0.2-0.6,0.3-1.3,0.5-3.2c0.9,0.5,1.3,0.6,2.2,0.8c-0.4,3.1-0.9,4.4-2,5.3c-1.3,0.9-3.3,1.1-10.8,1.1c-5.1,0-7.5-0.2-8.9-0.6
			c-1.3-0.4-2.1-1.5-2.1-2.8c0-2.3,2-4.6,6.8-7.7c1.8-1.2,3-1.9,4.7-2.9c1.7-1,1.7-1,3-1.8H561c-1.3,0-2.1,0-2.9,0.2v-2.1
			c0.8,0.1,1.5,0.2,2.9,0.2h11.5c1.6,0,2.1,0,2.8-0.2L576.3,547.6z"/>
		<path id="XMLID_4549_" class="st1" d="M614.5,544.7c-1.3-0.1-2.4-0.2-3.6-0.2h-9.3c1.7,2.8,3.1,4.6,5.5,7c2.7,2.7,4.8,4.4,8.3,6.4
			c-0.9,0.9-1.1,1.2-1.6,2c-2.2-1.5-3-2.1-5.3-4.2c-2.2-1.9-3.1-3-4.8-5.2c0,0-0.1-0.1-0.2-0.3c-0.9-1.2-1.3-1.8-2.3-3.6
			c0.1,1.5,0.1,2.4,0.1,3.7v10.4c0,1.6,0.1,2.6,0.2,3.7H599c0.2-1.2,0.2-2.2,0.2-3.7v-10.4c0-0.2,0.1-1.4,0.2-3.6
			c-1.6,3.3-3,5.2-5.9,8.1c-2,2-3.7,3.4-6.3,5.3c-0.6-0.9-1-1.3-1.6-1.9c3.6-2.3,6.1-4.4,9.1-7.8c1.9-2.2,2.8-3.4,4.2-5.8h-8.7
			c-1.2,0-2.1,0-3.5,0.2v-2.3c1.2,0.2,2.1,0.2,3.5,0.2h9v-4.2c0-1.1-0.1-1.9-0.2-3h2.6c-0.2,1-0.2,1.9-0.2,2.9v4.2h9.5
			c1.7,0,2.6-0.1,3.6-0.2V544.7z M606.2,536.3c2.4,1.4,2.9,1.8,5,3.6l-1.4,1.6c-1.8-1.8-2.6-2.4-4.9-3.8L606.2,536.3z"/>
		<path id="XMLID_4545_" class="st1" d="M628.1,544c2.4-2.4,4.6-5.4,5.3-7.4l1.9,0.9c-2.7,4-3,4.4-4.9,6.5h1.3c1.1,0,1.7,0,2.2-0.1
			v1.9c-0.6-0.1-1.2-0.1-2.2-0.1h-2.8c-1.2,1.1-2.4,2.2-3.8,3.2h3.5c1.4,0,1.8,0,2.3-0.1l1.1,1.1l-0.1,0.1c-0.2,0.2-0.2,0.2-0.6,0.6
			c-1.1,1.2-2,2-3.5,3.1v1.2c0.1,0,0.2,0,0.5,0c1.5-0.2,2.8-0.4,5.4-0.9v1.8c-2.9,0.5-4,0.7-5.8,0.9v4.9c0,1.7-0.5,2.2-3,2.2
			c-0.9,0-1.7,0-2.8-0.1c0-0.8-0.1-1.2-0.4-2c1.3,0.2,2.4,0.3,3.4,0.3c0.6,0,0.8-0.1,0.8-0.7v-4.3c-1.8,0.2-3.6,0.3-5.4,0.5
			c-0.7,0-1,0.1-1.6,0.2l-0.3-2.1c0.4,0,0.6,0,1,0c1.3,0,3.2-0.1,6.3-0.5v-0.2c0-1.2,0-1.7-0.1-2.2h0.8c1.2-0.9,1.7-1.4,2.6-2.4
			h-6.3c-1.5,0.9-2.1,1.3-3.5,2.1c-0.5-0.7-0.7-1-1.3-1.5c3.2-1.6,5.6-3.1,8.3-5.4h-4.8c-1.2,0-2.2,0.1-2.8,0.1v-1.9
			c0.7,0.1,1.6,0.2,2.8,0.2h3.6v-3.7h-2.5c-1.3,0-2,0-2.6,0.1v-1.9c0.6,0.1,1.3,0.2,2.6,0.2h2.5v-1.2c0-1-0.1-1.7-0.2-2.4h2.3
			c-0.2,0.6-0.2,1.2-0.2,2.4v1.2h1.7c1,0,1.6,0,2.1-0.1v1.8c-0.5-0.1-1.2-0.1-2-0.1H627v3.7H628.1z M647.3,542.8
			c-0.7-0.1-1.2-0.2-2.2-0.2c-0.4,3.5-0.5,4.4-1.1,6.6c-0.7,2.4-1.6,4.5-2.7,6.3c1.7,2.7,3.9,5,6.8,6.9c-0.7,0.6-1.1,1-1.5,1.8
			c-2.8-2.2-4.6-4.1-6.4-7c-2,2.7-4.1,4.5-7.9,6.9c-0.5-0.8-0.9-1.3-1.5-1.8c4-2.2,6.2-4,8.3-7.1c-1.3-2.4-2.5-6-2.9-8.4
			c-0.7,1.4-1.3,2.3-2.4,3.7c-0.4-0.6-0.7-0.8-1.5-1.4c2.2-2.6,3.7-5.8,4.8-10.4c0.5-1.9,0.7-3,0.7-4.1l2.2,0.5
			c-0.1,0.4-0.1,0.4-0.4,1.4c-0.3,1.4-0.8,3.3-1.1,4.1h5.7c1.5,0,2.2,0,3.1-0.2V542.8z M637.9,542.6c-0.3,0.7-0.3,0.7-0.6,1.7
			c0.5,3.3,1.5,6.5,2.8,9.1c0.9-1.6,1.5-3.2,2-5.1c0.5-2,0.8-3.3,1-5.8H637.9z"/>
		<path id="XMLID_4540_" class="st1" d="M654,539.8c-1.3,0-2.3,0.1-3.3,0.2v-2.1c0.9,0.1,1.8,0.2,3.3,0.2h10.2
			c-0.5-0.7-0.8-1.1-1.8-2.3l1.8-1c1.1,1.3,1.3,1.6,2.4,3.3h9.3c1.5,0,2.4-0.1,3.3-0.2v2.1c-1.1-0.1-2-0.2-3.2-0.2H663
			c-2.8,2.6-4.2,3.7-5.5,4.5c6.6-0.1,11.4-0.4,14.3-0.7c-1.3-0.9-1.8-1.1-3.3-1.9l1.3-1.4c3.6,2.1,5.2,3.2,8.4,5.8l-1.5,1.5
			c-1.5-1.3-2-1.8-2.9-2.5c-1.2,0.1-2.2,0.2-3.1,0.3c-2.3,0.2-6.7,0.5-10,0.5l-5.6,0.2c-0.5,0-0.8,0-1.5,0.1l-0.3-1.8
			c0.2-0.1,0.4-0.1,0.5-0.1c0.6-0.2,0.6-0.2,2-0.8c1.6-1,3.4-2.5,4.5-3.7H654z M657.2,560.7c0,1.6,0,2.6,0.2,3.5H655
			c0.1-1.1,0.2-2.2,0.2-3.7v-10.1c0-1.3,0-2.2-0.2-3.1c0.8,0.1,1.9,0.1,3.7,0.1h12.6c1.8,0,2.6,0,3.5-0.1c-0.1,0.8-0.1,1.8-0.1,3.4
			v10.5c0,2-0.8,2.5-3.3,2.5c-0.7,0-1.6,0-1.9,0c-1.3-0.1-1.3-0.1-1.9-0.1c-0.1-0.7-0.2-1.2-0.5-1.9c1.7,0.2,2.8,0.3,4.1,0.3
			c1.2,0,1.4-0.1,1.4-0.9v-3h-15.5V560.7z M672.7,549.3h-15.5v2.6h15.5V549.3z M657.2,556.4h15.5v-2.8h-15.5V556.4z"/>
		<path id="XMLID_4538_" class="st1" d="M708.6,542.7c-0.2,0.2-0.3,0.3-0.7,0.9c-3.9,5.3-9.9,10.7-15.9,14.4c2.2,2,4.9,2.6,11.6,2.6
			c3.5,0,6.1-0.2,8.8-0.6c-0.5,1-0.5,1.3-0.8,2.5c-1.9,0.2-4,0.2-7.2,0.2c-5.5,0-8-0.3-10.4-1.1c-1-0.3-1.8-0.7-2.5-1.3
			c-0.3-0.2-0.3-0.2-1.5-1.3c-0.3-0.3-0.6-0.5-0.9-0.5c-0.3,0-0.9,0.5-1.8,1.5c-0.7,0.8-0.9,1.1-1.6,2.1l-0.9,1.2l-1.7-1.6
			c0.5-0.5,0.5-0.5,1.6-2c0.6-0.8,1.6-1.8,2.2-2.3c0.9-0.8,1.5-1.1,2.5-1.1c0.3,0,0.6,0.1,0.9,0.2c6.4-4,11.4-8.4,15.1-13.4h-16.8
			c-1.3,0-2.3,0.1-3.3,0.2V541c1.1,0.2,2.1,0.2,3.3,0.2h8.5c-1-2-1.8-3.2-3.4-5.3l1.7-1c1.5,1.8,2.5,3.2,3.7,5.3l-1.6,1h7.3
			c1.2,0,1.9,0,2.5-0.1L708.6,542.7z"/>
		<path id="XMLID_4536_" class="st1" d="M728.4,540.7v-2.5c0-1.1-0.1-1.9-0.2-2.8h2.5c-0.1,0.9-0.2,1.7-0.2,2.8v2.5h7.7
			c1.4,0,2.3-0.1,3.1-0.2v2.3c-0.9-0.1-1.8-0.2-3.1-0.2h-7.7v5.7h10c1.5,0,2.4-0.1,3.3-0.2v2.3c-1-0.1-1.9-0.2-3.3-0.2h-6.8V561
			c0,0.8,0.4,1,3.1,1c2.7,0,3.6-0.2,4-0.9c0.4-0.8,0.6-2.3,0.6-4.8c0.7,0.4,1.2,0.6,2.1,0.9c-0.2,2.8-0.5,4.2-1,5.1
			c-0.8,1.4-1.9,1.7-6.1,1.7c-3.9,0-4.8-0.5-4.8-2.2v-11.4h-4.8c-0.2,2.7-0.2,2.7-0.3,3.5c-0.6,3.7-2.4,6.3-5.5,8.4
			c-1.4,0.9-2.6,1.5-4.7,2.4c-0.3-0.5-0.4-0.8-0.6-1c-0.5-0.6-0.5-0.6-0.7-1c3.1-1,5.1-2.1,6.8-3.7c1.5-1.5,2.4-3.3,2.7-5.6
			c0.1-0.8,0.2-1.5,0.3-3.1h-5.9c-1.4,0-2.4,0.1-3.3,0.2v-2.3c0.9,0.1,1.9,0.2,3.3,0.2h9.6v-5.7h-6.9c-1.1,1.8-2,3-3.5,4.6
			c-0.6-0.7-1-1-1.7-1.4c1.8-1.7,3-3.3,4.2-5.4c0.8-1.5,1.3-3.1,1.5-4.5l2.3,0.6c-0.2,0.5-0.4,0.9-0.6,1.5c-0.5,1.2-0.7,2-1.1,2.7
			H728.4z"/>
		<path id="XMLID_4534_" class="st1" d="M752.5,561.7c0,2.4-0.4,3.2-2,4.1l-0.9-1.1c1.3-0.6,1.6-1.1,1.5-3.1h-1.9v-3.2h3.2V561.7z"
			/>
		<path id="XMLID_4530_" class="st1" d="M794.1,544.9c-0.7,4.2-1.8,7.2-3.6,10.1c-1.3,2.1-3.5,4.4-5.8,6.3c-1.3,1-2.2,1.6-3.9,2.4
			c-0.6-1-0.9-1.5-1.6-1.9c3.5-1.4,6.4-3.5,8.6-6.4c1.6-2.2,2.8-4.7,3.5-7.5c0.2-0.8,0.3-1.5,0.6-2.9h-7.2c-1.9,0-3.2,0.1-4,0.2
			v-2.4c0.9,0.1,2,0.2,4,0.2h7.5c0.4-2.3,0.6-5.3,0.6-7.1c0-0.5,0-0.5,0-1l2.5,0c-0.2,0.7-0.2,1.1-0.4,2.6c-0.2,2.1-0.4,4.3-0.6,5.5
			h7.9c1.9,0,2.9,0,3.8-0.2c-0.1,0.9-0.1,1-0.1,1.4c0,0.3,0,0.3,0,1.6c0,0.4-0.1,1.8-0.2,4.3c-0.2,4.3-0.2,4.5-0.6,7.6
			c-0.4,2.6-0.7,3.7-1.4,4.5c-0.6,0.7-1.5,1-3.1,1c-1.5,0-3.3-0.2-5.7-0.5c-0.1-0.9-0.2-1.5-0.5-2.4c2.5,0.5,4.4,0.8,6.1,0.8
			c1.7,0,2.1-0.7,2.7-4.7c0.4-3,0.6-6.2,0.6-11.5H794.1z M784.8,535.4c2.2,2.1,3.3,3.4,4.9,5.6l-1.8,1.1c-1.6-2.5-2.7-3.8-4.7-5.7
			L784.8,535.4z M795.4,549.8c2.2,1.6,3.6,3,5.7,5.3l-1.6,1.5c-1.7-2.2-2.8-3.3-5.5-5.6L795.4,549.8z"/>
		<path id="XMLID_4525_" class="st1" d="M813,540.4c0-1.5-0.1-2.7-0.2-4c1.1,0.1,2,0.2,3.8,0.2h19.3c1.7,0,2.6,0,3.8-0.2
			c-0.1,1.2-0.2,2.3-0.2,4V560c0,2.4,0.1,3.5,0.2,4.4h-2.3v-2H815v2h-2.3c0.1-0.9,0.2-2,0.2-4.4V540.4z M815,560.6h22.4v-22.2H815
			V560.6z M827,548.2h4c1.5,0,2.1,0,2.9-0.2v2c-0.8-0.1-1.5-0.2-2.9-0.2h-4v5.9h5.4c1.3,0,2.3-0.1,3.2-0.2v2.1
			c-0.9-0.1-1.9-0.2-3.2-0.2h-12.3c-1.3,0-2.2,0.1-3.2,0.2v-2.1c0.9,0.1,1.8,0.2,3.2,0.2h4.9v-5.9h-3.4c-1.4,0-2.1,0-2.9,0.2v-2
			c0.8,0.1,1.5,0.2,2.9,0.2h3.4v-5h-4.4c-1.4,0-2.2,0-3,0.2v-2.1c0.9,0.2,1.6,0.2,3,0.2h11.4c1.5,0,2.3-0.1,3.2-0.2v2.1
			c-0.9-0.1-1.7-0.2-3.1-0.2h-5V548.2z M830.9,550.5c1.3,1.3,1.8,2,3,3.8l-1.5,1c-1.1-2-1.6-2.7-2.9-4L830.9,550.5z"/>
		<path id="XMLID_4522_" class="st1" d="M869.3,546.8c-0.7,0.6-0.7,0.6-1.9,1.8c-0.9,0.8-2.1,1.8-3,2.5c1.1,2.2,1.4,2.7,2.2,3.7
			c1.6,2.3,3.6,4,6.6,5.8c-0.5,0.5-1,1-1.6,1.8c-3.4-2.5-4.9-4-6.6-6.5c-0.8-1.2-1.5-2.3-2.1-3.8c-0.9,0.5-0.9,0.6-1.9,1.1
			c0.6,2.2,0.8,3.7,0.8,5.6c0,2-0.3,3.5-0.9,4.3c-0.6,0.7-1.4,1-3,1c-1,0-2.3-0.1-3.8-0.2c-0.1-0.9-0.2-1.4-0.5-2.2
			c1.6,0.3,3,0.5,4.1,0.5c1.7,0,2.1-0.8,2.1-3.9c0-1.1-0.1-2-0.2-2.9c-2,1.6-3,2.3-4.8,3.3c-2.9,1.6-5.5,2.7-9.4,4
			c-0.4-0.8-0.7-1.2-1.3-1.8c3.6-0.9,6.6-2.1,9.6-3.7c2.1-1.1,3.4-2.1,5.4-3.8c-0.3-1.2-0.6-1.8-1-2.6c-0.2,0.1-0.4,0.2-0.5,0.3
			c-3.5,2.4-7.2,4.1-12.1,5.5c-0.4-0.8-0.6-1.2-1.2-1.8c3-0.7,4.7-1.3,7.4-2.5c2.2-1,3.3-1.6,5.4-3.1c-0.7-1-1.1-1.5-1.9-2.2
			c-2.8,1.6-4.9,2.4-9,3.5c-0.5-0.8-0.6-1.1-1.2-1.7c5-1.1,8.2-2.4,11.3-4.4h-4.7c-1.2,0-2.2,0.1-3.1,0.2v-2.1
			c0.8,0.1,1.7,0.2,3.1,0.2h13.6c1.5,0,2.4,0,3.2-0.2v2.1c-1-0.1-1.9-0.2-3.2-0.2h-6.3c-0.2,0.1-0.2,0.1-0.4,0.4
			c-0.6,0.5-0.8,0.6-1.8,1.3c1.4,1.1,2.7,3,3.5,5.2c3-1.7,6.1-4.4,7-6.1L869.3,546.8z M857.5,538.1c-0.6-1.1-0.9-1.6-1.6-2.6
			l1.7-0.8c1,1.4,1.5,2.2,2.1,3.4h9.2c1.4,0,2.2,0,3.3-0.1c-0.1,0.6-0.1,1.2-0.1,2.1v2c0,1,0,1.5,0.1,2.2H870v-4.4h-22.8v4.4h-2.1
			c0.1-0.7,0.1-1.3,0.1-2.2v-2c0-0.9,0-1.5-0.1-2.1c1,0.1,1.8,0.1,3.2,0.1H857.5z"/>
		<path id="XMLID_4515_" class="st1" d="M880.3,538.6c0-1.3-0.1-2.1-0.2-3.1h2.4c-0.2,1-0.2,1.7-0.2,3v5h0.7c1.3,0,2-0.1,2.6-0.2
			v2.1c-0.8-0.1-1.5-0.1-2.6-0.1h-0.7v9.8c1.3-0.5,1.9-0.8,3.5-1.6l0.2,1.9c-2.4,1.2-3.9,1.9-8,3.6c-0.6,0.2-0.8,0.3-1.4,0.6
			l-0.6-2.2c1-0.2,2-0.5,4.3-1.4v-10.6h-1.2c-1.3,0-1.8,0-2.6,0.2v-2.2c0.8,0.2,1.4,0.2,2.6,0.2h1.2V538.6z M896.8,547.3
			c1.5-2.6,2-3.9,2.7-6.3l2,0.6c-1.1,2.6-1.6,3.7-2.7,5.7h3.3c1.5,0,2.5-0.1,3.2-0.2v2.2c-0.8-0.1-1.8-0.2-3.2-0.2h-14
			c-1.5,0-2.4,0.1-3.1,0.2v-2.2c0.7,0.1,1.6,0.2,3,0.2H896.8z M901.4,538.8c1.5,0,2.4-0.1,3.2-0.2v2.1c-0.7-0.1-1.6-0.2-3.1-0.2
			h-12.4c-1.5,0-2.3,0-3.1,0.2v-2.1c0.8,0.1,1.7,0.2,3.2,0.2h5c-0.6-1.4-0.9-1.8-1.7-3l1.8-0.7c0.9,1.5,1.6,2.6,2,3.7H901.4z
			 M889.5,564h-2.2c0.1-0.8,0.2-1.6,0.2-2.9v-6.3c0-1.3,0-1.9-0.1-2.7c0.7,0.1,1.6,0.1,2.6,0.1h10.2c1.1,0,1.8,0,2.5-0.1
			c-0.1,0.7-0.1,1.4-0.1,2.8v6.4c0,1.2,0,1.8,0.1,2.7h-2.2v-2h-11V564z M890.4,541c1.1,2.5,1.3,3,2,5.2l-1.8,0.6
			c-0.5-2.2-0.9-3.2-1.9-5.2L890.4,541z M889.5,560.3h11v-6.2h-11V560.3z"/>
		<path id="XMLID_4512_" class="st1" d="M923.9,540.6c-0.1,0.5-0.1,0.5-0.2,1.1c-0.1,0.4-0.2,0.7-0.3,1.4h8c1.5,0,2.3,0,3.1-0.2v2
			c-0.8-0.1-1.6-0.2-3.1-0.2h-8.4c-0.3,1-0.7,1.9-1.1,2.7H934c1.6,0,2.6-0.1,3.4-0.2v2.1c-0.9-0.1-1.7-0.2-3.4-0.2h-6.5
			c2.2,2.5,5.8,4.4,10.3,5.6c-0.6,0.7-0.8,1.1-1.2,2c-5.6-2-8.8-4.2-11.6-7.6h-4.4c-1.2,1.6-1.9,2.4-3.3,3.5l2.2,0.1
			c-0.1,0.4-0.1,0.6-0.2,1.4c-0.2,3.3-0.8,5.1-2.2,6.7c-0.6,0.7-1.6,1.5-2.7,2.1c-0.9,0.5-1.6,0.9-3.8,1.7c-0.6-1-0.7-1.1-1.4-1.8
			c3-0.9,4.5-1.6,5.9-2.7c1.5-1.2,2.2-3.1,2.2-5.7c0-0.6,0-1.1-0.1-1.5c-2.1,1.6-4.1,2.6-7.8,4.1c-0.4-0.7-0.7-1.1-1.5-1.7
			c3.1-0.9,4.8-1.6,6.7-2.8c1.5-0.9,2.6-1.8,3.6-3.1h-6.2c-1.6,0-2.5,0-3.4,0.2v-2.1c0.8,0.1,1.8,0.2,3.4,0.2h7.4
			c0.6-1.1,0.8-1.6,1.2-2.7h-5.6c-1.5,0-2.3,0-3.1,0.2v-2c0.8,0.1,1.6,0.2,3.1,0.2h6.1c0.2-0.7,0.2-0.7,0.5-2.5h-8.2
			c-1.4,0-2.4,0-3.3,0.2v-2c0.9,0.1,1.7,0.2,3.3,0.2h4.5c-0.7-1.2-1.5-2.3-2.6-3.5l1.8-0.7c1.2,1.4,1.9,2.4,3,4.2h5.3
			c0.2-0.2,0.2-0.2,0.4-0.5c0.8-1,1.5-2.1,2.3-3.5l2,0.7c-1.3,1.8-1.5,2-2.5,3.2h4.7c1.7,0,2.6,0,3.3-0.2v2
			c-0.9-0.1-1.8-0.2-3.3-0.2H923.9z M926.1,564.2c0.1-0.9,0.2-1.7,0.2-3.3V555c0-1.4,0-1.8-0.2-2.5h2.4c-0.1,0.7-0.2,1.3-0.2,2.3
			v6.1c0,1.4,0.1,2.3,0.2,3.3H926.1z"/>
		<path id="XMLID_4510_" class="st1" d="M946.7,538.9c-1.5,0-2.6,0.1-3.9,0.2v-2.4c1.2,0.2,2.4,0.2,3.9,0.2h16.8
			c1.6,0,2.5,0,3.1-0.1l1.3,1.5c-1.2,1.3-1.8,1.9-2.6,2.6c-2.7,2.4-5,3.9-8.7,5.9v14.6c0,1.1-0.3,1.8-1,2.2
			c-0.5,0.2-1.3,0.3-2.9,0.3c-1.2,0-2.2-0.1-4.4-0.3c-0.1-0.9-0.2-1.4-0.5-2.3c2,0.4,3.5,0.5,5.2,0.5c1,0,1.3-0.2,1.3-0.7V548
			c0-1.4,0-2.2-0.2-3.2h1.9c3.1-1.6,5.4-3.2,8.3-5.9H946.7z"/>
		<path id="XMLID_4508_" class="st1" d="M504.7,593.6c1,3.9,2.8,7.5,5.3,10.4c2.4,2.7,5.1,4.7,8.7,6.3c-0.6,0.8-0.9,1.1-1.4,2.2
			c-7.3-3.8-11.2-8.5-13.5-15.9c-0.6,3.6-2.3,7.2-4.6,9.8c-1.5,1.7-3.5,3.4-5.6,4.6c-0.9,0.5-1.6,0.8-3,1.5c-0.5-0.9-0.7-1.3-1.4-2
			c4-1.6,6.4-3.2,8.5-5.6c2-2.4,3.4-5.3,4.1-8.7c0.1-0.7,0.2-1.3,0.4-2.5h-8.8c-1.7,0-2.6,0.1-3.5,0.2v-2.5c0.8,0.2,1.9,0.2,3.6,0.2
			h8.9c0-0.2,0-0.2,0-0.6c0.1-1,0.1-2,0.1-3.2c0-1.5-0.1-2.7-0.2-3.5h2.6c-0.2,1.1-0.2,1.8-0.2,3.4c0,1.2-0.1,2.5-0.2,4h9.8
			c1.6,0,2.7-0.1,3.6-0.2v2.5c-1-0.2-1.9-0.2-3.5-0.2H504.7z"/>
		<path id="XMLID_4504_" class="st1" d="M525.7,587.2c0-1.5-0.1-2.3-0.2-3.3h2.4c-0.2,0.9-0.2,1.7-0.2,3.3v3.1h1.4
			c0.9,0,1.5,0,2.1-0.1v2.1c-0.8-0.1-1.2-0.1-2.1-0.1h-1.4v6.3c1.3-0.6,1.8-0.8,3.3-1.5l0.1,1.9c-1.7,0.9-2.2,1.1-3.3,1.6v10.2
			c0,1.8-0.6,2.2-3.4,2.2c-0.5,0-1,0-1.9-0.1c0-0.7-0.1-1.2-0.4-2c1.1,0.2,2,0.3,2.9,0.3c0.6,0,0.8-0.1,0.8-0.6v-9.1
			c-0.6,0.3-1.4,0.5-2.3,0.9c-0.3,0.1-1,0.4-1.3,0.5l-0.6-2.2c1-0.1,1.5-0.3,4.2-1.3v-7.1h-1.8c-0.8,0-1.3,0-2.1,0.1v-2.1
			c0.7,0.1,1.2,0.2,2.1,0.2h1.8V587.2z M534.7,609.6c2.5-0.9,3-1,4.7-1.8l0.1,2.1c-1.4,0.5-5.4,1.9-6.8,2.4l-0.8-2
			c0.8-0.4,0.9-0.6,0.9-1.9v-21.3c0-1.2-0.1-1.8-0.2-2.8h2.4c-0.2,0.9-0.2,1.5-0.2,2.8v6.5h3c1.2,0,1.6,0,2.3-0.2v2.3
			c-0.7-0.1-1.4-0.2-2.2-0.2h-3.1V609.6z M543.1,609.4c0,0.7,0.3,0.9,2,0.9c2.1,0,2.7-0.2,3-0.7c0.4-0.7,0.5-2.6,0.6-6.1
			c0.7,0.4,1.2,0.6,1.9,0.9c-0.3,4.5-0.6,6.1-1.3,6.8c-0.6,0.7-2,1-4.5,1c-3,0-3.9-0.5-3.9-2.2V587c0-1.2-0.1-1.8-0.2-2.7h2.4
			c-0.2,0.9-0.2,1.5-0.2,2.7v9c2.6-1.8,5.2-4.4,6.1-6.2l1.5,1.7c-0.4,0.3-0.4,0.3-2.4,2.4c-1.5,1.6-3.1,2.8-5.3,4.4V609.4z"/>
		<path id="XMLID_4499_" class="st1" d="M558.7,601.7c0-1.4,0-2.3,0.1-3.9c-1.2,1.5-2.1,2.4-3.7,3.6c-0.4-0.8-0.7-1.3-1.3-1.8
			c2.5-1.7,4.6-3.7,6.5-6.4c0.7-1,1.2-1.9,1.5-2.8l2,1.1c-0.4,0.5-0.5,0.6-1,1.4c-0.7,1.1-1.3,1.8-2.2,2.9v13c0,1.7,0.1,3,0.2,3.9
			h-2.5c0.2-0.9,0.2-2.2,0.2-3.9V601.7z M563.2,584.9c-0.2,0.2-0.3,0.3-0.6,0.7c-1.9,2.6-4.3,4.9-7.2,7c-0.5-0.7-0.8-1.1-1.5-1.6
			c1.8-1.2,3-2.1,4.3-3.4c1.6-1.6,2.4-2.7,2.9-3.9L563.2,584.9z M577.4,609.7c0,2.1-0.7,2.6-3.6,2.6c-1.2,0-2.4,0-3.9-0.2
			c-0.1-0.9-0.2-1.5-0.5-2.2c1.9,0.3,3.2,0.4,4.5,0.4c1.1,0,1.4-0.1,1.4-0.8v-14h-7.4c-1.5,0-2.8,0.1-3.6,0.2v-2.3
			c0.8,0.1,2,0.2,3.6,0.2h11.3c1.6,0,2.8-0.1,3.5-0.2v2.3c-0.8-0.1-2-0.2-3.5-0.2h-1.8V609.7z M565.6,585.4c0.9,0.1,1.9,0.2,3.4,0.2
			h9c1.5,0,2.4-0.1,3.3-0.2v2.3c-1-0.1-2-0.2-3.3-0.2h-9c-1.3,0-2.4,0.1-3.4,0.2V585.4z"/>
		<path id="XMLID_4495_" class="st1" d="M604.9,584.5c-0.2,0.9-0.2,2-0.2,3.4v21.2h6.8c1.4,0,2.3-0.1,3.4-0.2v2.3
			c-1.1-0.1-2-0.2-3.4-0.2h-22.1c-1.3,0-2.2,0.1-3.4,0.2v-2.3c1,0.1,1.9,0.2,3.4,0.2h6.6v-21.3c0-1.6-0.1-2.4-0.2-3.3h2.5
			c-0.2,1.1-0.2,1.6-0.2,3.2v21.4h4.5v-21.2c0-1.9,0-2.4-0.2-3.4H604.9z M589.6,590.9c1.3,3.3,2,5.4,3.4,10.6l-2,0.7
			c-1.2-4.7-2-7.5-3.3-10.6L589.6,590.9z M613.2,591.9c-0.2,0.7-0.4,1.3-0.5,1.6c-1.4,4.6-2.1,6.3-3.9,9.3l-1.7-1
			c1.9-3.2,3.3-6.9,4.1-10.7L613.2,591.9z"/>
		<path id="XMLID_4490_" class="st1" d="M622,598.2c0-1.4,0-2.4,0.1-3.8c-1.2,2.2-2,3.2-3.5,4.9c-0.1-0.2-0.2-0.3-0.2-0.4
			c-0.3-0.7-0.3-0.7-1-1.6c2.7-2.9,4.4-5.7,6.1-9.7c0.8-1.8,1.2-3.1,1.4-4l2.3,0.7c-0.2,0.4-0.4,0.8-0.8,1.8
			c-0.5,1.2-1.4,3.4-2.4,5.2V609c0,1.5,0.1,2.7,0.2,3.8h-2.4c0.1-1.2,0.2-2.2,0.2-3.9V598.2z M633.8,591.5c0.1-1.3,0.1-3.5,0.1-4.7
			c0-1.5,0-2.2-0.2-3h2.4c0,0.4-0.1,2.1-0.2,5.1c0,0.7,0,0.8-0.1,2.6h7.7c1.5,0,2.3,0,3.1-0.2v2.3c-0.8-0.1-1.5-0.2-3-0.2h-7.8
			c-0.3,3.8-0.8,6.6-1.5,9c-1.3,4.1-3.5,7.3-7.1,10.3c-0.5-0.8-0.7-1.1-1.6-1.8c2.3-1.7,3.5-2.9,4.6-4.7c2.1-3.2,3-6.6,3.5-12.8
			h-4.5c-1.4,0-2.1,0-2.9,0.2v-2.3c0.7,0.1,1.5,0.2,2.9,0.2H633.8z M639.4,608.9c0,0.8,0.4,1,2.5,1c2,0,2.5-0.2,2.8-1
			c0.3-0.9,0.5-2.2,0.5-4.6c0.6,0.4,1.3,0.7,2,0.8c-0.1,2.7-0.4,4.1-0.8,5.1c-0.5,1.3-1.5,1.6-4.8,1.6c-3.5,0-4.1-0.3-4.1-2.3V599
			c0-1.1,0-1.7-0.1-2.8h2.3c-0.1,0.8-0.2,1.5-0.2,2.8V608.9z M641,584.3c1.9,1.7,2.9,2.8,4.4,4.8l-1.6,1.3c-1.4-2-2.5-3.3-4.3-5
			L641,584.3z"/>
		<path id="XMLID_4487_" class="st1" d="M663.9,587.4c-4,0.3-5.9,0.4-9.6,0.5c-0.2-0.8-0.4-1.1-0.9-1.9c1.2,0,2.1,0,2.6,0
			c7.2,0,14.7-0.9,18.7-2.2l1.4,1.9c-0.1,0-0.3,0-0.3,0.1c-0.4,0-0.4,0-0.6,0.1c-0.3,0.1-1.2,0.2-2.6,0.5c-2,0.4-4,0.6-6.7,0.9v3.3
			h9.4c1.6,0,2.7-0.1,3.6-0.2v2.2c-1-0.1-2.1-0.2-3.6-0.2h-7.6c2.6,2.4,7.4,4.6,12.2,5.6c-0.5,0.6-0.8,1-1.2,1.9
			c-3.1-0.9-4.7-1.5-7-2.7c-2.6-1.4-4.2-2.6-5.9-4.4c0.1,0.8,0.1,1.3,0.1,1.8v1.3c0,1.1,0,1.7,0.2,2.4h-2.3c0.1-0.6,0.2-1.3,0.2-2.4
			v-1.2c0-0.5,0-0.9,0.1-1.7c-1.4,1.7-3,3-5.2,4.3c-2.1,1.2-4.4,2.2-7,3.1c-0.4-0.8-0.7-1.3-1.2-1.8c5-1.4,9-3.4,11.5-5.9h-7.4
			c-1.5,0-2.5,0.1-3.5,0.2v-2.2c0.9,0.1,2,0.2,3.5,0.2h9.2V587.4z M658.3,600.8c-1.5,0-2.2,0-3.1,0.2v-2.1c0.7,0.1,1.6,0.2,3.2,0.2
			h9.1c1.6,0,2.4,0,3.3-0.1c-0.2,0.4-0.2,0.4-0.4,1.5c0,0.1-0.1,0.5-0.3,1c-0.1,0.4-0.3,0.9-0.5,1.7h4.6c0.9,0,1.6,0,2.3-0.1
			c-0.1,0.3-0.1,0.4-0.1,0.9c-0.4,3.1-0.8,5.5-1.3,6.7c-0.5,1.4-1.3,1.8-3.3,1.8c-1.2,0-2.7-0.1-4.3-0.3c-0.1-1-0.2-1.4-0.6-2.2
			c1.8,0.4,3.3,0.6,4.9,0.6c0.9,0,1.3-0.2,1.5-0.7c0.3-0.7,0.7-2.6,0.9-4.9h-4.3c-1.8,0-2.2,0-3.1,0.1c0.5-1.3,0.8-2.1,1.3-4.2h-5.5
			c-0.7,3.5-1.3,5.1-2.9,7.2c-0.9,1.2-2.4,2.5-4,3.4c-0.7,0.5-1.3,0.7-3,1.5c-0.6-1.1-0.7-1.2-1.4-1.8c5.7-2,8.5-5.1,9.1-10.3H658.3
			z"/>
		<path id="XMLID_4485_" class="st1" d="M698.5,584.1c-0.1,0.5-0.2,1.9-0.2,2.9c0,1.9,0.4,5.2,0.7,7c0.5,2.6,2.3,6.4,4.2,9
			c1.3,1.8,3,3.6,4.8,5.1c1,0.9,1.9,1.4,3.7,2.5c-0.8,0.7-1.1,1.1-1.7,2c-3.9-2.7-6.3-4.9-8.5-8.3c-2-2.9-3.2-5.9-4.2-10.3
			c-0.6,3.1-1.1,4.8-2.2,7.2c-1.1,2.5-2.5,4.5-4.6,6.6c-1.8,1.9-3.1,2.9-5.9,4.7c-0.5-0.9-0.9-1.3-1.7-1.9c3.3-1.8,4.7-2.9,6.6-4.9
			c4.5-4.8,6.7-11,6.7-19c0-1.3,0-2-0.2-2.8H698.5z"/>
		<path id="XMLID_4483_" class="st1" d="M731.8,587c0-1-0.1-1.9-0.2-3.2h2.5c0,0.5-0.1,0.7-0.1,1.3c0,0.5-0.1,1.5-0.1,2v3.1h6.2
			c1.4,0,2.5-0.1,3.4-0.2v2.4c-0.9-0.1-2.1-0.2-3.4-0.2H734v17.6c0,2-0.9,2.7-3.4,2.7c-1.3,0-2.7-0.1-4.1-0.2
			c-0.1-0.8-0.3-1.4-0.6-2.3c1.7,0.3,3.1,0.5,4.3,0.5c0.5,0,0.7,0,1-0.1c0.5-0.1,0.7-0.5,0.7-1v-11.7c0,0,0-0.6,0.1-1.4
			c0-0.3,0-0.8,0-1.5c0-0.6,0-0.9,0-1.5c-3.6,5.7-8.1,10.3-14.7,15.1c-0.7-0.7-0.9-0.9-1.9-1.4c5.8-3.8,11.2-9.1,15-14.6H719
			c-1.4,0-2.4,0.1-3.4,0.2v-2.4c0.9,0.1,2,0.2,3.4,0.2h12.8V587z"/>
		<path id="XMLID_4481_" class="st1" d="M752.5,610.2c0,2.4-0.4,3.2-2,4.1l-0.9-1.1c1.3-0.6,1.6-1.1,1.5-3.1h-1.9V607h3.2V610.2z"/>
		<path id="XMLID_4479_" class="st1" d="M787.2,595.2c-1.8,2.1-3.1,3.1-5.9,4.6c-0.5-0.7-0.8-1.1-1.5-1.7c3.4-1.5,5.4-3.1,7-5.6
			c0.9-1.4,1.5-2.9,1.8-4.5c0.1-0.2,0.1-0.2,0.2-1.1h-4.1c-1.4,0-2.4,0.1-3.3,0.2v-2.2c1,0.1,2,0.2,3.3,0.2h13c1.6,0,2.5,0,3.3-0.1
			c-0.1,0.3-0.1,0.3-0.3,1c-0.3,1-0.3,1.1-1.3,4.2l5.6,0c1.3,0,1.8,0,2.5-0.1c0,0.1-0.1,0.3-0.1,0.3c-0.1,0.8-0.1,0.8-0.3,2.3
			c-0.3,3-0.7,4.7-1.2,5.6c-0.3,0.5-0.7,0.8-1.1,1c-0.3,0.1-1.5,0.2-2,0.2c-0.4,0-0.6,0-1.7-0.2c-0.1-1-0.2-1.4-0.5-2.1
			c1.1,0.3,1.7,0.4,2.4,0.4c1.1,0,1.3-0.2,1.6-1.2c0.3-0.8,0.4-1.5,0.7-4.4h-5.8c-0.1,0-0.4,0-0.7,0.1c-0.1,0-0.5,0-1.1,0.1
			c-0.2,0-0.5,0-0.9,0.1c0.7-1.9,1-2.7,1.6-5.2h-7.6c-0.3,1.8-0.5,2.4-0.9,3.6c-0.6,1.7-1.4,3-2.5,4.4c0.7,0.1,1.6,0.1,2.9,0.1h7.7
			c1.3,0,1.9,0,2.5-0.1l1.2,1.3c-0.3,0.3-0.6,0.5-0.7,0.6c-2.4,1.9-3.3,2.5-5.5,3.8v1.8h8.9c1.5,0,2.5-0.1,3.6-0.2v2.2
			c-1.1-0.1-2.2-0.2-3.6-0.2h-8.9v5.6c0,1.2-0.3,1.9-1,2.3c-0.6,0.4-1.3,0.5-3.1,0.5c-0.9,0-1.9,0-3.3-0.2c-0.1-0.8-0.2-1.4-0.5-2.1
			c1.6,0.3,3,0.4,4.1,0.4c1.6,0,1.8-0.2,1.8-1.2v-5.3h-9.5c-1.5,0-2.6,0.1-3.7,0.2v-2.2c1,0.1,2.1,0.2,3.7,0.2h9.5v-1.2
			c0-0.6,0-1.3-0.1-1.9h1.2c1.6-0.8,2.4-1.4,3.9-2.5h-8.1c-1.3,0-2.1,0-3.1,0.2V595.2z"/>
		<path id="XMLID_4474_" class="st1" d="M815.3,588.3c-1.3,0-2.3,0.1-3.3,0.2v-2.1c0.9,0.1,1.8,0.2,3.3,0.2h10.2
			c-0.5-0.7-0.8-1.1-1.8-2.3l1.8-1c1.1,1.3,1.3,1.6,2.4,3.3h9.3c1.5,0,2.4-0.1,3.3-0.2v2.1c-1.1-0.1-2-0.2-3.2-0.2h-13.1
			c-2.8,2.6-4.2,3.7-5.5,4.5c6.6-0.1,11.4-0.4,14.3-0.7c-1.3-0.9-1.8-1.1-3.3-1.9l1.3-1.4c3.6,2.1,5.2,3.2,8.4,5.8L838,596
			c-1.5-1.3-2-1.8-2.9-2.5c-1.2,0.1-2.2,0.2-3.1,0.3c-2.3,0.2-6.7,0.5-10,0.5l-5.6,0.2c-0.5,0-0.8,0-1.5,0.1l-0.3-1.8
			c0.2-0.1,0.4-0.1,0.5-0.1c0.6-0.2,0.6-0.2,2-0.8c1.6-1,3.4-2.5,4.5-3.7H815.3z M818.4,609.2c0,1.6,0,2.6,0.2,3.5h-2.4
			c0.1-1.1,0.2-2.2,0.2-3.7V599c0-1.3,0-2.2-0.2-3.1c0.8,0.1,1.9,0.1,3.7,0.1h12.6c1.8,0,2.6,0,3.5-0.1c-0.1,0.8-0.1,1.8-0.1,3.4
			v10.5c0,2-0.8,2.5-3.3,2.5c-0.7,0-1.6,0-1.9,0c-1.3-0.1-1.3-0.1-1.9-0.1c-0.1-0.7-0.2-1.2-0.5-1.9c1.7,0.2,2.8,0.3,4.1,0.3
			c1.2,0,1.4-0.1,1.4-0.9v-3h-15.5V609.2z M833.9,597.8h-15.5v2.6h15.5V597.8z M818.4,604.9h15.5v-2.8h-15.5V604.9z"/>
		<path id="XMLID_4472_" class="st1" d="M850,587.4c-1.5,0-2.6,0.1-3.9,0.2v-2.4c1.2,0.2,2.4,0.2,3.9,0.2h16.8c1.6,0,2.5,0,3.1-0.1
			l1.3,1.5c-1.2,1.3-1.8,1.9-2.6,2.6c-2.7,2.4-5,3.9-8.7,5.9v14.6c0,1.1-0.3,1.8-1,2.2c-0.5,0.2-1.3,0.3-2.9,0.3
			c-1.2,0-2.2-0.1-4.4-0.3c-0.1-0.9-0.2-1.4-0.5-2.3c2,0.4,3.5,0.5,5.2,0.5c1,0,1.3-0.2,1.3-0.7v-13.1c0-1.4,0-2.2-0.2-3.2h1.9
			c3.1-1.6,5.4-3.2,8.3-5.9H850z"/>
		<path id="XMLID_4470_" class="st1" d="M880.1,610.3c-2,0-2.5,0-3.5,0.2c0.4-2.5,0.5-3,0.9-4.3c0.8-2,2.2-3.8,4.2-5.5
			c1.1-1,1.2-1,4.9-3.5c3.2-2.2,4.3-3.6,4.3-5.5c0-2.5-2.1-4-5.4-4c-2.1,0-3.7,0.7-4.7,2.1c-0.6,0.9-0.9,1.6-1.1,3.3l-2.7-0.5
			c0.5-2.3,1-3.4,2-4.6c1.5-1.6,3.6-2.5,6.5-2.5c4.9,0,8,2.5,8,6.3c0,1.6-0.6,3.2-1.9,4.6c-1,1.1-1.8,1.7-5.5,4.2
			c-2.5,1.7-3.6,2.6-4.6,4c-1,1.3-1.5,2.2-1.8,3.7h10.3c1.6,0,2.7-0.1,3.9-0.2v2.7c-1.3-0.1-2.4-0.2-4-0.2H880.1z"/>
		<path id="XMLID_4467_" class="st1" d="M900.5,608.5c-0.9-0.9-1.5-1.9-1.9-3c-0.8-2.3-1.2-4.8-1.2-7.4c0-3.4,0.7-6.9,1.9-8.8
			c1.5-2.6,4-4,7.2-4c2.4,0,4.4,0.8,5.9,2.3c0.9,0.9,1.5,1.9,1.9,3c0.8,2.2,1.2,4.8,1.2,7.5c0,3.9-0.8,7.4-2.3,9.3
			c-1.6,2.3-3.9,3.4-6.8,3.4C904,610.8,902,610,900.5,608.5z M902.3,589.2c-0.7,0.7-1.2,1.5-1.5,2.4c-0.7,2-1,4.2-1,6.5
			c0,3,0.6,6.2,1.5,7.7c1.1,1.9,2.8,2.8,5,2.8c1.6,0,3-0.5,4-1.5c0.7-0.7,1.2-1.6,1.5-2.5c0.7-2,1-4.1,1-6.5c0-2.8-0.6-6-1.5-7.5
			c-1.1-1.9-2.8-2.9-5.1-2.9C904.7,587.6,903.4,588.1,902.3,589.2z"/>
		<path id="XMLID_4464_" class="st1" d="M921.7,608.5c-0.9-0.9-1.5-1.9-1.9-3c-0.8-2.3-1.2-4.8-1.2-7.4c0-3.4,0.7-6.9,1.9-8.8
			c1.5-2.6,4-4,7.2-4c2.4,0,4.4,0.8,5.9,2.3c0.9,0.9,1.5,1.9,1.9,3c0.8,2.2,1.2,4.8,1.2,7.5c0,3.9-0.8,7.4-2.3,9.3
			c-1.6,2.3-3.9,3.4-6.8,3.4C925.2,610.8,923.2,610,921.7,608.5z M923.5,589.2c-0.7,0.7-1.2,1.5-1.5,2.4c-0.7,2-1,4.2-1,6.5
			c0,3,0.6,6.2,1.5,7.7c1.1,1.9,2.8,2.8,5,2.8c1.6,0,3-0.5,4-1.5c0.7-0.7,1.2-1.6,1.5-2.5c0.7-2,1-4.1,1-6.5c0-2.8-0.6-6-1.5-7.5
			c-1.1-1.9-2.8-2.9-5.1-2.9C925.9,587.6,924.6,588.1,923.5,589.2z"/>
		<path id="XMLID_4460_" class="st1" d="M955.4,598.8c1.6,1.2,2.4,2.9,2.4,5.1c0,4.4-3.2,6.9-8.9,6.9c-5.9,0-9.2-2.5-9.2-6.9
			c0-2.3,0.9-4.1,2.9-5.4c1-0.6,1.7-0.9,2.9-1.1c-2.8-0.5-4.7-2.8-4.7-5.8c0-3.9,3.1-6.4,7.9-6.4c4.9,0,8,2.4,8,6.4
			c0,3-1.8,5.3-4.7,5.8C953.4,597.6,954.3,598,955.4,598.8z M942.4,603.7c0,3.1,2.4,4.9,6.4,4.9c2.3,0,4.1-0.6,5.2-1.7
			c0.8-0.7,1.2-1.9,1.2-3.2c0-3.2-2.4-5.1-6.4-5.1S942.4,600.6,942.4,603.7z M943.3,591.8c0,2.9,2.1,4.6,5.4,4.6
			c3.4,0,5.4-1.7,5.4-4.6c0-2.7-2.1-4.4-5.4-4.4C945.5,587.4,943.3,589.2,943.3,591.8z"/>
		<path id="XMLID_4457_" class="st1" d="M514.6,651.2c1.5,0,2.4-0.1,3.3-0.2v2.3c-0.9-0.1-1.9-0.2-3.3-0.2h-8.1v5.3
			c0,1.4,0.1,2.2,0.2,3h-2.5c0.2-0.8,0.2-1.5,0.2-3v-5.3h-11.6c-1.3,0-2.3,0.1-3.3,0.2V651c0.9,0.1,1.8,0.2,3.3,0.2h2.5v-6.4
			c0-0.7,0-1.3-0.1-1.9c0.7,0.1,1.4,0.1,2.3,0.1h7v-5.3h-7.6c-1.9,3.1-3.1,4.6-5.4,6.6c-0.5-0.7-0.8-1.1-1.5-1.5
			c3.2-2.7,4.9-5.1,6.4-8.7c0.4-0.9,0.6-1.7,0.8-2.4l2.3,0.6c-0.3,0.5-0.3,0.7-1.4,3c-0.1,0.2-0.1,0.3-0.2,0.5h16
			c1.4,0,2.1,0,2.9-0.2v2.2c-0.8-0.1-1.6-0.2-2.9-0.2h-7.3v5.3h5.8c1.3,0,2,0,2.9-0.2v2.1c-0.8-0.1-1.6-0.1-2.8-0.1h-5.9v6.3H514.6z
			 M504.3,644.9h-7.1v6.3h7.1V644.9z"/>
		<path id="XMLID_4454_" class="st1" d="M530.6,636.1c0-1.4-0.1-2.4-0.2-3.4h2.5c-0.2,0.9-0.2,1.9-0.2,3.4v21.6c0,1.5,0,2.5,0.2,3.4
			h-2.5c0.1-0.9,0.2-1.9,0.2-3.4v-4c-2.1,1.2-4.2,2.2-7.1,3.5c-0.5,0.3-0.9,0.5-1.3,0.6l-0.9-2.2c1-0.3,1.6-0.5,2.8-1
			c2.6-1.1,3.8-1.7,6.4-3.3v-9H525c-1.2,0-2,0.1-2.8,0.2v-2.3c0.6,0.1,1.4,0.2,2.8,0.2h5.6V636.1z M539.9,643.8
			c2.3-1.3,4.7-2.9,6.7-4.5c0.8-0.7,1.4-1.2,1.9-1.8l1.6,1.8c-0.5,0.4-0.6,0.5-1.2,0.9c-2.7,2.2-5,3.7-9,5.9v10.8
			c0,0.6,0.1,0.8,0.5,1c0.5,0.2,1.5,0.3,3,0.3c2.9,0,3.8-0.3,4.3-1.1c0.4-0.7,0.7-2.9,0.7-5.4c0.7,0.5,1.1,0.6,2,0.9
			c-0.2,3.5-0.7,5.6-1.6,6.5c-0.8,0.8-2.1,1-5.4,1c-4.7,0-5.7-0.5-5.7-2.7v-21.3c0-1.6-0.1-2.5-0.2-3.3h2.5c-0.2,1-0.2,1.9-0.2,3.3
			V643.8z"/>
		<path id="XMLID_4448_" class="st1" d="M563,652c-2.4,3.8-4.2,5.7-7.6,8.1c-0.6-0.9-0.8-1.1-1.5-1.7c1.9-1.2,2.9-1.9,4.2-3.2
			c1.4-1.4,2.1-2.4,3.1-4.3L563,652z M579,636.1c1.6,0,2.6-0.1,3.6-0.2v2.3c-0.8-0.2-1.7-0.2-3.5-0.2h-21.4c-1.7,0-2.6,0-3.5,0.2
			v-2.3c1,0.2,2,0.2,3.6,0.2h9.6c-0.8-1.2-1.6-2.2-2.7-3.2l1.9-1c1.4,1.5,2.1,2.5,3.3,4.3H579z M561.1,649.4c-1.3,0-1.9,0-2.9,0.1
			c0.1-0.8,0.1-1.5,0.1-2.6v-3.6c0-1.3,0-1.7-0.1-2.7c0.9,0.1,1.5,0.1,2.9,0.1h14c1.5,0,2.2,0,3-0.1c-0.1,0.8-0.1,1.4-0.1,2.7v3.6
			c0,1.1,0,1.8,0.1,2.6c-0.8-0.1-1.7-0.1-2.9-0.1h-5.6v9c0,1.9-0.8,2.4-3.5,2.4c-0.8,0-2,0-3.2-0.1c-0.1-0.9-0.2-1.3-0.5-2.1
			c1.4,0.2,2.4,0.3,3.5,0.3c1.4,0,1.6-0.1,1.6-0.8v-8.7H561.1z M560.4,647.6h15.5v-5.1h-15.5V647.6z M580.7,660.1
			c-2.5-3.2-4.3-5.1-7.5-8.1l1.5-1.3c3.1,2.8,5.3,5,7.6,7.7L580.7,660.1z"/>
		<path id="XMLID_4442_" class="st1" d="M602.4,653.8c1,1.4,2.4,2.5,4.2,3.4c2.5,1.2,5,1.8,8.6,2.1c-0.5,0.7-0.7,1.2-1.1,2.1
			c-4.6-0.6-8.2-2-10.9-4c-1.2-1-2.1-2-3-3.4c-0.9,1.8-2.5,3.5-4.5,4.7c-2.3,1.4-4.9,2.2-8.5,2.7c-0.3-0.8-0.5-1.4-1.1-2
			c5.9-0.4,9.9-2.3,12-5.6h-8.6c-1.3,0-2.3,0.1-3.2,0.2v-2.2c0.9,0.1,1.9,0.2,3.2,0.2h9.4c0.2-0.7,0.4-1.5,0.4-2.1
			c0-0.1,0-0.1,0-0.3l2.3,0.1c0,0.2,0,0.2-0.1,0.6c-0.1,0.6-0.3,1.3-0.4,1.6h10.4c1.4,0,2.3-0.1,3.2-0.2v2.2
			c-0.9-0.1-1.9-0.2-3.2-0.2H602.4z M597.3,635.1c0.8-1.3,1.3-2.2,1.7-3.6l2.2,0.5c-0.4,0.8-1.4,2.5-1.8,3.1h9.5
			c1.3,0,2.1,0,3.1-0.1c-0.1,0.7-0.1,1.3-0.1,2.2v11.2c0,1,0,1.6,0.1,2.3h-2.1v-13.8h-18.6v13.8h-2.1c0.1-0.7,0.1-1.3,0.1-2.3v-11.2
			c0-0.9,0-1.5-0.1-2.2c1,0.1,1.8,0.1,3.2,0.1H597.3z M595,643.9c-1.3,0-1.8,0-2.7,0.2v-1.9c0.7,0.1,1.4,0.2,2.7,0.2h4.5v-2.7
			c0-0.7-0.1-1.3-0.2-2h2.1c-0.1,0.7-0.1,1.1-0.1,2v2.7h5c1.3,0,1.9,0,2.6-0.2v1.9c-0.7-0.1-1.4-0.2-2.6-0.2h-4.2
			c2.7,1.4,4.3,2.4,6.5,4l-1.3,1.6c-1.5-1.2-1.9-1.5-4.8-3.6c-0.7-0.5-0.9-0.6-1.3-0.9v2.2c0,0.7,0,1,0.2,1.5h-2.1
			c0.1-0.4,0.2-0.7,0.2-1.6V646c0-0.4,0.1-1.3,0.1-1.8c-2,2.5-3.5,3.8-6.5,5.4c-0.3-0.7-0.5-1-1.1-1.5c2.7-1.3,4.6-2.6,6-4.2H595z
			 M594.9,637.6c1.1,1.2,1.6,1.8,2.5,3.3l-1.5,0.8c-0.7-1.4-1.4-2.3-2.5-3.4L594.9,637.6z M607.5,638.3c-1.1,1.7-1.7,2.6-2.8,3.7
			l-1.5-0.6c1.2-1.3,1.8-2.2,2.6-3.8L607.5,638.3z"/>
		<path id="XMLID_4437_" class="st1" d="M622.9,646.3h-2.3c-1.1,0-1.6,0-2.4,0.2v-2.1c0.7,0.1,1.2,0.2,2.5,0.2h1.9
			c1.1,0,1.6,0,2.4-0.2c-0.1,1-0.1,1.8-0.1,3.3v7.4c0.2,0.2,0.4,0.3,0.6,0.6c1.6,1.6,2.1,1.9,3.5,2.3c1.3,0.3,4,0.5,7.6,0.5
			c4.8,0,8.4-0.2,11.2-0.5c-0.4,0.8-0.5,1.3-0.8,2.3c-3,0.1-6.7,0.2-10.9,0.2c-4.3,0-7-0.3-8.5-0.9c-0.7-0.3-1.5-0.8-2-1.2
			c-0.1-0.1-0.5-0.5-1.1-1.2c-0.3-0.4-0.7-0.5-1-0.5c-0.7,0-2.7,1.8-4.3,3.9l-1.5-1.6c2.4-2.4,4-3.6,5.1-4V646.3z M620.7,632.9
			c2.2,2.1,3.1,3.1,5.1,5.6l-1.7,1.5c-1.9-2.7-2.6-3.6-4.9-5.8L620.7,632.9z M629.8,642.7c-1.3,0-2.3,0.1-3.1,0.3v-2.5
			c0.7,0.2,1.8,0.3,3.1,0.3h14.3c1.3,0,2.3-0.1,3.1-0.3v2.5c-0.7-0.2-1.8-0.3-3.1-0.3l-8.5,0c-1.1,3.1-1.3,3.5-2.2,5.6
			c-1.2,2.8-1.3,3-2.1,4.3c3.6-0.3,8.4-1,11-1.6c-0.6-1.4-1.6-3-3-5.1l1.7-0.9c3,4.7,4.1,6.6,5.8,10.3l-1.9,1
			c-0.6-1.5-1.2-2.8-1.7-3.5c-2.8,0.6-5.3,1-11.2,1.7c-1.7,0.2-2.2,0.3-3.9,0.5l-0.5-2.1c1.5-0.4,1.9-0.8,3-3.3
			c1.2-2.6,1.9-4.5,2.6-6.9L629.8,642.7z M644.6,635.9c-0.9-0.1-2-0.2-3-0.2h-9.4c-1.1,0-2.3,0.1-3.1,0.2v-2.4
			c0.7,0.2,1.7,0.2,3.1,0.2h9.4c1.4,0,2.4-0.1,3-0.2V635.9z"/>
		<path id="XMLID_4433_" class="st1" d="M666,632.9c2.1,2.6,3.7,4.2,6.4,6c2.5,1.8,4.7,2.9,7.9,4.2c-0.7,0.9-0.7,1.1-1.1,2.1
			c-3.6-1.7-5.5-2.8-7.9-4.5c-2.6-1.8-4-3.1-6.4-6.1c-2.2,2.8-4.1,4.6-6.5,6.4c-2.1,1.5-3.2,2.2-7,4.1c-0.4-1-0.7-1.5-1.2-1.9
			c3.9-1.6,6.2-3,9-5.5c2.4-2.1,3.4-3.4,5.2-6.4l2.1,1L666,632.9z M655.2,650.3c-1.6,0-2.7,0.1-3.7,0.2v-2.3c1,0.1,2.1,0.2,3.7,0.2
			h19.9c1.6,0,2.7-0.1,3.7-0.2v2.3c-1-0.1-2.1-0.2-3.7-0.2h-12c-1.1,1.8-1.6,2.6-2.7,4.1c-1.3,1.6-1.3,1.6-3.2,3.7
			c7.7-0.5,12.9-0.9,15.5-1.3c-2.6-3.2-2.6-3.2-3.8-4.4l1.8-0.9c3,3.3,4.6,5.3,7.1,9l-1.8,1.2c-0.9-1.5-1.2-2-2-3.1
			c-2.6,0.4-8.6,1-16,1.5c-2.5,0.2-2.6,0.2-4.2,0.5l-0.5-2.3c1-0.1,1.3-0.2,1.7-0.5c2.1-2.1,4.2-4.7,5.7-7.3H655.2z M657.3,642.3
			c0.6,0.1,1.4,0.1,2.5,0.1h10.4c1.3,0,2,0,2.7-0.1v2.2c-0.7-0.1-1.5-0.1-2.7-0.1h-10.4c-1,0-1.9,0-2.5,0.1V642.3z"/>
		<path id="XMLID_4426_" class="st1" d="M683.4,658.1c0.9,0.1,1.8,0.2,3.2,0.2H708c1.5,0,2.3-0.1,3.2-0.2v2.2
			c-0.9-0.1-1.8-0.2-3.2-0.2h-21.3c-1.4,0-2.3,0.1-3.2,0.2V658.1z M707.6,635.3c1.4,0,2.2,0,3.2-0.1c-0.1,0.7-0.1,1.3-0.1,2.2v1.7
			c0,1,0,1.6,0.1,2.3h-2.1v-4.3H686v4.3h-2.1c0.1-0.7,0.1-1.4,0.1-2.3v-1.8c0-0.8,0-1.5-0.1-2.2c1,0.1,1.9,0.1,3.2,0.1h9.3
			c-0.5-0.9-0.7-1.3-1.6-2.5l1.7-0.9c1,1.2,1.5,2.1,2.1,3.4H707.6z M707.3,641.7c-0.9-0.1-1.4-0.2-2.8-0.2h-14.2c-1.4,0-2,0-2.8,0.2
			v-2.1c0.8,0.1,1.4,0.2,2.8,0.2h14.2c1.5,0,2,0,2.8-0.2V641.7z M688,646.5c0-1.1,0-1.8-0.1-2.6c0.8,0.1,1.7,0.1,3,0.1h13
			c1.3,0,2.2,0,3-0.1c-0.1,0.8-0.1,1.5-0.1,2.6v6.4c0,1.1,0,1.8,0.1,2.6c-1-0.1-1.7-0.1-3-0.1h-12.9c-1.3,0-2,0-3,0.1
			c0.1-0.7,0.1-1.5,0.1-2.6V646.5z M690,645.8v3h14.7v-3H690z M690,650.5v3.3h14.7v-3.3H690z"/>
		<path id="XMLID_4423_" class="st1" d="M718.8,646.8c0-1.5,0-2.5,0.1-3.9c-1.1,1.9-1.5,2.5-3.5,4.9c-0.4-0.8-0.7-1.3-1.3-1.9
			c1.7-1.8,2.3-2.5,3.4-4.1c2-3,3.8-7.3,4.2-9.7l2.3,0.7c-0.2,0.4-0.2,0.4-0.7,1.7c-0.8,2.1-1.5,3.6-2.5,5.5v17.5
			c0,1.5,0.1,2.6,0.2,3.8h-2.5c0.2-1.1,0.2-2.1,0.2-3.9V646.8z M730.9,643.7c-0.9,2.6-1.3,4-1.4,4.3h8.6c1.5,0,2.1,0,2.8-0.1
			l1.4,1.5c-0.5,0.6-0.5,0.6-2.1,2.4c-3,3.6-3.4,4.1-4.8,5.6c1.1,0.9,1.5,1.4,3,3l-1.5,1.5c-2.8-3-5-4.9-8.5-7.1l1.5-1.3
			c1.7,1.1,2.2,1.4,3.8,2.7c0.1-0.1,0.1-0.1,0.3-0.3c1.2-1.3,2.9-3.4,4.9-5.9h-9.9c-0.1,0-0.4,0-0.9,0.1c-0.4,0-0.7,0-1.9,0.1
			c0.9-1.8,1.5-3.3,2.5-6.3h-3.1c-1.1,0-2.2,0.1-3.1,0.2v-2.1c0.7,0.1,1.6,0.2,3.1,0.2h3.6c0.6-2.2,0.6-2.2,1.2-4.4h-3.2
			c-1.2,0-2,0-2.9,0.2v-2.1c0.8,0.1,1.5,0.2,2.9,0.2h3.6c0.2-0.9,0.2-0.9,0.3-1.1c0.2-0.8,0.4-2,0.4-2.5c0-0.1,0-0.1,0-0.3l2.5,0.1
			c-0.3,0.9-0.3,0.9-1,3.7h6.6c1.5,0,2.3-0.1,3-0.2v2.2c-1-0.1-1.8-0.2-3-0.2h-7.1c-0.8,3.4-0.8,3.4-1.1,4.4h9.5
			c1.5,0,2.3,0,3.1-0.2v2.1c-1-0.1-2-0.2-3.1-0.2H730.9z"/>
		<path id="XMLID_4421_" class="st1" d="M763.6,640.5v-4.9c0-1.5-0.1-2.4-0.2-3.4h2.5c-0.2,1-0.2,1.8-0.2,3.4v4.9h6.3
			c1.4,0,2.5-0.1,3.4-0.2v2.4c-1-0.2-2.1-0.2-3.4-0.2h-17.9c-0.1,2.7-0.1,4.6-0.3,5.6h10.9c1.4,0,2.2,0,3.2-0.1
			c-0.1,1-0.2,1.9-0.2,3v6.7c0,1.5,0.1,2.6,0.2,3.7h-2.6c0.1-1.1,0.2-2.1,0.2-3.7V650h-11.9c-0.7,5.1-1.9,7.9-4.6,11.2
			c-0.5-0.7-1.1-1.3-1.8-1.7c1.7-1.7,2.6-3.3,3.4-5.8c0.9-2.8,1.3-6.7,1.3-11.8v-5.3c0-1.8-0.1-2.9-0.2-4h2.5
			c-0.1,1.1-0.2,2.3-0.2,3.8v4.1H763.6z"/>
		<path id="XMLID_4419_" class="st1" d="M782,652.6c2.6,2.1,4.3,3.9,6.5,6.8l-1.8,1.7c-2.1-3-3.9-5-6.4-7L782,652.6z"/>
		<path id="XMLID_4416_" class="st1" d="M832.3,636c0-2.4,0.4-3.2,2-4.2l0.9,1.1c-1.3,0.6-1.5,1.1-1.5,3.1h1.9v3.2h-3.2V636z
			 M837.4,636c0-2.4,0.4-3.2,2-4.2l0.9,1.1c-1.3,0.6-1.5,1.1-1.5,3.1h1.9v3.2h-3.2V636z"/>
		<path id="XMLID_4413_" class="st1" d="M851,651.1c2.1-0.7,3-1.1,5.1-2v2c-3.3,1.4-5.3,2.1-10.1,3.8c-0.6,0.2-1.1,0.4-1.5,0.6
			l-0.6-2.4c1.1-0.1,1.8-0.3,5.1-1.4v-14.2h-2.4c-1,0-1.6,0-2.4,0.2v-2.2c0.7,0.1,1.5,0.2,2.6,0.2h6.6c1.1,0,1.8,0,2.6-0.2v2.2
			c-0.7-0.1-1.5-0.2-2.4-0.2H851V651.1z M858.2,641.7c-1.6,0-2.5,0-3.1,0.2v-2.2c0.8,0.1,1.5,0.2,3,0.2h3.3c0.1-1.8,0.1-2.9,0.1-4.5
			c0-1.2,0-1.9-0.2-2.9h2.5c-0.1,0.9-0.2,1.5-0.2,2.5c0,2.5-0.1,3.3-0.2,4.9h6c1.5,0,2.3,0,2.8-0.1c-0.1,0.8-0.1,0.9-0.2,5.5
			c-0.2,4.9-0.7,10.5-1.3,12.7c-0.5,2.2-1.3,2.6-4.1,2.6c-1,0-2.1-0.1-3.6-0.3c-0.1-0.9-0.2-1.5-0.5-2.2c1.9,0.4,3.2,0.5,4.4,0.5
			c1.4,0,1.7-0.3,2-2.2c0.6-3.2,0.9-7.3,1.1-14.7h-6.7c-0.1,1.1-0.4,3-0.6,4.4c-1.3,6.8-4.1,11.3-9.4,15.1c-0.6-0.8-0.9-1.1-1.6-1.6
			c2.9-1.9,4.7-3.7,6.2-6.1c1.9-3,2.8-6.4,3.4-11.8H858.2z"/>
		<path id="XMLID_4411_" class="st1" d="M892,647.6c0.9,2.2,2,3.9,3.4,5.4c2.5,2.6,5.7,4.5,9.7,5.9c-0.6,0.7-0.9,1.1-1.3,2.1
			c-4.4-1.7-7.4-3.8-10-6.9c-1.5-1.7-2.5-3.4-3.3-5.6c-0.8,2.7-2,4.8-4,6.9c-2.3,2.4-4.9,4.1-8.6,5.7c-0.4-0.8-0.6-1.2-1.4-1.9
			c3.3-1.2,5.8-2.6,8-4.6c2.1-2,3.5-4.1,4.2-6.9h-8.2c-1.3,0-2.3,0.1-3.5,0.2v-2.3c1.1,0.2,2.1,0.2,3.5,0.2h8.5
			c0.3-2.7,0.3-2.8,0.4-6.3h-7.2c-1.4,0-2.4,0.1-3.5,0.2v-2.3c1.1,0.2,2.1,0.2,3.5,0.2h7.2c0-0.9,0.1-1.4,0.1-1.9
			c0-1.5-0.1-2.3-0.2-3.3h2.5c-0.2,1-0.2,1-0.3,5.2h7.7c1.7,0,2.7-0.1,3.6-0.2v2.3c-1-0.1-2-0.2-3.6-0.2h-7.8c0,0.6,0,1.1,0,1.4
			c-0.1,2.3-0.1,2.9-0.4,4.9h9.9c1.7,0,2.7-0.1,3.6-0.2v2.3c-1-0.1-2.1-0.2-3.6-0.2H892z"/>
		<path id="XMLID_4405_" class="st1" d="M930.3,640.2c1.9,0,2.8,0,3.7-0.2c-0.1,0.8-0.1,1.6-0.1,3v3.6c0,1.5,0,2.1,0.1,3
			c-0.8-0.1-1.7-0.2-3.6-0.2H925v7.9c0,0.9,0.7,1.1,4.9,1.1c3.5,0,4.7-0.2,5.2-0.7c0.4-0.5,0.4-1.1,0.5-3.9c0.9,0.5,1.3,0.6,2,0.8
			c-0.2,5.4-0.6,5.7-7.5,5.7c-6.1,0-7-0.3-7-2.4v-8.5h-0.4c-1,2.9-2.2,4.8-3.9,6.6c-2.1,2-4.6,3.5-8.4,4.7c-0.3-0.7-0.6-1.3-1.1-2
			c3.8-1.1,6.2-2.3,8.2-4.2c1.5-1.4,2.5-3,3.3-5.1H916c-1.9,0-2.6,0-3.6,0.2c0.1-0.9,0.1-1.6,0.1-3v-5.1c-0.8,0.7-1.2,1-2.2,1.8
			c-0.6-0.8-0.8-1-1.4-1.5c3.2-1.9,5.9-4.5,8-7.5c0.8-1.1,1.3-2,1.5-2.8l2.3,0.7c-0.4,0.5-0.6,0.8-1.1,1.6c-0.2,0.3-0.2,0.3-0.3,0.5
			h6.1c1.6,0,2.5,0,3-0.2l0.9,1.2c-0.3,0.3-0.3,0.4-0.7,0.8c-1.5,1.8-2.9,3.5-3.5,4H930.3z M922.7,640.2c1.6-1.5,2.4-2.5,3.6-4.2
			H918c-1.2,1.5-1.8,2.2-4,4.2H922.7z M914.4,642v5.8h6.6c0.5-2.2,0.6-3.2,0.7-5.8H914.4z M931.8,647.8V642h-8.1
			c-0.2,2.9-0.3,3.7-0.7,5.8H931.8z M932.3,656.7c-1.7-1.9-3.2-3.3-5.3-4.7l1.4-1.3c2.3,1.6,3.6,2.8,5.3,4.5L932.3,656.7z"/>
		<path id="XMLID_4402_" class="st1" d="M944.1,635c0,2.4-0.4,3.2-2,4.2l-0.9-1.1c1.3-0.6,1.5-1.1,1.5-3.1h-1.9v-3.2h3.2V635z
			 M949.2,635c0,2.4-0.4,3.2-2,4.2l-0.9-1.1c1.3-0.6,1.5-1.1,1.5-3.1H946v-3.2h3.2V635z"/>
		<path id="XMLID_4400_" class="st1" d="M975.4,652.6c2.6,2.1,4.3,3.9,6.5,6.8l-1.8,1.7c-2.1-3-3.9-5-6.4-7L975.4,652.6z"/>
		<path id="XMLID_4397_" class="st1" d="M509.9,684.5c0-2.4,0.4-3.2,2-4.2l0.9,1.1c-1.3,0.6-1.5,1.1-1.5,3.1h1.9v3.2h-3.2V684.5z
			 M515,684.5c0-2.4,0.4-3.2,2-4.2l0.9,1.1c-1.3,0.6-1.5,1.1-1.5,3.1h1.9v3.2H515V684.5z"/>
		<path id="XMLID_4391_" class="st1" d="M543.3,688.7c1.9,0,2.8,0,3.7-0.2c-0.1,0.8-0.1,1.6-0.1,3v3.6c0,1.5,0,2.1,0.1,3
			c-0.8-0.1-1.7-0.2-3.6-0.2H538v7.9c0,0.9,0.7,1.1,4.9,1.1c3.5,0,4.7-0.2,5.2-0.7c0.4-0.5,0.4-1.1,0.5-3.9c0.9,0.5,1.3,0.6,2,0.8
			c-0.2,5.4-0.6,5.7-7.5,5.7c-6.1,0-7-0.3-7-2.4v-8.5h-0.4c-1,2.9-2.2,4.8-3.9,6.6c-2.1,2-4.6,3.4-8.4,4.7c-0.3-0.7-0.6-1.3-1.1-2
			c3.8-1.1,6.2-2.3,8.2-4.2c1.5-1.4,2.5-3,3.3-5.1h-4.5c-1.9,0-2.6,0-3.6,0.2c0.1-0.9,0.1-1.6,0.1-3v-5.1c-0.8,0.7-1.2,1-2.2,1.8
			c-0.6-0.8-0.8-1-1.4-1.5c3.2-1.9,5.9-4.5,8-7.5c0.8-1.1,1.3-2,1.5-2.8l2.3,0.7c-0.4,0.5-0.6,0.8-1.1,1.6c-0.2,0.3-0.2,0.3-0.3,0.5
			h6.1c1.6,0,2.5,0,3-0.2l0.9,1.2c-0.3,0.3-0.3,0.4-0.7,0.8c-1.5,1.8-2.9,3.5-3.5,4H543.3z M535.7,688.7c1.6-1.5,2.4-2.5,3.6-4.2
			H531c-1.2,1.5-1.8,2.2-4,4.2H535.7z M527.5,690.5v5.8h6.6c0.5-2.2,0.6-3.2,0.7-5.8H527.5z M544.9,696.3v-5.8h-8.1
			c-0.2,2.9-0.3,3.7-0.7,5.8H544.9z M545.4,705.2c-1.7-1.9-3.2-3.3-5.3-4.7l1.4-1.3c2.3,1.6,3.6,2.8,5.3,4.5L545.4,705.2z"/>
		<path id="XMLID_4383_" class="st1" d="M560.2,703.9c-1.5,2.5-2.4,3.5-5,5.6c-0.4-0.7-0.8-1-1.5-1.5c2.4-1.6,3.6-2.8,4.8-5.1
			L560.2,703.9z M557,684c0-1.3-0.1-2.2-0.2-3.1h2.3c-0.1,0.8-0.2,1.8-0.2,3.1v0.6h5.9V684c0-1.5,0-2.3-0.2-3.1h2.2
			c-0.1,0.8-0.2,1.7-0.2,3.1v0.6c1.3,0,2-0.1,2.6-0.2v2.1c-0.7-0.1-0.7-0.1-2.6-0.1v13.7c1.4,0,1.9-0.1,2.5-0.2v2
			c-0.7-0.1-1.7-0.1-2.9-0.1h-9.8c-1.3,0-2,0-2.6,0.2V700c0.7,0.1,1.4,0.2,2.6,0.2h0.6v-13.7h-0.2c-1.3,0-2.2,0-2.8,0.2v-2.1
			c0.6,0.1,1.4,0.2,2.8,0.2h0.2V684z M564.9,689.8v-3.4h-5.9v3.4H564.9z M564.9,694.8v-3.3h-5.9v3.3H564.9z M564.9,700.1v-3.6h-5.9
			v3.6H564.9z M564.4,702.9c1.7,1.9,2.1,2.4,3,3.8l-1.4,1.2c-0.3-0.4-0.5-0.7-0.6-0.9c-0.6-1-0.6-1-1.2-1.7
			c-0.5-0.5-0.8-0.9-1.1-1.3L564.4,702.9z M580.4,691.4c1.4,0,2,0,2.8-0.2v2.2c-0.8-0.1-1.4-0.2-2.7-0.2h-0.9v13.2
			c0,1.5,0.1,2.5,0.2,3.5h-2.5c0.1-0.9,0.2-1.8,0.2-3.5v-13.2h-4.7c-0.2,5.4-0.3,6.8-0.8,9.2c-0.6,3-1.7,5.2-3.8,7.8
			c-0.6-0.7-0.9-1-1.7-1.5c2.5-2.6,3.4-4.7,3.8-8.5c0.3-2.8,0.5-6.9,0.5-11.4c0-2.1,0-3.1-0.2-4.5c4-0.1,8.4-1.3,10.6-2.9l1.5,1.8
			c-2.5,1-2.7,1.1-3.8,1.5c-2,0.6-3.5,0.9-6.1,1.3v3.5c0,0.9,0,1.2,0,1.9H580.4z"/>
		<path id="XMLID_4377_" class="st1" d="M606.1,683.8v-0.2c0-1.3-0.1-2.1-0.2-2.8h2.3c-0.1,0.8-0.2,1.7-0.2,2.8v0.2h3
			c1.4,0,2.4-0.1,3.3-0.2v2.1c-1-0.1-2-0.2-3.3-0.2h-3v10.3h3.5c1.3,0,2.4-0.1,3.3-0.2v2.1c-0.9-0.1-1.9-0.2-3.2-0.2h-4.9
			c2.2,2.1,4.8,3.4,9,4.4c-0.5,0.7-0.8,1.2-1.1,2c-4.8-1.6-7.6-3.4-10.3-6.4h-8c-2.4,3-5.3,4.9-9.9,6.5c-0.4-0.9-0.5-1.2-1.1-1.9
			c3.8-0.9,6.9-2.5,8.7-4.6h-4.7c-1.3,0-2.3,0.1-3.2,0.2v-2.1c0.9,0.1,1.9,0.2,3.2,0.2h3.5v-10.3h-2.4c-1.2,0-2.3,0.1-3.3,0.2v-2.1
			c0.8,0.1,1.8,0.2,3.3,0.2h2.4v-0.2c0-1.3-0.1-2.1-0.2-2.8h2.3c-0.1,0.8-0.2,1.7-0.2,2.8v0.2H606.1z M605.8,701.6
			c1.4,0,2,0,2.8-0.1v2c-0.8-0.1-1.5-0.1-2.8-0.1h-4.6v3.6h8.8c1.6,0,2.5,0,3.4-0.2v2.1c-1-0.1-2.1-0.2-3.5-0.2h-18.5
			c-1.4,0-2.5,0.1-3.5,0.2v-2.1c0.7,0.1,1.7,0.2,3.4,0.2h7.9v-3.6h-4c-1.3,0-1.9,0-2.8,0.1v-2c0.8,0.1,1.5,0.1,2.8,0.1h4v-0.3
			c0-1.2-0.1-1.8-0.2-2.6h2.2c-0.1,0.7-0.2,1.4-0.2,2.6v0.3H605.8z M594.8,687.9h11.3v-2.3h-11.3V687.9z M594.8,691.9h11.3v-2.3
			h-11.3V691.9z M594.8,695.9h11.3v-2.4h-11.3V695.9z"/>
		<path id="XMLID_4374_" class="st1" d="M621.7,683.5c0,2.4-0.4,3.2-2,4.2l-0.9-1.1c1.3-0.6,1.5-1.1,1.5-3.1h-1.9v-3.2h3.2V683.5z
			 M626.7,683.5c0,2.4-0.4,3.2-2,4.2l-0.9-1.1c1.3-0.6,1.5-1.1,1.5-3.1h-1.9v-3.2h3.2V683.5z"/>
		<path id="XMLID_4372_" class="st1" d="M653,701.1c2.6,2.1,4.3,3.9,6.5,6.8l-1.8,1.7c-2.1-3-3.9-5-6.4-7L653,701.1z"/>
		<path id="XMLID_4369_" class="st1" d="M703.3,684.5c0-2.4,0.4-3.2,2-4.2l0.9,1.1c-1.3,0.6-1.5,1.1-1.5,3.1h1.9v3.2h-3.2V684.5z
			 M708.4,684.5c0-2.4,0.4-3.2,2-4.2l0.9,1.1c-1.3,0.6-1.5,1.1-1.5,3.1h1.9v3.2h-3.2V684.5z"/>
		<path id="XMLID_4365_" class="st1" d="M743.4,707.6c-1-0.2-2-0.2-3.7-0.2h-20.1c-1.7,0-2.8,0.1-3.9,0.2V705
			c1.1,0.1,2.2,0.2,3.9,0.2h20.1c1.7,0,2.7-0.1,3.8-0.2V707.6z M718,682.9c1,0.2,1.9,0.2,3.7,0.2h15.4c1.8,0,2.8-0.1,3.9-0.2v2.5
			c-1.1-0.1-2.1-0.2-3.9-0.2h-15.4c-1.7,0-2.7,0.1-3.7,0.2V682.9z M720,693.4c0.8,0.1,1.8,0.2,3.4,0.2h12.3c1.5,0,2.5-0.1,3.4-0.2
			v2.5c-1-0.1-1.8-0.2-3.4-0.2h-12.3c-1.6,0-2.5,0-3.4,0.2V693.4z"/>
		<path id="XMLID_4360_" class="st1" d="M748.5,685.9c0-1.5-0.1-2.7-0.2-4c1.1,0.1,2,0.2,3.8,0.2h19.3c1.7,0,2.6,0,3.8-0.2
			c-0.1,1.2-0.2,2.3-0.2,4v19.6c0,2.4,0.1,3.5,0.2,4.4h-2.3v-2h-22.4v2h-2.3c0.1-0.9,0.2-2,0.2-4.4V685.9z M750.5,706.1h22.4v-22.2
			h-22.4V706.1z M762.5,693.7h4c1.5,0,2.1,0,2.9-0.2v2c-0.8-0.1-1.5-0.2-2.9-0.2h-4v5.9h5.4c1.3,0,2.3-0.1,3.2-0.2v2.1
			c-0.9-0.1-1.9-0.2-3.2-0.2h-12.3c-1.3,0-2.2,0.1-3.2,0.2v-2.1c0.9,0.1,1.8,0.2,3.2,0.2h4.9v-5.9H757c-1.4,0-2.1,0-2.9,0.2v-2
			c0.8,0.1,1.5,0.2,2.9,0.2h3.4v-5H756c-1.4,0-2.2,0-3,0.2v-2.1c0.9,0.2,1.6,0.2,3,0.2h11.4c1.5,0,2.3-0.1,3.2-0.2v2.1
			c-0.9-0.1-1.7-0.2-3.1-0.2h-5V693.7z M766.4,696c1.3,1.3,1.8,2,3,3.8l-1.5,1c-1.1-2-1.6-2.7-2.9-4L766.4,696z"/>
		<path id="XMLID_4355_" class="st1" d="M788.7,700.5c-2.4,3.8-4.2,5.7-7.6,8.1c-0.6-0.9-0.8-1.1-1.5-1.7c1.9-1.2,2.9-1.9,4.2-3.2
			c1.4-1.4,2.1-2.4,3.1-4.3L788.7,700.5z M795.2,707.1c0,1.9-0.8,2.4-3.5,2.4c-0.8,0-2-0.1-3.2-0.1c-0.1-0.9-0.2-1.3-0.5-2.1
			c1.4,0.2,2.4,0.3,3.5,0.3c1.4,0,1.6-0.1,1.6-0.8v-9.1h-9.5c-1.5,0-2.5,0.1-3.6,0.2v-2.2c0.9,0.2,1.8,0.2,3.5,0.2h9.6v-1.8
			c0-1.1,0-1.5-0.1-2.2h2.4c-0.1,0.7-0.1,1.2-0.1,2.2v1.8h9.4c1.8,0,2.7-0.1,3.6-0.2v2.2c-1.1-0.1-2.2-0.2-3.6-0.2h-9.4V707.1z
			 M805.3,693.7c-4.7-2.9-6.3-3.8-9.8-5.5c-4.3,2.3-8.7,3.9-14,5.1c-0.2-0.6-0.4-0.9-1.2-1.9c5.9-1.1,8.6-2,13-4.2
			c-2.9-1.4-6.6-2.8-10.2-4.1l1.7-1.4c4.1,1.5,7,2.7,10.5,4.3c2.1-1.2,2.9-1.8,4.9-3.5c1.1-0.9,1.3-1.1,1.7-1.7l2.3,1.2
			c-0.1,0.1-0.1,0.1-0.4,0.3c-0.3,0.2-0.7,0.5-1.7,1.4c-1.9,1.6-2.7,2.2-4.7,3.5c3.9,2,5.7,3,9.5,5.2L805.3,693.7z M806,708.6
			c-1.1-1.5-1.5-2.1-3.3-4c-2.1-2.3-2.3-2.5-3.9-3.9l1.5-1.4c1,1,1,1,3.3,3.2c1.6,1.6,3,3.2,4.1,4.6L806,708.6z"/>
		<path id="XMLID_4352_" class="st1" d="M815.1,683.5c0,2.4-0.4,3.2-2,4.2l-0.9-1.1c1.3-0.6,1.5-1.1,1.5-3.1h-1.9v-3.2h3.2V683.5z
			 M820.2,683.5c0,2.4-0.4,3.2-2,4.2l-0.9-1.1c1.3-0.6,1.5-1.1,1.5-3.1H817v-3.2h3.2V683.5z"/>
		<path id="XMLID_4347_" class="st1" d="M849,685c-1.3,1.8-2.1,2.8-3.6,4.2c-0.5-0.6-0.9-1-1.5-1.3c2.6-2,4.4-4.5,5.3-7.3l2.1,0.6
			c-0.5,1-0.7,1.3-1.1,2h4.9c1.5,0,2.4-0.1,3.2-0.2v2.1c-0.9-0.1-1.7-0.1-3-0.1h-2c0.6,0.8,1.1,1.8,1.7,3.3l-1.9,0.7
			c-0.5-1.6-0.9-2.5-1.8-3.9H849z M857.1,690c0-1.1-0.1-1.4-0.2-2h2.3c-0.1,0.6-0.2,1.2-0.2,2h7.7c1.5,0,2.4-0.1,3.3-0.2v2.1
			c-0.9-0.1-1.9-0.2-3.2-0.2H859v3.2h10.4c1.5,0,2.5-0.1,3.3-0.2v2.1c-0.9-0.1-2-0.2-3.3-0.2h-3.8v3.2h2.3c1.4,0,2.4-0.1,3.3-0.2
			v2.1c-1-0.1-2-0.2-3.3-0.2h-2.3v5.8c0,1.9-0.7,2.4-4,2.4c-1,0-2,0-3.2-0.1c-0.1-0.9-0.3-1.3-0.6-2c1.5,0.2,2.6,0.3,4.2,0.3
			c1.3,0,1.5-0.1,1.5-0.8v-5.4h-14.1c-1.4,0-2.4,0.1-3.3,0.2v-2.1c0.9,0.1,1.9,0.2,3.3,0.2h14.1v-3.2h-15.7c-1.4,0-2.4,0.1-3.4,0.2
			v-2.1c0.8,0.1,1.8,0.2,3.3,0.2h9.3v-3.2h-6.5c-1.4,0-2.4,0.1-3.3,0.2v-2.1c0.9,0.1,1.8,0.2,3.3,0.2H857.1z M851.8,702.1
			c2.4,1.8,2.8,2.1,5,4.5l-1.6,1.5c-2-2.4-2.6-2.9-4.9-4.6L851.8,702.1z M861.4,684.9c-0.7,1.1-1.5,2-2.5,3
			c-0.5-0.5-0.8-0.8-1.6-1.2c2-1.7,3.4-3.9,4.3-6.4l1.9,0.6c-0.3,0.6-0.3,0.6-1.2,2.2h6.9c1.5,0,2.5-0.1,3.4-0.2v2.1
			c-1-0.1-2-0.2-3.4-0.2h-3.6c0.1,0.1,0.1,0.1,0.1,0.2c0.5,0.8,1.1,1.8,1.6,2.9l-1.8,0.7c-0.7-1.6-0.9-2.1-2-3.8H861.4z"/>
		<path id="XMLID_4344_" class="st1" d="M894.5,687.7c0.1,1.5,0.3,3.8,0.6,5.7c0.4,2.3,0.8,3.9,1.5,5.9c1.8-2.6,3.6-6.5,4-8.9
			l2.2,0.9c-0.1,0.1-0.5,1.1-1.3,2.8c-1.5,3.6-2.2,4.8-4,7.2c0.9,1.9,1.6,2.8,2.8,3.9c0.9,0.8,1.5,1.2,1.9,1.2
			c0.5,0,1.1-1.6,1.5-4.6c0.7,0.7,1.2,1.1,1.7,1.4c-0.4,2.1-0.7,3-1.2,3.9c-0.5,1-1.2,1.5-2,1.5c-0.8,0-2.1-0.7-3.4-2
			c-1-0.9-1.8-2.1-2.7-3.6c-2.8,2.9-5.2,4.7-8.9,6.4c-0.5-0.8-0.8-1.1-1.6-1.6c4-1.6,6.9-3.6,9.6-6.7c-1.5-3.5-2.4-7.9-2.7-13.4
			h-11.3c0,2.5,0,2.8-0.1,5.3h6.2c1.2,0,1.7,0,2.4-0.1c-0.1,0.7-0.1,0.7-0.2,3.6c-0.2,3.6-0.5,6-1,6.9c-0.5,1-1.2,1.3-3,1.3
			c-1.1,0-2-0.1-3.4-0.3c-0.1-0.8-0.1-1.3-0.4-2.1c1.8,0.4,2.7,0.5,3.7,0.5c1.1,0,1.4-0.2,1.6-1.5c0.3-1.3,0.4-3.8,0.5-6.6H881
			c-0.3,4.9-0.4,6.4-1,8.9c-0.5,2.3-1.1,3.7-2.5,5.6c-0.6-0.7-1-1.1-1.7-1.5c1.2-1.7,1.8-3,2.3-4.8c0.7-3,1.1-7.3,1.1-13.8
			c0-1.8,0-2.5-0.2-3.5c1.1,0.1,2.3,0.2,3.9,0.2h9.5c0-0.3,0-0.8-0.1-1.4c-0.1-2.7-0.1-3.2-0.3-3.8h2.5c-0.1,0.6-0.2,1.4-0.2,2.6
			c0,0.5,0,2,0.1,2.6h7c1.8,0,2.6,0,3.5-0.2v2.2c-1-0.1-1.9-0.2-3.6-0.2H894.5z M901,685.4c-1.8-1.7-2.5-2.2-4.6-3.4l1.4-1.1
			c2.1,1.2,2.5,1.5,4.6,3.2L901,685.4z"/>
		<path id="XMLID_4341_" class="st1" d="M915.5,699.6c2.1-0.7,3-1.1,5.1-2v2c-3.3,1.4-5.3,2.1-10.1,3.8c-0.6,0.2-1.1,0.4-1.5,0.6
			l-0.6-2.4c1.1-0.1,1.8-0.3,5.1-1.4v-14.2h-2.4c-1,0-1.6,0-2.4,0.2v-2.2c0.7,0.1,1.5,0.2,2.6,0.2h6.6c1.1,0,1.8,0,2.6-0.2v2.2
			c-0.7-0.1-1.5-0.2-2.4-0.2h-2.6V699.6z M922.7,690.2c-1.6,0-2.5,0-3.1,0.2v-2.2c0.8,0.1,1.5,0.2,3,0.2h3.3
			c0.1-1.8,0.1-2.9,0.1-4.5c0-1.2,0-1.9-0.2-2.9h2.5c-0.1,0.9-0.2,1.5-0.2,2.5c0,2.5-0.1,3.3-0.2,4.9h6c1.5,0,2.3,0,2.8-0.1
			c-0.1,0.8-0.1,0.9-0.2,5.5c-0.2,4.9-0.7,10.5-1.3,12.7c-0.5,2.2-1.3,2.6-4.1,2.6c-1,0-2.1-0.1-3.6-0.3c-0.1-0.9-0.2-1.5-0.5-2.2
			c1.9,0.4,3.2,0.5,4.4,0.5c1.4,0,1.7-0.3,2-2.2c0.6-3.2,0.9-7.3,1.1-14.7h-6.7c-0.1,1.1-0.4,3-0.6,4.4c-1.3,6.8-4.1,11.3-9.4,15.1
			c-0.6-0.8-0.9-1.1-1.6-1.6c2.9-1.9,4.7-3.7,6.2-6.1c1.9-3,2.8-6.4,3.4-11.8H922.7z"/>
		<path id="XMLID_4338_" class="st1" d="M950.6,681.2c-0.4,0.9-0.5,1.2-0.7,1.8c-0.7,2-1.2,2.9-2.4,5.4V706c0,1.5,0.1,2.8,0.2,3.9
			h-2.5c0.2-1.3,0.2-2.4,0.2-3.9v-10.7c0-1.4,0-2.3,0.1-4.2c-1.1,1.9-2.1,3.2-4,5.1c-0.6-1-0.6-1-1.4-1.7c2.8-2.6,5.1-5.8,6.8-9.7
			c0.7-1.7,1.2-3.1,1.4-4.3L950.6,681.2z M959,692.8h6.5c1.2,0,1.9-0.1,2.8-0.2v2.2c-1-0.1-1.7-0.2-2.8-0.2H959v5.2h6.6
			c1.2,0,1.9-0.1,2.8-0.2v2.2c-0.9-0.1-1.7-0.2-2.8-0.2H959v4.9c0,1.6,0.1,2.6,0.2,3.4h-2.5c0.1-0.8,0.2-1.7,0.2-3.4v-19.1h-1.4
			c-1.5,3.1-3,5.4-5.1,7.9c-0.6-0.9-0.7-0.9-1.6-1.5c2.5-2.7,4.3-5.4,5.7-8.8c0.8-1.9,1.3-3.5,1.4-4.6l2.3,0.7
			c-0.3,0.5-0.4,0.8-0.6,1.6c-0.5,1.3-0.7,1.9-1.1,2.9h10.2c1.3,0,2,0,2.9-0.2v2.2c-0.8-0.1-1.6-0.2-2.9-0.2H959V692.8z"/>
		<path id="XMLID_4331_" class="st1" d="M490.4,747.3c0-1.3,0-2.2-0.1-3.1c0.9,0.1,1.7,0.1,3,0.1h6.1c1,0,1.8,0,2.6-0.1
			c-0.1,0.7-0.1,1.2-0.1,3v7.4c0,1.6,0,2.4,0.1,3.2h-2.1v-1.4h-7.5v2h-2.2c0.1-0.8,0.2-1.7,0.2-3.4V747.3z M492.4,754.7h7.5v-8.5
			h-7.5V754.7z M495,732.9c0-1.1,0-1.9-0.1-2.7c1,0.1,1.9,0.2,3.6,0.2h10.5c1.9,0,2.8,0,3.6-0.2c-0.1,0.8-0.1,1.5-0.1,2.7v5.4
			c0,1.2,0,2.1,0.1,2.8c-0.9-0.1-1.8-0.1-3.4-0.1h-11c-1.5,0-2.5,0-3.4,0.1c0.1-0.9,0.1-1.7,0.1-2.8V732.9z M497.1,739.2h13.4v-7
			h-13.4V739.2z M505,747c0-1.5,0-2-0.1-2.8c0.8,0.1,1.5,0.1,2.6,0.1h7.1c1.2,0,2,0,2.8-0.1c-0.1,0.8-0.1,1.8-0.1,3.2v7.8
			c0,1.7,0,2.5,0.2,3.4h-2.2v-2H507v2h-2.1c0.1-0.8,0.1-1.7,0.1-3.2V747z M507,754.7h8.3v-8.5H507V754.7z"/>
		<path id="XMLID_4328_" class="st1" d="M532,753.3c0,2.7-2.2,4.8-4.8,4.8c-2.7,0-4.8-2.2-4.8-4.8c0-2.7,2.2-4.8,4.8-4.8
			C529.9,748.4,532,750.6,532,753.3z M524.2,753.3c0,1.6,1.4,3,3,3c1.6,0,3-1.4,3-3c0-1.6-1.4-3-3-3
			C525.5,750.3,524.2,751.6,524.2,753.3z"/>
	</g>
</g>
</svg>
