<?xml version="1.0" encoding="utf-8"?>
<!-- Generator: Adobe Illustrator 19.0.0, SVG Export Plug-In . SVG Version: 6.00 Build 0)  -->
<svg version="1.1" id="图层_2" xmlns="http://www.w3.org/2000/svg" xmlns:xlink="http://www.w3.org/1999/xlink" x="0px" y="0px"
	 viewBox="0 0 1465.2 1257.5" style="enable-background:new 0 0 1465.2 1257.5;" xml:space="preserve">
<style type="text/css">
	.st0{fill:#E1AD0B;}
	.st1{fill:#EAEAEA;}
</style>
<g id="XMLID_120_">
	<line id="XMLID_122_" class="st0" x1="747.4" y1="847.6" x2="1236.4" y2="527.1"/>
	
		<rect id="XMLID_121_" x="990.9" y="395.1" transform="matrix(0.5481 0.8364 -0.8364 0.5481 1023.1016 -519.022)" class="st0" width="2" height="584.6"/>
</g>
<g id="XMLID_117_">
	<line id="XMLID_119_" class="st0" x1="235.9" y1="995.5" x2="724.8" y2="675"/>
	
		<rect id="XMLID_118_" x="479.4" y="542.9" transform="matrix(0.5485 0.8362 -0.8362 0.5485 915.2881 -24.5296)" class="st0" width="2" height="584.6"/>
</g>
<g id="XMLID_112_">
	<line id="XMLID_114_" class="st0" x1="455.7" y1="297.9" x2="817.3" y2="60.9"/>
	
		<rect id="XMLID_113_" x="635.5" y="-36.8" transform="matrix(0.5483 0.8363 -0.8363 0.5483 437.558 -451.248)" class="st0" width="2" height="432.4"/>
</g>
<g id="XMLID_109_">
	<line id="XMLID_111_" class="st0" x1="22.3" y1="825" x2="458.7" y2="539"/>
	
		<rect id="XMLID_110_" x="239.5" y="421.1" transform="matrix(0.5485 0.8362 -0.8362 0.5485 678.851 106.8506)" class="st1" width="2" height="521.7"/>
</g>
<g id="XMLID_106_">
	<line id="XMLID_108_" class="st0" x1="1004" y1="323.6" x2="1440.3" y2="37.6"/>
	
		<rect id="XMLID_107_" x="1221.2" y="-80.2" transform="matrix(0.5479 0.8365 -0.8365 0.5479 703.5994 -940.7166)" class="st1" width="2" height="521.7"/>
</g>
<g id="XMLID_103_">
	<line id="XMLID_105_" class="st0" x1="23.3" y1="797.2" x2="459.7" y2="511.2"/>
	
		<rect id="XMLID_104_" x="237.5" y="393.3" transform="matrix(0.5482 0.8364 -0.8364 0.5482 656.2597 93.613)" class="st1" width="8" height="521.7"/>
</g>
<g id="XMLID_100_">
	<line id="XMLID_102_" class="st0" x1="1005" y1="346.9" x2="1441.3" y2="60.9"/>
	
		<rect id="XMLID_101_" x="1219.2" y="-57" transform="matrix(0.5481 0.8364 -0.8364 0.5481 723.214 -930.8954)" class="st1" width="8" height="521.7"/>
</g>
<g id="XMLID_96_">
	<line id="XMLID_99_" class="st0" x1="393.9" y1="913.8" x2="758.3" y2="675"/>
	
		<rect id="XMLID_98_" x="572.1" y="576.6" transform="matrix(0.5482 0.8364 -0.8364 0.5482 924.7009 -122.8923)" class="st1" width="8" height="435.6"/>
</g>
<g id="XMLID_92_">
	<line id="XMLID_95_" class="st0" x1="915.5" y1="297.9" x2="990.8" y2="248.6"/>
	
		<rect id="XMLID_93_" x="952.6" y="228.2" transform="matrix(0.5488 0.8359 -0.8359 0.5488 658.4279 -673.4723)" class="st1" width="1" height="90.1"/>
</g>
</svg>
